*
*
G04 PADS 9.4.1 Build Number: 494907 generated Gerber (RS-274-X) file*
G04 PC Version=2.1*
*
%IN "P9771A_EasyEDA_Edit.pcb"*%
*
%MOIN*%
*
%FSDAX24Y24*%
*
*
*
*
G04 PC Standard Apertures*
*
*
G04 Thermal Relief Aperture macro.*
%AMTER*
1,1,$1,0,0*
1,0,$1-$2,0,0*
21,0,$3,$4,0,0,45*
21,0,$3,$4,0,0,135*
%
*
*
G04 Annular Aperture macro.*
%AMANN*
1,1,$1,0,0*
1,0,$2,0,0*
%
*
*
G04 Odd Aperture macro.*
%AMODD*
1,1,$1,0,0*
1,0,$1-0.005,0,0*
%
*
*
G04 PC Custom Aperture Macros*
*
*
*
*
*
*
G04 PC Aperture Table*
*
%ADD020C,0.06*%
%ADD026C,0.1*%
%ADD031C,0.01*%
%ADD032C,0.025*%
%ADD041C,0.07*%
%ADD051C,0.001*%
%ADD066C,0.028*%
%ADD074C,0.005*%
%ADD081C,0.125*%
%ADD150C,0.128*%
%ADD394C,0.065*%
*
*
*
*
G04 PC Circuitry*
G04 Layer Name P9771A_EasyEDA_Edit.pcb - circuitry*
%LPD*%
*
*
G04 PC Custom Flashes*
G04 Layer Name P9771A_EasyEDA_Edit.pcb - flashes*
%LPD*%
*
*
G04 PC Circuitry*
G04 Layer Name P9771A_EasyEDA_Edit.pcb - circuitry*
%LPD*%
*
G54D20*
G01X028777Y020610D03*
X027777Y020610D03*
X026777Y020610D03*
X025777Y020610D03*
X024777Y020610D03*
X023777Y020610D03*
X022777Y020610D03*
X021777Y020610D03*
X020777Y020610D03*
X019777Y020610D03*
X018777Y020610D03*
X017777Y020610D03*
X016777Y020610D03*
X015777Y020610D03*
X015777Y012660D03*
X016777Y012660D03*
X017777Y012660D03*
X018777Y012660D03*
X019777Y012660D03*
X020777Y012660D03*
X021777Y012660D03*
X022777Y012660D03*
X023777Y012660D03*
X024777Y012660D03*
X025777Y012660D03*
X026777Y012660D03*
X027777Y012660D03*
X028777Y012660D03*
X012750Y032250D03*
X013750Y032250D03*
X014750Y032250D03*
X036854Y028278D03*
X036350Y027278D03*
X035854Y028278D03*
X035350Y027278D03*
X034854Y028278D03*
X034350Y027278D03*
X033854Y028278D03*
X033350Y027278D03*
G54D26*
X038181Y029577D03*
X032023Y029577D03*
G54D31*
X019056Y020889D02*
X018989Y020822D01*
X018498Y020889D02*
X018565Y020822D01*
X035053Y025255D02*
X034985Y025188D01*
X034741Y025255D02*
X034809Y025188D01*
X034741Y024944D02*
X034809Y025011D01*
X035053Y024944D02*
X034985Y025011D01*
X021353Y029405D02*
X021285Y029338D01*
X021041Y029405D02*
X021109Y029338D01*
X021041Y029094D02*
X021109Y029161D01*
X021353Y029094D02*
X021285Y029161D01*
X018103Y028305D02*
X018035Y028238D01*
X017791Y028305D02*
X017859Y028238D01*
X017791Y027994D02*
X017859Y028061D01*
X018103Y027994D02*
X018035Y028061D01*
X018603Y029455D02*
X018535Y029388D01*
X018291Y029455D02*
X018359Y029388D01*
X018291Y029144D02*
X018359Y029211D01*
X018603Y029144D02*
X018535Y029211D01*
X020053Y029405D02*
X019985Y029338D01*
X019741Y029405D02*
X019809Y029338D01*
X019741Y029094D02*
X019809Y029161D01*
X020053Y029094D02*
X019985Y029161D01*
X026403Y025255D02*
X026335Y025188D01*
X026091Y025255D02*
X026159Y025188D01*
X026953Y028205D02*
X026885Y028138D01*
X026641Y028205D02*
X026709Y028138D01*
X026641Y027894D02*
X026709Y027961D01*
X026953Y027894D02*
X026885Y027961D01*
X027253Y025255D02*
X027185Y025188D01*
X026941Y025255D02*
X027009Y025188D01*
X026953Y026405D02*
X026885Y026338D01*
X026641Y026405D02*
X026709Y026338D01*
X026641Y026094D02*
X026709Y026161D01*
X026953Y026094D02*
X026885Y026161D01*
X026853Y025705D02*
X026785Y025638D01*
X026541Y025705D02*
X026609Y025638D01*
X026541Y025394D02*
X026609Y025461D01*
X026853Y025394D02*
X026785Y025461D01*
X018003Y026305D02*
X017935Y026238D01*
X017691Y026305D02*
X017759Y026238D01*
X017691Y025994D02*
X017759Y026061D01*
X018003Y025994D02*
X017935Y026061D01*
X027253Y024655D02*
X027185Y024588D01*
X026941Y024655D02*
X027009Y024588D01*
X026941Y024344D02*
X027009Y024411D01*
X027253Y024344D02*
X027185Y024411D01*
X024053Y026205D02*
X023985Y026138D01*
X023741Y026205D02*
X023809Y026138D01*
X023741Y025894D02*
X023809Y025961D01*
X024053Y025894D02*
X023985Y025961D01*
X024053Y024855D02*
X023985Y024788D01*
X023741Y024855D02*
X023809Y024788D01*
X023741Y024544D02*
X023809Y024611D01*
X024053Y024544D02*
X023985Y024611D01*
X022603Y023655D02*
X022535Y023588D01*
X022291Y023655D02*
X022359Y023588D01*
X022291Y023344D02*
X022359Y023411D01*
X022603Y023344D02*
X022535Y023411D01*
X019299Y023770D02*
X019232Y023703D01*
X018988Y023770D02*
X019055Y023703D01*
X018988Y023459D02*
X019055Y023526D01*
X019299Y023459D02*
X019232Y023526D01*
X019303Y022955D02*
X019235Y022888D01*
X018991Y022955D02*
X019059Y022888D01*
X018991Y022644D02*
X019059Y022711D01*
X019303Y022644D02*
X019235Y022711D01*
X018653Y017805D02*
X018585Y017738D01*
X018341Y017805D02*
X018409Y017738D01*
X018341Y017494D02*
X018409Y017561D01*
X018653Y017494D02*
X018585Y017561D01*
X019203Y022105D02*
X019135Y022038D01*
X018891Y022105D02*
X018959Y022038D01*
X018891Y021794D02*
X018959Y021861D01*
X019203Y021794D02*
X019135Y021861D01*
X019349Y024170D02*
X019282Y024103D01*
X019038Y024170D02*
X019105Y024103D01*
X019038Y023859D02*
X019105Y023926D01*
X019349Y023859D02*
X019282Y023926D01*
X024053Y027305D02*
X023985Y027238D01*
X023741Y027305D02*
X023809Y027238D01*
X023741Y026994D02*
X023809Y027061D01*
X024053Y026994D02*
X023985Y027061D01*
X018303Y018755D02*
X018235Y018688D01*
X017991Y018755D02*
X018059Y018688D01*
X017991Y018444D02*
X018059Y018511D01*
X018303Y018444D02*
X018235Y018511D01*
X024053Y026755D02*
X023985Y026688D01*
X023741Y026755D02*
X023809Y026688D01*
X023741Y026444D02*
X023809Y026511D01*
X024053Y026444D02*
X023985Y026511D01*
X017199Y024170D02*
X017132Y024103D01*
X016888Y023859D02*
X016955Y023926D01*
X017199Y023859D02*
X017132Y023926D01*
X016888Y024170D02*
X016955Y024103D01*
X026403Y024655D02*
X026335Y024588D01*
X026091Y024655D02*
X026159Y024588D01*
X026091Y024344D02*
X026159Y024411D01*
X026403Y024344D02*
X026335Y024411D01*
X026853Y024155D02*
X026785Y024088D01*
X026541Y024155D02*
X026609Y024088D01*
X026541Y023844D02*
X026609Y023911D01*
X026853Y023844D02*
X026785Y023911D01*
X037455Y015155D02*
X037388Y015088D01*
X037144Y015155D02*
X037211Y015088D01*
X037144Y014844D02*
X037211Y014911D01*
X037455Y014844D02*
X037388Y014911D01*
X019903Y018705D02*
X019835Y018638D01*
X019591Y018705D02*
X019659Y018638D01*
X019591Y018394D02*
X019659Y018461D01*
X019903Y018394D02*
X019835Y018461D01*
X015053Y018305D02*
X014985Y018238D01*
X014741Y018305D02*
X014809Y018238D01*
X014741Y017994D02*
X014809Y018061D01*
X015053Y017994D02*
X014985Y018061D01*
X014803Y017555D02*
X014735Y017488D01*
X014491Y017555D02*
X014559Y017488D01*
X014491Y017244D02*
X014559Y017311D01*
X014803Y017244D02*
X014735Y017311D01*
X017253Y016655D02*
X017185Y016588D01*
X016941Y016655D02*
X017009Y016588D01*
X016941Y016344D02*
X017009Y016411D01*
X017253Y016344D02*
X017185Y016411D01*
X016303Y017955D02*
X016235Y017888D01*
X015991Y017955D02*
X016059Y017888D01*
X015991Y017644D02*
X016059Y017711D01*
X016303Y017644D02*
X016235Y017711D01*
X017953Y024905D02*
X017885Y024838D01*
X017641Y024905D02*
X017709Y024838D01*
X017641Y024594D02*
X017709Y024661D01*
X017953Y024594D02*
X017885Y024661D01*
X036053Y024855D02*
X035985Y024788D01*
X036053Y024544D02*
X035985Y024611D01*
X026903Y031155D02*
X026835Y031088D01*
X026591Y031155D02*
X026659Y031088D01*
X026591Y030844D02*
X026659Y030911D01*
X026903Y030844D02*
X026835Y030911D01*
X017203Y025405D02*
X017135Y025338D01*
X016891Y025405D02*
X016959Y025338D01*
X016891Y025094D02*
X016959Y025161D01*
X017203Y025094D02*
X017135Y025161D01*
X021103Y027355D02*
X021035Y027288D01*
X020791Y027355D02*
X020859Y027288D01*
X020791Y027044D02*
X020859Y027111D01*
X021103Y027044D02*
X021035Y027111D01*
X020399Y024270D02*
X020332Y024203D01*
X020088Y024270D02*
X020155Y024203D01*
X020088Y023959D02*
X020155Y024026D01*
X020399Y023959D02*
X020332Y024026D01*
X022903Y027805D02*
X022835Y027738D01*
X022591Y027805D02*
X022659Y027738D01*
X022591Y027494D02*
X022659Y027561D01*
X022903Y027494D02*
X022835Y027561D01*
X030605Y026455D02*
X030538Y026388D01*
X030294Y026455D02*
X030361Y026388D01*
X030294Y026144D02*
X030361Y026211D01*
X030605Y026144D02*
X030538Y026211D01*
X030205Y028955D02*
X030138Y028888D01*
X029894Y028955D02*
X029961Y028888D01*
X029894Y028644D02*
X029961Y028711D01*
X030205Y028644D02*
X030138Y028711D01*
X036605Y024505D02*
X036538Y024438D01*
X036294Y024505D02*
X036361Y024438D01*
X036294Y024194D02*
X036361Y024261D01*
X036605Y024194D02*
X036538Y024261D01*
X037355Y024505D02*
X037288Y024438D01*
X037044Y024505D02*
X037111Y024438D01*
X037044Y024194D02*
X037111Y024261D01*
X037355Y024194D02*
X037288Y024261D01*
X020553Y022755D02*
X020485Y022688D01*
X020241Y022755D02*
X020309Y022688D01*
X020241Y022444D02*
X020309Y022511D01*
X020553Y022444D02*
X020485Y022511D01*
X006893Y010000D02*
X009393Y010000D01*
X009393Y010000D02*
X009393Y016915D01*
X009693Y017215D02*
G75*
G03X009393Y016915I000000J-000300D01*
G01X009693Y017215D02*
X010093Y017215D01*
X010393Y016915D02*
G03X010093Y017215I-000299J000000D01*
G01X010393Y016915D02*
X010393Y012666D01*
X010393Y012666D02*
X010393Y012666D01*
X010196Y012469D02*
G03X010393Y012666I000000J000197D01*
G01X010196Y012469D02*
X010000Y012469D01*
X010000Y011957*
X010000Y011957D02*
X010197Y011957D01*
X010394Y011761D02*
G03X010197Y011957I-000196J-000000D01*
G01X010394Y011761D02*
X010396Y010589D01*
X010986Y010000*
X010986Y010000D02*
X038543Y010000D01*
X039133Y010590*
X039133Y010590D02*
X039133Y011760D01*
X039330Y011957D02*
G03X039133Y011760I000000J-000196D01*
G01X039330Y011957D02*
X039527Y011957D01*
X039527Y011957D02*
X039527Y012469D01*
X039527Y012469D02*
X039330Y012469D01*
X039133Y012666D02*
G03X039330Y012469I000197J000000D01*
G01X039133Y012666D02*
X039133Y016915D01*
X039433Y017215D02*
G03X039133Y016915I000000J-000300D01*
G01X039433Y017215D02*
X039833Y017215D01*
X040133Y016915D02*
G03X039833Y017215I-000299J-000000D01*
G01X040133Y016915D02*
X040133Y010000D01*
X040133Y010000D02*
X042633Y010000D01*
X042633Y010000D02*
X042633Y033115D01*
X042633Y033115D02*
X040133Y033115D01*
X040133Y033115D02*
X040133Y029215D01*
X039833Y028915D02*
G03X040133Y029215I000000J000300D01*
G01X039833Y028915D02*
X039433Y028915D01*
X039133Y029215D02*
G03X039433Y028915I000300J000000D01*
G01X039133Y029215D02*
X039133Y033115D01*
X039133Y033115D02*
X025242Y033115D01*
X024454Y033115D02*
G03X025242Y033115I000394J000000D01*
G01X024454Y033115D02*
X022033Y033115D01*
X021246Y033115D02*
G03X022033Y033115I000393J000000D01*
G01X021246Y033115D02*
X010393Y033115D01*
X010393Y033115D02*
X010393Y029215D01*
X010093Y028915D02*
G03X010393Y029215I000000J000300D01*
G01X010093Y028915D02*
X009693Y028915D01*
X009393Y029215D02*
G03X009693Y028915I000300J000000D01*
G01X009393Y029215D02*
X009393Y033115D01*
X009393Y033115D02*
X006893Y033115D01*
X006893Y033115D02*
X006893Y010000D01*
X009693Y027915D02*
G03X009393Y027615I000000J-000300D01*
G01X009393Y027615D02*
X009393Y018515D01*
X009393Y018515D02*
G03X009693Y018215I000300J000000D01*
G01X009693Y018215D02*
X010093Y018215D01*
X010093Y018215D02*
G03X010393Y018515I000000J000300D01*
G01X010393Y018515D02*
X010393Y020579D01*
X010393Y020579D02*
G03X010196Y020776I-000196J000000D01*
G01X010196Y020776D02*
X010000Y020776D01*
X010000Y021288*
X010196Y021288*
X010196Y021288D02*
G03X010393Y021485I000000J000197D01*
G01X010393Y021485D02*
X010393Y021485D01*
X010393Y021485D02*
X010393Y027615D01*
X010393Y027615D02*
G03X010093Y027915I-000299J000000D01*
G01X010093Y027915D02*
X009693Y027915D01*
X040133Y027615D02*
G03X039833Y027915I-000299J-000000D01*
G01X040133Y027615D02*
X040133Y018515D01*
X039833Y018215D02*
G03X040133Y018515I000000J000300D01*
G01X039833Y018215D02*
X039433Y018215D01*
X039133Y018515D02*
G03X039433Y018215I000300J000000D01*
G01X039133Y018515D02*
X039133Y020579D01*
X039330Y020776D02*
G03X039133Y020579I000000J-000196D01*
G01X039330Y020776D02*
X039527Y020776D01*
X039527Y020776D02*
X039527Y021288D01*
X039527Y021288D02*
X039330Y021288D01*
X039133Y021485D02*
G03X039330Y021288I000197J000000D01*
G01X039133Y021485D02*
X039133Y027615D01*
X039433Y027915D02*
G03X039133Y027615I000000J-000300D01*
G01X039433Y027915D02*
X039833Y027915D01*
G54D32*
X037300Y015000D03*
X014647Y017400D03*
X016147Y017800D03*
X014897Y018150D03*
X018497Y017650D03*
X018147Y018600D03*
X019097Y018000D03*
X019747Y018550D03*
X017097Y016500D03*
X019143Y023615D03*
X019047Y021950D03*
X020397Y022600D03*
X019147Y022800D03*
X017547Y023750D03*
X018247Y023200D03*
X022400Y022400D03*
X022400Y021500D03*
X022447Y023500D03*
X017043Y024015D03*
X019193Y024015D03*
X019643Y025265D03*
X017847Y026150D03*
X019993Y025265D03*
X018297Y027300D03*
X018347Y026550D03*
X017047Y025250D03*
X017047Y025800D03*
X017047Y026550D03*
X016847Y027700D03*
X017047Y027100D03*
X017747Y024200D03*
X017797Y024750D03*
X020243Y024115D03*
X023043Y024315D03*
X023897Y024700D03*
X023897Y026050D03*
X023897Y026600D03*
X023897Y027150D03*
X022747Y027650D03*
X023897Y025250D03*
X020947Y027200D03*
X027097Y024500D03*
X026697Y024000D03*
X026247Y024500D03*
X027097Y025100D03*
X026247Y025100D03*
X026697Y025550D03*
X026797Y026250D03*
X030450Y026300D03*
X036450Y024350D03*
X034897Y025100D03*
X035897Y024700D03*
X037200Y024350D03*
X011950Y031250D03*
X015750Y030800D03*
X014100Y031250D03*
X017950Y028700D03*
X018447Y029300D03*
X019897Y029250D03*
X017947Y028150D03*
X019947Y031300D03*
X019947Y028750D03*
X018847Y030150D03*
X019447Y030450D03*
X020247Y030150D03*
X019397Y031300D03*
X021197Y029250D03*
X020797Y030150D03*
X026797Y028050D03*
X025547Y028300D03*
X025547Y030250D03*
X027147Y030150D03*
X026747Y031000D03*
X030050Y028800D03*
G54D41*
X035397Y016830D03*
X035397Y017830D03*
X035397Y018830D03*
X035397Y019830D03*
X035397Y020830D03*
G54D51*
G54D66*
X010593Y017515D03*
X010593Y017915D03*
X010593Y018315D03*
X010593Y017115D03*
X010593Y028215D03*
X010593Y028615D03*
X010593Y029015D03*
X010593Y027815D03*
X038943Y017515D03*
X038943Y017915D03*
X038943Y018315D03*
X038943Y017115D03*
X038943Y028215D03*
X038943Y028615D03*
X038943Y029015D03*
X038943Y027815D03*
G54D74*
X019317Y018000D02*
G03X019317Y018000I-000219J0D01*
G01X018717Y017650D02*
G03X018717Y017650I-000219J0D01*
G01X018367Y018600D02*
G03X018367Y018600I-000219J0D01*
G01X019267Y021950D02*
G03X019267Y021950I-000219J0D01*
G01X019367Y022800D02*
G03X019367Y022800I-000219J0D01*
G01X018172Y020610D02*
G03X018172Y020610I-000394J0D01*
G01X018467Y023200D02*
G03X018467Y023200I-000219J0D01*
G01X017767Y023750D02*
G03X017767Y023750I-000219J0D01*
G01X026917Y024000D02*
G03X026917Y024000I-000219J0D01*
G01X027317Y024500D02*
G03X027317Y024500I-000219J0D01*
G01X026467Y024500D02*
G03X026467Y024500I-000219J0D01*
G01X024117Y024700D02*
G03X024117Y024700I-000219J0D01*
G01X024117Y025250D02*
G03X024117Y025250I-000219J0D01*
G01X024117Y026050D02*
G03X024117Y026050I-000219J0D01*
G01X024117Y026600D02*
G03X024117Y026600I-000219J0D01*
G01X024117Y027150D02*
G03X024117Y027150I-000219J0D01*
G01X023263Y024315D02*
G03X023263Y024315I-000219J0D01*
G01X037520Y015000D02*
G03X037520Y015000I-000220J0D01*
G01X037420Y024350D02*
G03X037420Y024350I-000220J0D01*
G01X036670Y024350D02*
G03X036670Y024350I-000220J0D01*
G01X029172Y012660D02*
G03X029172Y012660I-000394J0D01*
G01X028172Y012660D02*
G03X028172Y012660I-000394J0D01*
G01X027172Y012660D02*
G03X027172Y012660I-000394J0D01*
G01X026172Y012660D02*
G03X026172Y012660I-000394J0D01*
G01X025172Y012660D02*
G03X025172Y012660I-000394J0D01*
G01X024172Y012660D02*
G03X024172Y012660I-000394J0D01*
G01X023172Y012660D02*
G03X023172Y012660I-000394J0D01*
G01X022172Y012660D02*
G03X022172Y012660I-000394J0D01*
G01X021172Y012660D02*
G03X021172Y012660I-000394J0D01*
G01X020172Y012660D02*
G03X020172Y012660I-000394J0D01*
G01X019172Y012660D02*
G03X019172Y012660I-000394J0D01*
G01X018172Y012660D02*
G03X018172Y012660I-000394J0D01*
G01X017172Y012660D02*
G03X017172Y012660I-000394J0D01*
G01X017317Y016500D02*
G03X017317Y016500I-000219J0D01*
G01X030270Y028800D02*
G03X030270Y028800I-000220J0D01*
G01X027367Y030150D02*
G03X027367Y030150I-000219J0D01*
G01X026967Y031000D02*
G03X026967Y031000I-000219J0D01*
G01X025767Y030250D02*
G03X025767Y030250I-000219J0D01*
G01X016172Y020610D02*
G03X016172Y020610I-000394J0D01*
G01X015970Y030800D02*
G03X015970Y030800I-000220J0D01*
G01X014867Y017400D02*
G03X014867Y017400I-000219J0D01*
G01X015117Y018150D02*
G03X015117Y018150I-000219J0D01*
G01X015145Y032250D02*
G03X015145Y032250I-000395J0D01*
G01X014320Y031250D02*
G03X014320Y031250I-000220J0D01*
G01X014145Y032250D02*
G03X014145Y032250I-000395J0D01*
G01X013145Y032250D02*
G03X013145Y032250I-000395J0D01*
G01X012170Y031250D02*
G03X012170Y031250I-000220J0D01*
G01X022967Y027650D02*
G03X022967Y027650I-000219J0D01*
G01X021167Y027200D02*
G03X021167Y027200I-000219J0D01*
G01X020617Y022600D02*
G03X020617Y022600I-000219J0D01*
G01X020463Y024115D02*
G03X020463Y024115I-000219J0D01*
G01X018017Y024750D02*
G03X018017Y024750I-000219J0D01*
G01X017267Y025250D02*
G03X017267Y025250I-000219J0D01*
G01X016172Y012660D02*
G03X016172Y012660I-000394J0D01*
G01X016367Y017800D02*
G03X016367Y017800I-000219J0D01*
G01X022620Y021500D02*
G03X022620Y021500I-000220J0D01*
G01X022620Y022400D02*
G03X022620Y022400I-000220J0D01*
G01X035117Y025100D02*
G03X035117Y025100I-000219J0D01*
G01X026917Y025550D02*
G03X026917Y025550I-000219J0D01*
G01X027017Y026250D02*
G03X027017Y026250I-000219J0D01*
G01X027017Y028050D02*
G03X027017Y028050I-000219J0D01*
G01X021417Y029250D02*
G03X021417Y029250I-000219J0D01*
G01X021017Y030150D02*
G03X021017Y030150I-000219J0D01*
G01X020117Y029250D02*
G03X020117Y029250I-000219J0D01*
G01X020467Y030150D02*
G03X020467Y030150I-000219J0D01*
G01X019667Y030450D02*
G03X019667Y030450I-000219J0D01*
G01X018567Y026550D02*
G03X018567Y026550I-000219J0D01*
G01X018517Y027300D02*
G03X018517Y027300I-000219J0D01*
G01X018667Y029300D02*
G03X018667Y029300I-000219J0D01*
G01X019067Y030150D02*
G03X019067Y030150I-000219J0D01*
G01X018067Y026150D02*
G03X018067Y026150I-000219J0D01*
G01X018167Y028150D02*
G03X018167Y028150I-000219J0D01*
G01X018170Y028700D02*
G03X018170Y028700I-000220J0D01*
G01X017267Y026550D02*
G03X017267Y026550I-000219J0D01*
G01X017267Y027100D02*
G03X017267Y027100I-000219J0D01*
G01X017067Y027700D02*
G03X017067Y027700I-000219J0D01*
G01X030572Y019500D02*
X030572Y024150D01*
X030572Y024150D02*
G03X030547Y024175I-000024J000000D01*
G01X030547Y024175D02*
X028972Y024175D01*
X028972Y024175D02*
X028972Y024800D01*
X028972Y024800D02*
G03X028947Y024825I-000024J000000D01*
G01X028947Y024825D02*
X024272Y024825D01*
X024272Y024825D02*
X024271Y027550D01*
X024271Y027550D02*
G03X024246Y027575I-000024J000000D01*
G01X024246Y027575D02*
X023297Y027575D01*
G03X023272Y027550I000000J-000025*
G01X023272Y027550*
X023272Y024725*
X023272Y024725D02*
X022247Y024725D01*
X022247Y024725D02*
G03X022222Y024700I000000J-000025D01*
G01X022222Y024700D02*
X022222Y023641D01*
X022222Y023641D02*
G03X022267Y023627I000025J000000D01*
G01X022267Y023372D02*
G03X022267Y023627I000180J000128D01*
G01X022267Y023372D02*
G03X022222Y023358I-000019J-000013D01*
G01X022222Y023358D02*
X022222Y023100D01*
X022222Y023100D02*
G03X022247Y023075I000025J000000D01*
G01X022247Y023075D02*
X029122Y023075D01*
X029122Y023075D02*
X029122Y020808D01*
X029122Y020808D02*
G03X029125Y020796I000025J000000D01*
G01X029125Y020423D02*
G03X029125Y020796I-000347J000187D01*
G01X029125Y020423D02*
G03X029122Y020411I000022J-000011D01*
G01X029122Y020411D02*
X029122Y020175D01*
X029122Y020175D02*
X018322Y020175D01*
X018322Y020175D02*
X018322Y021225D01*
X018322Y021225D02*
X019543Y021225D01*
X019543Y021225D02*
G03X019568Y021250I000000J000025D01*
G01X019568Y021250D02*
X019568Y024165D01*
X019568Y024165D02*
G03X019543Y024190I-000024J000000D01*
G01X019543Y024190D02*
X019387Y024190D01*
G03X019367Y024149I000000J-000025*
G01X019295Y023819D02*
G03X019367Y024149I-000101J000196D01*
G01X019295Y023819D02*
G03X019290Y023779I000011J-000021D01*
G01X019042Y023810D02*
G03X019290Y023779I000101J-000195D01*
G01X019042Y023810D02*
G03X019047Y023850I-000011J000022D01*
G01X019019Y024149D02*
G03X019047Y023850I000174J-000134D01*
G01X019019Y024149D02*
G03X018999Y024190I-000019J000016D01*
G01X018999Y024190D02*
X017990Y024190D01*
G03X017965Y024168I000000J-000025*
G01X017529Y024168D02*
G03X017965Y024168I000218J000032D01*
G01X017529Y024168D02*
G03X017505Y024190I-000024J-000003D01*
G01X017237Y024190*
G03X017217Y024149I000000J-000025*
G01X016864Y023887D02*
G03X017217Y024149I000179J000128D01*
G01X016864Y023887D02*
G03X016818Y023873I-000020J-000013D01*
G01X016818Y023873D02*
X016818Y021024D01*
X016818Y021024D02*
G03X016839Y021000I000025J000000D01*
G01X016839Y020219D02*
G03X016839Y021000I-000061J000391D01*
G01X016839Y020219D02*
G03X016818Y020195I000004J-000023D01*
G01X016818Y020195D02*
X016818Y017250D01*
X016818Y017250D02*
G03X016843Y017225I000025J000000D01*
G01X016843Y017225D02*
X019397Y017225D01*
X019397Y017225D02*
G03X019422Y017250I000000J000025D01*
G01X019422Y017250D02*
X019422Y019475D01*
X019422Y019475D02*
X030547Y019475D01*
X030547Y019475D02*
G03X030572Y019500I000000J000025D01*
G01X016869Y024149D02*
G03X016849Y024190I-000019J000016D01*
G01X016849Y024190D02*
X016843Y024190D01*
X016843Y024190D02*
G03X016818Y024165I000000J-000025D01*
G01X016818Y024165D02*
X016818Y024156D01*
X016818Y024156D02*
G03X016864Y024142I000025J000000D01*
G01X016869Y024149D02*
G03X016864Y024142I000174J-000134D01*
G01X038872Y011876D02*
X038872Y012550D01*
X038872Y012550D02*
G03X038871Y012556I-000024J000000D01*
G01X038858Y012666D02*
G03X038871Y012556I000472J000000D01*
G01X038858Y012666D02*
X038858Y015450D01*
X038858Y015450D02*
G03X038833Y015475I-000024J000000D01*
G01X038833Y015475D02*
X033872Y015475D01*
X033872Y015475D02*
X033872Y022225D01*
X033872Y022225D02*
X038397Y022225D01*
X038397Y022225D02*
G03X038422Y022250I000000J000025D01*
G01X038422Y022250D02*
X038422Y025700D01*
X038422Y025700D02*
G03X038397Y025725I-000024J000000D01*
G01X038397Y025725D02*
X035647Y025725D01*
X035647Y025725D02*
G03X035622Y025700I000000J-000025D01*
G01X035622Y025700D02*
X035622Y025550D01*
X035622Y025550D02*
G03X035647Y025525I000025J000000D01*
G01X035647Y025525D02*
X035772Y025525D01*
X035772Y025525D02*
X035772Y024923D01*
X035772Y024923D02*
G03X035807Y024900I000025J000000D01*
G01X035807Y024499D02*
G03X035807Y024900I000090J000201D01*
G01X035807Y024499D02*
G03X035772Y024476I-000009J-000022D01*
G01X035772Y024476D02*
X035772Y024175D01*
X035772Y024175D02*
X030747Y024175D01*
X030747Y024175D02*
G03X030722Y024150I000000J-000025D01*
G01X030722Y024150D02*
X030722Y019325D01*
X030722Y019325D02*
X019597Y019325D01*
X019597Y019325D02*
G03X019572Y019300I000000J-000025D01*
G01X019572Y019300D02*
X019572Y018743D01*
X019572Y018743D02*
G03X019612Y018723I000025J000000D01*
G01X019612Y018376D02*
G03X019612Y018723I000135J000174D01*
G01X019612Y018376D02*
G03X019572Y018356I-000014J-000019D01*
G01X019572Y018356D02*
X019572Y017075D01*
X019572Y017075D02*
X016668Y017075D01*
X016668Y017075D02*
X016668Y020211D01*
X016668Y020211D02*
G03X016651Y020235I-000024J000000D01*
G01X016651Y020984D02*
G03X016651Y020235I000126J-000374D01*
G01X016651Y020984D02*
G03X016668Y021008I-000007J000024D01*
G01X016668Y021008D02*
X016668Y024340D01*
X016668Y024340D02*
X017566Y024340D01*
G03X017584Y024348I000000J000025*
G01X017910Y024348D02*
G03X017584Y024348I-000162J-000148D01*
G01X017910Y024348D02*
G03X017928Y024340I000018J000017D01*
G01X017928Y024340D02*
X019718Y024340D01*
X019718Y024340D02*
X019718Y021075D01*
X019718Y021075D02*
X018497Y021075D01*
X018497Y021075D02*
G03X018472Y021050I000000J-000025D01*
G01X018472Y021050D02*
X018472Y020923D01*
X018472Y020923D02*
G03X018514Y020904I000025J000000D01*
G01X019087Y020365D02*
G03X018514Y020904I-000309J000245D01*
G01X019087Y020365D02*
G03X019107Y020325I000020J-000015D01*
G01X019447Y020325*
X019447Y020325D02*
G03X019467Y020365I000000J000025D01*
G01X020087Y020365D02*
G03X019467Y020365I-000309J000245D01*
G01X020087Y020365D02*
G03X020107Y020325I000020J-000015D01*
G01X020447Y020325*
X020447Y020325D02*
G03X020467Y020365I000000J000025D01*
G01X021087Y020365D02*
G03X020467Y020365I-000309J000245D01*
G01X021087Y020365D02*
G03X021107Y020325I000020J-000015D01*
G01X021447Y020325*
X021447Y020325D02*
G03X021467Y020365I000000J000025D01*
G01X022087Y020365D02*
G03X021467Y020365I-000309J000245D01*
G01X022087Y020365D02*
G03X022107Y020325I000020J-000015D01*
G01X022447Y020325*
X022447Y020325D02*
G03X022467Y020365I000000J000025D01*
G01X023087Y020365D02*
G03X022467Y020365I-000309J000245D01*
G01X023087Y020365D02*
G03X023107Y020325I000020J-000015D01*
G01X023447Y020325*
X023447Y020325D02*
G03X023467Y020365I000000J000025D01*
G01X024087Y020365D02*
G03X023467Y020365I-000309J000245D01*
G01X024087Y020365D02*
G03X024107Y020325I000020J-000015D01*
G01X024447Y020325*
X024447Y020325D02*
G03X024467Y020365I000000J000025D01*
G01X025087Y020365D02*
G03X024467Y020365I-000309J000245D01*
G01X025087Y020365D02*
G03X025107Y020325I000020J-000015D01*
G01X025447Y020325*
X025447Y020325D02*
G03X025467Y020365I000000J000025D01*
G01X026087Y020365D02*
G03X025467Y020365I-000309J000245D01*
G01X026087Y020365D02*
G03X026107Y020325I000020J-000015D01*
G01X026447Y020325*
X026447Y020325D02*
G03X026467Y020365I000000J000025D01*
G01X027087Y020365D02*
G03X026467Y020365I-000309J000245D01*
G01X027087Y020365D02*
G03X027107Y020325I000020J-000015D01*
G01X027447Y020325*
X027447Y020325D02*
G03X027467Y020365I000000J000025D01*
G01X028087Y020365D02*
G03X027467Y020365I-000309J000245D01*
G01X028087Y020365D02*
G03X028107Y020325I000020J-000015D01*
G01X028447Y020325*
X028447Y020325D02*
G03X028467Y020365I000000J000025D01*
G01X028937Y020971D02*
G03X028467Y020365I-000159J-000361D01*
G01X028937Y020971D02*
G03X028972Y020994I000010J000023D01*
G01X028972Y020994D02*
X028972Y022900D01*
X028972Y022900D02*
G03X028947Y022925I-000024J000000D01*
G01X028947Y022925D02*
X022072Y022925D01*
X022072Y022925D02*
X022072Y024875D01*
X022072Y024875D02*
X023097Y024875D01*
X023097Y024875D02*
G03X023122Y024900I000000J000025D01*
G01X023122Y024900D02*
X023122Y027725D01*
X023122Y027725D02*
X024422Y027725D01*
X024422Y027725D02*
X024422Y025000D01*
X024422Y025000D02*
G03X024447Y024975I000025J000000D01*
G01X024447Y024975D02*
X025647Y024975D01*
X025647Y024975D02*
G03X025672Y025000I000000J000025D01*
G01X025672Y025000D02*
X025672Y028076D01*
X025672Y028076D02*
G03X025637Y028099I-000024J000000D01*
G01X025373Y028434D02*
G03X025637Y028099I000174J-000134D01*
G01X025373Y028434D02*
G03X025353Y028475I-000019J000016D01*
G01X025353Y028475D02*
X018847Y028475D01*
X018847Y028475D02*
G03X018822Y028450I000000J-000025D01*
G01X018822Y028450D02*
X018822Y025640D01*
X018822Y025640D02*
X017208Y025640D01*
G03X017191Y025633I000000J-000025*
G01X016903Y025633D02*
G03X017191Y025633I000144J000167D01*
G01X016903Y025633D02*
G03X016886Y025640I-000016J-000018D01*
G01X016886Y025640D02*
X016318Y025640D01*
X016318Y025640D02*
X016318Y031375D01*
X016318Y031375D02*
X019173Y031375D01*
X019173Y031375D02*
G03X019196Y031389I000000J000025D01*
G01X019598Y031389D02*
G03X019196Y031389I-000200J-000089D01*
G01X019598Y031389D02*
G03X019621Y031375I000023J000011D01*
G01X019723Y031375*
X019723Y031375D02*
G03X019746Y031389I000000J000025D01*
G01X020148Y031389D02*
G03X019746Y031389I-000200J-000089D01*
G01X020148Y031389D02*
G03X020171Y031375I000023J000011D01*
G01X024972Y031375*
X024972Y031375D02*
X024972Y029500D01*
X024972Y029500D02*
G03X024997Y029475I000025J000000D01*
G01X024997Y029475D02*
X028822Y029475D01*
X028822Y029475D02*
X028822Y026800D01*
X028822Y026800D02*
G03X028847Y026775I000025J000000D01*
G01X028847Y026775D02*
X030272Y026775D01*
X030272Y026775D02*
X030272Y026491D01*
X030272Y026491D02*
G03X030313Y026472I000025J000000D01*
G01X030313Y026127D02*
G03X030313Y026472I000137J000173D01*
G01X030313Y026127D02*
G03X030272Y026108I-000015J-000018D01*
G01X030272Y026108D02*
X030272Y025550D01*
X030272Y025550D02*
G03X030297Y025525I000025J000000D01*
G01X030297Y025525D02*
X035547Y025525D01*
X035547Y025525D02*
G03X035572Y025550I000000J000025D01*
G01X035572Y025550D02*
X035572Y025700D01*
X035572Y025700D02*
G03X035547Y025725I-000024J000000D01*
G01X035547Y025725D02*
X030772Y025725D01*
X030772Y025725D02*
X030772Y032815D01*
X030772Y032815D02*
G03X030747Y032840I-000024J-000000D01*
G01X030747Y032840D02*
X025473Y032840D01*
X025473Y032840D02*
G03X025451Y032825I000000J-000025D01*
G01X024245Y032825D02*
G03X025451Y032825I000603J000290D01*
G01X024245Y032825D02*
G03X024222Y032840I-000022J-000010D01*
G01X024222Y032840D02*
X022265Y032840D01*
G03X022242Y032825I000000J-000025*
G01X021036Y032825D02*
G03X022242Y032825I000603J000290D01*
G01X021036Y032825D02*
G03X021014Y032840I-000021J-000010D01*
G01X010693Y032840*
X010693Y032840D02*
G03X010668Y032815I000000J-000025D01*
G01X010668Y032815D02*
X010668Y029287D01*
X010668Y029287D02*
G03X010685Y029263I000025J000000D01*
G01X010785Y028832D02*
G03X010685Y029263I-000191J000183D01*
G01X010785Y028832D02*
G03X010785Y028797I000018J-000017D01*
G01X010785Y028432D02*
G03X010785Y028797I-000191J000183D01*
G01X010785Y028432D02*
G03X010785Y028397I000018J-000017D01*
G01X010785Y028032D02*
G03X010785Y028397I-000191J000183D01*
G01X010785Y028032D02*
G03X010785Y027997I000018J-000017D01*
G01X010685Y027566D02*
G03X010785Y027997I-000091J000249D01*
G01X010685Y027566D02*
G03X010668Y027542I000008J-000023D01*
G01X010668Y027542D02*
X010668Y021485D01*
X010624Y021286D02*
G03X010668Y021485I-000427J000199D01*
G01X010624Y021286D02*
G03X010622Y021276I000023J-000010D01*
G01X010622Y021276D02*
X010622Y020788D01*
X010622Y020788D02*
G03X010624Y020778I000025J000000D01*
G01X010668Y020579D02*
G03X010624Y020778I-000471J000000D01*
G01X010668Y020579D02*
X010668Y018587D01*
X010668Y018587D02*
G03X010685Y018563I000025J000000D01*
G01X010785Y018132D02*
G03X010685Y018563I-000191J000183D01*
G01X010785Y018132D02*
G03X010785Y018097I000018J-000017D01*
G01X010785Y017732D02*
G03X010785Y018097I-000191J000183D01*
G01X010785Y017732D02*
G03X010785Y017697I000018J-000017D01*
G01X010785Y017332D02*
G03X010785Y017697I-000191J000183D01*
G01X010785Y017332D02*
G03X010785Y017297I000018J-000017D01*
G01X010685Y016866D02*
G03X010785Y017297I-000091J000249D01*
G01X010685Y016866D02*
G03X010668Y016842I000008J-000023D01*
G01X010668Y016842D02*
X010668Y012666D01*
X010624Y012467D02*
G03X010668Y012666I-000427J000199D01*
G01X010624Y012467D02*
G03X010622Y012457I000023J-000009D01*
G01X010622Y012457D02*
X010622Y011970D01*
X010622Y011970D02*
G03X010624Y011960I000025J000000D01*
G01X010669Y011761D02*
G03X010624Y011960I-000471J-000000D01*
G01X010669Y011761D02*
X010671Y010714D01*
G03X010678Y010696I000025J000000*
G01X011093Y010282*
G03X011111Y010275I000018J000018*
G01X038419Y010275*
G03X038436Y010282I-000000J000025*
G01X038436Y010282D02*
X038851Y010697D01*
G03X038858Y010714I-000017J000017*
G01X038858Y010714D02*
X038858Y011760D01*
X038871Y011870D02*
G03X038858Y011760I000459J-000109D01*
G01X038871Y011870D02*
G03X038872Y011876I-000023J000006D01*
G01X035622Y024350D02*
X035622Y025350D01*
X035622Y025350D02*
G03X035597Y025375I-000024J000000D01*
G01X035597Y025375D02*
X030122Y025375D01*
X030122Y025375D02*
X030122Y026600D01*
X030122Y026600D02*
G03X030097Y026625I-000024J000000D01*
G01X030097Y026625D02*
X028672Y026625D01*
X028672Y026625D02*
X028672Y029300D01*
X028672Y029300D02*
G03X028647Y029325I-000024J000000D01*
G01X028647Y029325D02*
X024822Y029325D01*
X024822Y029325D02*
X024822Y031200D01*
X024822Y031200D02*
G03X024797Y031225I-000024J000000D01*
G01X024797Y031225D02*
X020171Y031225D01*
G03X020148Y031210I000000J-000025*
G01X019746Y031210D02*
G03X020148Y031210I000201J000090D01*
G01X019746Y031210D02*
G03X019723Y031225I-000022J-000010D01*
G01X019723Y031225D02*
X019621Y031225D01*
G03X019598Y031210I000000J-000025*
G01X019196Y031210D02*
G03X019598Y031210I000201J000090D01*
G01X019196Y031210D02*
G03X019173Y031225I-000022J-000010D01*
G01X019173Y031225D02*
X016493Y031225D01*
X016493Y031225D02*
G03X016468Y031200I000000J-000025D01*
G01X016468Y031200D02*
X016468Y025815D01*
X016468Y025815D02*
G03X016493Y025790I000025J000000D01*
G01X016493Y025790D02*
X016803Y025790D01*
G03X016827Y025813I-000000J000025*
G01X017267Y025813D02*
G03X016827Y025813I-000219J-000013D01*
G01X017267Y025813D02*
G03X017292Y025790I000025J000002D01*
G01X018647Y025790*
X018647Y025790D02*
G03X018672Y025815I000000J000025D01*
G01X018672Y025815D02*
X018672Y028625D01*
X018672Y028625D02*
X019723Y028625D01*
X019723Y028625D02*
G03X019746Y028660I000000J000025D01*
G01X020148Y028660D02*
G03X019746Y028660I-000200J000090D01*
G01X020148Y028660D02*
G03X020171Y028625I000023J-000010D01*
G01X025822Y028625*
X025822Y028625D02*
X025822Y025000D01*
X025822Y025000D02*
G03X025847Y024975I000025J000000D01*
G01X025847Y024975D02*
X026023Y024975D01*
X026023Y024975D02*
G03X026046Y025010I000000J000025D01*
G01X026448Y025010D02*
G03X026046Y025010I-000200J000090D01*
G01X026448Y025010D02*
G03X026471Y024975I000023J-000010D01*
G01X026873Y024975*
X026873Y024975D02*
G03X026896Y025010I000000J000025D01*
G01X027298Y025010D02*
G03X026896Y025010I-000200J000090D01*
G01X027298Y025010D02*
G03X027321Y024975I000023J-000010D01*
G01X029122Y024975*
X029122Y024975D02*
X029122Y024350D01*
X029122Y024350D02*
G03X029147Y024325I000025J000000D01*
G01X029147Y024325D02*
X035597Y024325D01*
X035597Y024325D02*
G03X035622Y024350I000000J000025D01*
G01X019317Y018000D02*
G03X019317Y018000I-000219J0D01*
G01X018717Y017650D02*
G03X018717Y017650I-000219J0D01*
G01X018367Y018600D02*
G03X018367Y018600I-000219J0D01*
G01X019267Y021950D02*
G03X019267Y021950I-000219J0D01*
G01X019367Y022800D02*
G03X019367Y022800I-000219J0D01*
G01X018172Y020610D02*
G03X018172Y020610I-000394J0D01*
G01X018467Y023200D02*
G03X018467Y023200I-000219J0D01*
G01X017767Y023750D02*
G03X017767Y023750I-000219J0D01*
G01X026917Y024000D02*
G03X026917Y024000I-000219J0D01*
G01X027317Y024500D02*
G03X027317Y024500I-000219J0D01*
G01X026467Y024500D02*
G03X026467Y024500I-000219J0D01*
G01X024117Y024700D02*
G03X024117Y024700I-000219J0D01*
G01X024117Y025250D02*
G03X024117Y025250I-000219J0D01*
G01X024117Y026050D02*
G03X024117Y026050I-000219J0D01*
G01X024117Y026600D02*
G03X024117Y026600I-000219J0D01*
G01X024117Y027150D02*
G03X024117Y027150I-000219J0D01*
G01X023263Y024315D02*
G03X023263Y024315I-000219J0D01*
G01X037520Y015000D02*
G03X037520Y015000I-000220J0D01*
G01X037420Y024350D02*
G03X037420Y024350I-000220J0D01*
G01X036670Y024350D02*
G03X036670Y024350I-000220J0D01*
G01X029172Y012660D02*
G03X029172Y012660I-000394J0D01*
G01X028172Y012660D02*
G03X028172Y012660I-000394J0D01*
G01X027172Y012660D02*
G03X027172Y012660I-000394J0D01*
G01X026172Y012660D02*
G03X026172Y012660I-000394J0D01*
G01X025172Y012660D02*
G03X025172Y012660I-000394J0D01*
G01X024172Y012660D02*
G03X024172Y012660I-000394J0D01*
G01X023172Y012660D02*
G03X023172Y012660I-000394J0D01*
G01X022172Y012660D02*
G03X022172Y012660I-000394J0D01*
G01X021172Y012660D02*
G03X021172Y012660I-000394J0D01*
G01X020172Y012660D02*
G03X020172Y012660I-000394J0D01*
G01X019172Y012660D02*
G03X019172Y012660I-000394J0D01*
G01X018172Y012660D02*
G03X018172Y012660I-000394J0D01*
G01X017172Y012660D02*
G03X017172Y012660I-000394J0D01*
G01X017317Y016500D02*
G03X017317Y016500I-000219J0D01*
G01X030270Y028800D02*
G03X030270Y028800I-000220J0D01*
G01X027367Y030150D02*
G03X027367Y030150I-000219J0D01*
G01X026967Y031000D02*
G03X026967Y031000I-000219J0D01*
G01X025767Y030250D02*
G03X025767Y030250I-000219J0D01*
G01X016172Y020610D02*
G03X016172Y020610I-000394J0D01*
G01X015970Y030800D02*
G03X015970Y030800I-000220J0D01*
G01X014867Y017400D02*
G03X014867Y017400I-000219J0D01*
G01X015117Y018150D02*
G03X015117Y018150I-000219J0D01*
G01X015145Y032250D02*
G03X015145Y032250I-000395J0D01*
G01X014320Y031250D02*
G03X014320Y031250I-000220J0D01*
G01X014145Y032250D02*
G03X014145Y032250I-000395J0D01*
G01X013145Y032250D02*
G03X013145Y032250I-000395J0D01*
G01X012170Y031250D02*
G03X012170Y031250I-000220J0D01*
G01X022967Y027650D02*
G03X022967Y027650I-000219J0D01*
G01X021167Y027200D02*
G03X021167Y027200I-000219J0D01*
G01X020617Y022600D02*
G03X020617Y022600I-000219J0D01*
G01X020463Y024115D02*
G03X020463Y024115I-000219J0D01*
G01X019836Y025111D02*
G03X019836Y025419I000157J000154D01*
G01X019836Y025111D02*
G03X019800Y025111I-000017J-000017D01*
G01X019800Y025419D02*
G03X019800Y025111I-000156J-000154D01*
G01X019800Y025419D02*
G03X019836Y025419I000018J000017D01*
G01X018017Y024750D02*
G03X018017Y024750I-000219J0D01*
G01X017267Y025250D02*
G03X017267Y025250I-000219J0D01*
G01X016172Y012660D02*
G03X016172Y012660I-000394J0D01*
G01X016367Y017800D02*
G03X016367Y017800I-000219J0D01*
G01X022620Y021500D02*
G03X022620Y021500I-000220J0D01*
G01X022620Y022400D02*
G03X022620Y022400I-000220J0D01*
G01X035117Y025100D02*
G03X035117Y025100I-000219J0D01*
G01X026917Y025550D02*
G03X026917Y025550I-000219J0D01*
G01X027017Y026250D02*
G03X027017Y026250I-000219J0D01*
G01X027017Y028050D02*
G03X027017Y028050I-000219J0D01*
G01X021417Y029250D02*
G03X021417Y029250I-000219J0D01*
G01X021017Y030150D02*
G03X021017Y030150I-000219J0D01*
G01X020117Y029250D02*
G03X020117Y029250I-000219J0D01*
G01X020467Y030150D02*
G03X020467Y030150I-000219J0D01*
G01X019667Y030450D02*
G03X019667Y030450I-000219J0D01*
G01X018567Y026550D02*
G03X018567Y026550I-000219J0D01*
G01X018517Y027300D02*
G03X018517Y027300I-000219J0D01*
G01X018667Y029300D02*
G03X018667Y029300I-000219J0D01*
G01X019067Y030150D02*
G03X019067Y030150I-000219J0D01*
G01X018067Y026150D02*
G03X018067Y026150I-000219J0D01*
G01X018167Y028150D02*
G03X018167Y028150I-000219J0D01*
G01X018170Y028700D02*
G03X018170Y028700I-000220J0D01*
G01X017267Y026550D02*
G03X017267Y026550I-000219J0D01*
G01X017267Y027100D02*
G03X017267Y027100I-000219J0D01*
G01X017067Y027700D02*
G03X017067Y027700I-000219J0D01*
G01X016818Y024154D02*
X016872Y024154D01*
X026888Y024109D02*
X030572Y024109D01*
X026907Y024064D02*
X030572Y024064D01*
X026916Y024019D02*
X030572Y024019D01*
X026916Y023974D02*
X030572Y023974D01*
X026906Y023929D02*
X030572Y023929D01*
X026885Y023884D02*
X030572Y023884D01*
X026848Y023839D02*
X030572Y023839D01*
X026777Y023794D02*
X030572Y023794D01*
X022222Y023749D02*
X030572Y023749D01*
X022527Y023704D02*
X030572Y023704D01*
X022598Y023659D02*
X030572Y023659D01*
X022635Y023614D02*
X030572Y023614D01*
X022656Y023569D02*
X030572Y023569D01*
X022666Y023524D02*
X030572Y023524D01*
X022666Y023479D02*
X030572Y023479D01*
X022657Y023434D02*
X030572Y023434D01*
X022638Y023389D02*
X030572Y023389D01*
X022603Y023344D02*
X030572Y023344D01*
X022538Y023299D02*
X030572Y023299D01*
X022222Y023254D02*
X030572Y023254D01*
X022222Y023209D02*
X030572Y023209D01*
X022222Y023164D02*
X030572Y023164D01*
X022222Y023119D02*
X030572Y023119D01*
X029122Y023074D02*
X030572Y023074D01*
X029122Y023029D02*
X030572Y023029D01*
X029122Y022984D02*
X030572Y022984D01*
X029122Y022939D02*
X030572Y022939D01*
X029122Y022894D02*
X030572Y022894D01*
X029122Y022849D02*
X030572Y022849D01*
X029122Y022804D02*
X030572Y022804D01*
X029122Y022759D02*
X030572Y022759D01*
X029122Y022714D02*
X030572Y022714D01*
X029122Y022669D02*
X030572Y022669D01*
X029122Y022624D02*
X030572Y022624D01*
X029122Y022579D02*
X030572Y022579D01*
X029122Y022534D02*
X030572Y022534D01*
X029122Y022489D02*
X030572Y022489D01*
X029122Y022444D02*
X030572Y022444D01*
X029122Y022399D02*
X030572Y022399D01*
X029122Y022354D02*
X030572Y022354D01*
X029122Y022309D02*
X030572Y022309D01*
X029122Y022264D02*
X030572Y022264D01*
X029122Y022219D02*
X030572Y022219D01*
X029122Y022174D02*
X030572Y022174D01*
X029122Y022129D02*
X030572Y022129D01*
X029122Y022084D02*
X030572Y022084D01*
X029122Y022039D02*
X030572Y022039D01*
X029122Y021994D02*
X030572Y021994D01*
X029122Y021949D02*
X030572Y021949D01*
X029122Y021904D02*
X030572Y021904D01*
X029122Y021859D02*
X030572Y021859D01*
X029122Y021814D02*
X030572Y021814D01*
X029122Y021769D02*
X030572Y021769D01*
X029122Y021724D02*
X030572Y021724D01*
X029122Y021679D02*
X030572Y021679D01*
X029122Y021634D02*
X030572Y021634D01*
X029122Y021589D02*
X030572Y021589D01*
X029122Y021544D02*
X030572Y021544D01*
X029122Y021499D02*
X030572Y021499D01*
X029122Y021454D02*
X030572Y021454D01*
X029122Y021409D02*
X030572Y021409D01*
X029122Y021364D02*
X030572Y021364D01*
X029122Y021319D02*
X030572Y021319D01*
X029122Y021274D02*
X030572Y021274D01*
X029122Y021229D02*
X030572Y021229D01*
X029122Y021184D02*
X030572Y021184D01*
X029122Y021139D02*
X030572Y021139D01*
X029122Y021094D02*
X030572Y021094D01*
X029122Y021049D02*
X030572Y021049D01*
X029122Y021004D02*
X030572Y021004D01*
X029122Y020959D02*
X030572Y020959D01*
X029122Y020914D02*
X030572Y020914D01*
X029122Y020869D02*
X030572Y020869D01*
X029122Y020824D02*
X030572Y020824D01*
X029134Y020779D02*
X030572Y020779D01*
X029152Y020734D02*
X030572Y020734D01*
X029164Y020689D02*
X030572Y020689D01*
X029171Y020644D02*
X030572Y020644D01*
X029172Y020599D02*
X030572Y020599D01*
X029168Y020554D02*
X030572Y020554D01*
X029159Y020509D02*
X030572Y020509D01*
X029144Y020464D02*
X030572Y020464D01*
X029124Y020419D02*
X030572Y020419D01*
X029122Y020374D02*
X030572Y020374D01*
X029122Y020329D02*
X030572Y020329D01*
X029122Y020284D02*
X030572Y020284D01*
X029122Y020239D02*
X030572Y020239D01*
X029122Y020194D02*
X030572Y020194D01*
X016818Y020149D02*
X030572Y020149D01*
X016818Y020104D02*
X030572Y020104D01*
X016818Y020059D02*
X030572Y020059D01*
X016818Y020014D02*
X030572Y020014D01*
X016818Y019969D02*
X030572Y019969D01*
X016818Y019924D02*
X030572Y019924D01*
X016818Y019879D02*
X030572Y019879D01*
X016818Y019834D02*
X030572Y019834D01*
X016818Y019789D02*
X030572Y019789D01*
X016818Y019744D02*
X030572Y019744D01*
X016818Y019699D02*
X030572Y019699D01*
X016818Y019654D02*
X030572Y019654D01*
X016818Y019609D02*
X030572Y019609D01*
X016818Y019564D02*
X030572Y019564D01*
X016818Y019519D02*
X030572Y019519D01*
X026853Y024154D02*
X030572Y024154D01*
X024100Y024784D02*
X028972Y024784D01*
X024113Y024739D02*
X028972Y024739D01*
X027199Y024694D02*
X028972Y024694D01*
X027258Y024649D02*
X028972Y024649D01*
X027290Y024604D02*
X028972Y024604D01*
X027309Y024559D02*
X028972Y024559D01*
X027317Y024514D02*
X028972Y024514D01*
X027315Y024469D02*
X028972Y024469D01*
X027304Y024424D02*
X028972Y024424D01*
X027281Y024379D02*
X028972Y024379D01*
X027242Y024334D02*
X028972Y024334D01*
X027162Y024289D02*
X028972Y024289D01*
X023252Y024244D02*
X028972Y024244D01*
X026789Y024199D02*
X028972Y024199D01*
X026312Y024289D02*
X027032Y024289D01*
X026349Y024694D02*
X026995Y024694D01*
X026392Y024334D02*
X026952Y024334D01*
X026408Y024649D02*
X026936Y024649D01*
X026431Y024379D02*
X026913Y024379D01*
X026440Y024604D02*
X026904Y024604D01*
X026454Y024424D02*
X026890Y024424D01*
X026459Y024559D02*
X026885Y024559D01*
X026465Y024469D02*
X026879Y024469D01*
X026467Y024514D02*
X026878Y024514D01*
X022222Y023794D02*
X026618Y023794D01*
X023231Y024199D02*
X026605Y024199D01*
X022222Y023839D02*
X026546Y023839D01*
X023194Y024154D02*
X026541Y024154D01*
X022222Y023884D02*
X026510Y023884D01*
X023123Y024109D02*
X026506Y024109D01*
X022222Y023929D02*
X026489Y023929D01*
X022222Y024064D02*
X026487Y024064D01*
X022222Y023974D02*
X026478Y023974D01*
X022222Y024019D02*
X026478Y024019D01*
X023262Y024289D02*
X026182Y024289D01*
X024117Y024694D02*
X026145Y024694D01*
X023262Y024334D02*
X026102Y024334D01*
X024111Y024649D02*
X026086Y024649D01*
X023253Y024379D02*
X026063Y024379D01*
X024095Y024604D02*
X026054Y024604D01*
X023234Y024424D02*
X026040Y024424D01*
X024067Y024559D02*
X026035Y024559D01*
X023199Y024469D02*
X026029Y024469D01*
X024016Y024514D02*
X026028Y024514D01*
X024075Y024829D02*
X024272Y024829D01*
X024031Y024874D02*
X024272Y024874D01*
X023905Y024919D02*
X024272Y024919D01*
X023272Y024964D02*
X024272Y024964D01*
X023272Y025009D02*
X024272Y025009D01*
X023999Y025054D02*
X024272Y025054D01*
X024058Y025099D02*
X024272Y025099D01*
X024090Y025144D02*
X024272Y025144D01*
X024109Y025189D02*
X024272Y025189D01*
X024117Y025234D02*
X024272Y025234D01*
X024115Y025279D02*
X024272Y025279D01*
X024104Y025324D02*
X024272Y025324D01*
X024082Y025369D02*
X024272Y025369D01*
X024043Y025414D02*
X024272Y025414D01*
X023963Y025459D02*
X024272Y025459D01*
X023272Y025504D02*
X024272Y025504D01*
X023272Y025549D02*
X024272Y025549D01*
X023272Y025594D02*
X024272Y025594D01*
X023272Y025639D02*
X024272Y025639D01*
X023272Y025684D02*
X024272Y025684D01*
X023272Y025729D02*
X024272Y025729D01*
X023272Y025774D02*
X024272Y025774D01*
X023272Y025819D02*
X024272Y025819D01*
X024016Y025864D02*
X024272Y025864D01*
X024067Y025909D02*
X024272Y025909D01*
X024095Y025954D02*
X024272Y025954D01*
X024111Y025999D02*
X024272Y025999D01*
X024117Y026044D02*
X024272Y026044D01*
X024113Y026089D02*
X024272Y026089D01*
X024100Y026134D02*
X024272Y026134D01*
X024075Y026179D02*
X024272Y026179D01*
X024031Y026224D02*
X024272Y026224D01*
X023905Y026269D02*
X024272Y026269D01*
X023272Y026314D02*
X024272Y026314D01*
X023272Y026359D02*
X024272Y026359D01*
X023999Y026404D02*
X024272Y026404D01*
X024058Y026449D02*
X024272Y026449D01*
X024090Y026494D02*
X024272Y026494D01*
X024109Y026539D02*
X024272Y026539D01*
X024117Y026584D02*
X024272Y026584D01*
X024115Y026629D02*
X024271Y026629D01*
X024104Y026674D02*
X024271Y026674D01*
X024082Y026719D02*
X024271Y026719D01*
X024043Y026764D02*
X024271Y026764D01*
X023963Y026809D02*
X024271Y026809D01*
X023272Y026854D02*
X024271Y026854D01*
X023272Y026899D02*
X024271Y026899D01*
X023977Y026944D02*
X024271Y026944D01*
X024048Y026989D02*
X024271Y026989D01*
X024085Y027034D02*
X024271Y027034D01*
X024106Y027079D02*
X024271Y027079D01*
X024116Y027124D02*
X024271Y027124D01*
X024116Y027169D02*
X024271Y027169D01*
X024107Y027214D02*
X024271Y027214D01*
X024088Y027259D02*
X024271Y027259D01*
X024053Y027304D02*
X024271Y027304D01*
X023989Y027349D02*
X024271Y027349D01*
X023272Y027394D02*
X024271Y027394D01*
X023272Y027439D02*
X024271Y027439D01*
X023272Y027484D02*
X024271Y027484D01*
X023272Y027529D02*
X024271Y027529D01*
X023294Y027574D02*
X024249Y027574D01*
X023272Y026269D02*
X023889Y026269D01*
X023272Y024919D02*
X023889Y024919D01*
X023272Y026809D02*
X023831Y026809D01*
X023272Y025459D02*
X023831Y025459D01*
X023272Y026944D02*
X023818Y026944D01*
X023272Y027349D02*
X023805Y027349D01*
X023272Y026404D02*
X023795Y026404D01*
X023272Y025054D02*
X023795Y025054D01*
X023272Y025864D02*
X023778Y025864D01*
X023135Y024514D02*
X023778Y024514D01*
X023272Y026224D02*
X023764Y026224D01*
X023272Y024874D02*
X023764Y024874D01*
X023272Y026764D02*
X023751Y026764D01*
X023272Y025414D02*
X023751Y025414D01*
X023272Y026989D02*
X023746Y026989D01*
X023272Y027304D02*
X023741Y027304D01*
X023272Y026449D02*
X023736Y026449D01*
X023272Y025099D02*
X023736Y025099D01*
X023272Y025909D02*
X023727Y025909D01*
X022222Y024559D02*
X023727Y024559D01*
X023272Y026179D02*
X023719Y026179D01*
X023272Y024829D02*
X023719Y024829D01*
X023272Y026719D02*
X023713Y026719D01*
X023272Y025369D02*
X023713Y025369D01*
X023272Y027034D02*
X023710Y027034D01*
X023272Y027259D02*
X023706Y027259D01*
X023272Y026494D02*
X023704Y026494D01*
X023272Y025144D02*
X023704Y025144D01*
X023272Y025954D02*
X023699Y025954D01*
X022222Y024604D02*
X023699Y024604D01*
X023272Y026134D02*
X023694Y026134D01*
X023272Y024784D02*
X023694Y024784D01*
X023272Y026674D02*
X023690Y026674D01*
X023272Y025324D02*
X023690Y025324D01*
X023272Y027079D02*
X023689Y027079D01*
X023272Y027214D02*
X023687Y027214D01*
X023272Y026539D02*
X023685Y026539D01*
X023272Y025189D02*
X023685Y025189D01*
X023272Y025999D02*
X023683Y025999D01*
X022222Y024649D02*
X023683Y024649D01*
X023272Y026089D02*
X023681Y026089D01*
X023272Y024739D02*
X023681Y024739D01*
X023272Y026629D02*
X023679Y026629D01*
X023272Y025279D02*
X023679Y025279D01*
X023272Y027124D02*
X023678Y027124D01*
X023272Y027169D02*
X023678Y027169D01*
X023272Y026584D02*
X023678Y026584D01*
X023272Y025234D02*
X023678Y025234D01*
X023272Y026044D02*
X023677Y026044D01*
X022222Y024694D02*
X023677Y024694D01*
X022222Y024109D02*
X022964Y024109D01*
X022222Y024514D02*
X022951Y024514D01*
X022222Y024154D02*
X022892Y024154D01*
X022222Y024469D02*
X022887Y024469D01*
X022222Y024199D02*
X022856Y024199D01*
X022222Y024424D02*
X022853Y024424D01*
X022222Y024244D02*
X022835Y024244D01*
X022222Y024379D02*
X022833Y024379D01*
X022222Y024289D02*
X022825Y024289D01*
X022222Y024334D02*
X022824Y024334D01*
X022222Y023704D02*
X022367Y023704D01*
X022222Y023299D02*
X022356Y023299D01*
X022222Y023659D02*
X022296Y023659D01*
X022222Y023344D02*
X022291Y023344D01*
X019364Y024154D02*
X019568Y024154D01*
X019392Y024109D02*
X019568Y024109D01*
X019407Y024064D02*
X019568Y024064D01*
X019413Y024019D02*
X019568Y024019D01*
X019410Y023974D02*
X019568Y023974D01*
X019396Y023929D02*
X019568Y023929D01*
X019371Y023884D02*
X019568Y023884D01*
X019326Y023839D02*
X019568Y023839D01*
X019282Y023794D02*
X019568Y023794D01*
X019317Y023749D02*
X019568Y023749D01*
X019344Y023704D02*
X019568Y023704D01*
X019359Y023659D02*
X019568Y023659D01*
X019363Y023614D02*
X019568Y023614D01*
X019359Y023569D02*
X019568Y023569D01*
X019344Y023524D02*
X019568Y023524D01*
X019317Y023479D02*
X019568Y023479D01*
X019270Y023434D02*
X019568Y023434D01*
X018358Y023389D02*
X019568Y023389D01*
X018413Y023344D02*
X019568Y023344D01*
X018443Y023299D02*
X019568Y023299D01*
X018460Y023254D02*
X019568Y023254D01*
X018467Y023209D02*
X019568Y023209D01*
X018464Y023164D02*
X019568Y023164D01*
X018452Y023119D02*
X019568Y023119D01*
X018428Y023074D02*
X019568Y023074D01*
X018387Y023029D02*
X019568Y023029D01*
X019266Y022984D02*
X019568Y022984D01*
X019317Y022939D02*
X019568Y022939D01*
X019346Y022894D02*
X019568Y022894D01*
X019361Y022849D02*
X019568Y022849D01*
X019367Y022804D02*
X019568Y022804D01*
X019363Y022759D02*
X019568Y022759D01*
X019350Y022714D02*
X019568Y022714D01*
X019324Y022669D02*
X019568Y022669D01*
X019280Y022624D02*
X019568Y022624D01*
X016818Y022579D02*
X019568Y022579D01*
X016818Y022534D02*
X019568Y022534D01*
X016818Y022489D02*
X019568Y022489D01*
X016818Y022444D02*
X019568Y022444D01*
X016818Y022399D02*
X019568Y022399D01*
X016818Y022354D02*
X019568Y022354D01*
X016818Y022309D02*
X019568Y022309D01*
X016818Y022264D02*
X019568Y022264D01*
X016818Y022219D02*
X019568Y022219D01*
X016818Y022174D02*
X019568Y022174D01*
X019174Y022129D02*
X019568Y022129D01*
X019221Y022084D02*
X019568Y022084D01*
X019248Y022039D02*
X019568Y022039D01*
X019262Y021994D02*
X019568Y021994D01*
X019267Y021949D02*
X019568Y021949D01*
X019262Y021904D02*
X019568Y021904D01*
X019248Y021859D02*
X019568Y021859D01*
X019221Y021814D02*
X019568Y021814D01*
X019173Y021769D02*
X019568Y021769D01*
X016818Y021724D02*
X019568Y021724D01*
X016818Y021679D02*
X019568Y021679D01*
X016818Y021634D02*
X019568Y021634D01*
X016818Y021589D02*
X019568Y021589D01*
X016818Y021544D02*
X019568Y021544D01*
X016818Y021499D02*
X019568Y021499D01*
X016818Y021454D02*
X019568Y021454D01*
X016818Y021409D02*
X019568Y021409D01*
X016818Y021364D02*
X019568Y021364D01*
X016818Y021319D02*
X019568Y021319D01*
X016818Y021274D02*
X019568Y021274D01*
X016818Y021229D02*
X019558Y021229D01*
X016818Y019474D02*
X019422Y019474D01*
X016818Y019429D02*
X019422Y019429D01*
X016818Y019384D02*
X019422Y019384D01*
X016818Y019339D02*
X019422Y019339D01*
X016818Y019294D02*
X019422Y019294D01*
X016818Y019249D02*
X019422Y019249D01*
X016818Y019204D02*
X019422Y019204D01*
X016818Y019159D02*
X019422Y019159D01*
X016818Y019114D02*
X019422Y019114D01*
X016818Y019069D02*
X019422Y019069D01*
X016818Y019024D02*
X019422Y019024D01*
X016818Y018979D02*
X019422Y018979D01*
X016818Y018934D02*
X019422Y018934D01*
X016818Y018889D02*
X019422Y018889D01*
X016818Y018844D02*
X019422Y018844D01*
X018239Y018799D02*
X019422Y018799D01*
X018303Y018754D02*
X019422Y018754D01*
X018338Y018709D02*
X019422Y018709D01*
X018357Y018664D02*
X019422Y018664D01*
X018366Y018619D02*
X019422Y018619D01*
X018366Y018574D02*
X019422Y018574D01*
X018356Y018529D02*
X019422Y018529D01*
X018335Y018484D02*
X019422Y018484D01*
X018298Y018439D02*
X019422Y018439D01*
X018227Y018394D02*
X019422Y018394D01*
X016818Y018349D02*
X019422Y018349D01*
X016818Y018304D02*
X019422Y018304D01*
X016818Y018259D02*
X019422Y018259D01*
X019144Y018214D02*
X019422Y018214D01*
X019237Y018169D02*
X019422Y018169D01*
X019278Y018124D02*
X019422Y018124D01*
X019302Y018079D02*
X019422Y018079D01*
X019314Y018034D02*
X019422Y018034D01*
X019317Y017989D02*
X019422Y017989D01*
X019310Y017944D02*
X019422Y017944D01*
X019293Y017899D02*
X019422Y017899D01*
X019262Y017854D02*
X019422Y017854D01*
X019208Y017809D02*
X019422Y017809D01*
X018685Y017764D02*
X019422Y017764D01*
X018706Y017719D02*
X019422Y017719D01*
X018716Y017674D02*
X019422Y017674D01*
X018716Y017629D02*
X019422Y017629D01*
X018707Y017584D02*
X019422Y017584D01*
X018688Y017539D02*
X019422Y017539D01*
X018653Y017494D02*
X019422Y017494D01*
X018588Y017449D02*
X019422Y017449D01*
X016818Y017404D02*
X019422Y017404D01*
X016818Y017359D02*
X019422Y017359D01*
X016818Y017314D02*
X019422Y017314D01*
X016818Y017269D02*
X019422Y017269D01*
X017748Y023839D02*
X019054Y023839D01*
X016818Y018214D02*
X019050Y018214D01*
X018293Y022984D02*
X019028Y022984D01*
X017962Y024154D02*
X019022Y024154D01*
X016818Y023434D02*
X019017Y023434D01*
X017762Y023794D02*
X019017Y023794D01*
X017721Y023884D02*
X019016Y023884D01*
X016818Y022624D02*
X019014Y022624D01*
X017948Y024109D02*
X018995Y024109D01*
X017674Y023929D02*
X018990Y023929D01*
X018648Y017809D02*
X018986Y017809D01*
X017921Y024064D02*
X018979Y024064D01*
X016818Y022939D02*
X018977Y022939D01*
X017260Y023974D02*
X018977Y023974D01*
X017873Y024019D02*
X018973Y024019D01*
X016818Y022669D02*
X018970Y022669D01*
X016818Y023479D02*
X018970Y023479D01*
X017767Y023749D02*
X018969Y023749D01*
X016818Y018169D02*
X018957Y018169D01*
X016818Y022894D02*
X018949Y022894D01*
X016818Y022714D02*
X018944Y022714D01*
X016818Y023524D02*
X018943Y023524D01*
X017762Y023704D02*
X018942Y023704D01*
X016818Y022849D02*
X018933Y022849D01*
X018577Y017854D02*
X018932Y017854D01*
X016818Y022759D02*
X018931Y022759D01*
X017673Y023569D02*
X018928Y023569D01*
X017748Y023659D02*
X018928Y023659D01*
X016818Y022804D02*
X018927Y022804D01*
X017721Y023614D02*
X018923Y023614D01*
X016818Y021769D02*
X018921Y021769D01*
X016818Y022129D02*
X018920Y022129D01*
X016818Y018124D02*
X018916Y018124D01*
X016818Y017899D02*
X018901Y017899D01*
X016818Y018079D02*
X018892Y018079D01*
X016818Y017944D02*
X018884Y017944D01*
X016818Y018034D02*
X018880Y018034D01*
X016818Y017989D02*
X018877Y017989D01*
X016818Y021814D02*
X018873Y021814D01*
X016818Y022084D02*
X018873Y022084D01*
X016818Y021859D02*
X018846Y021859D01*
X016818Y022039D02*
X018846Y022039D01*
X016818Y021904D02*
X018832Y021904D01*
X016818Y021994D02*
X018832Y021994D01*
X016818Y021949D02*
X018827Y021949D01*
X016818Y017854D02*
X018417Y017854D01*
X016818Y017449D02*
X018406Y017449D01*
X016818Y017809D02*
X018346Y017809D01*
X016818Y017494D02*
X018341Y017494D01*
X016818Y021184D02*
X018322Y021184D01*
X016818Y021139D02*
X018322Y021139D01*
X016818Y021094D02*
X018322Y021094D01*
X016818Y021049D02*
X018322Y021049D01*
X017787Y021004D02*
X018322Y021004D01*
X017960Y020959D02*
X018322Y020959D01*
X018028Y020914D02*
X018322Y020914D01*
X018075Y020869D02*
X018322Y020869D01*
X018109Y020824D02*
X018322Y020824D01*
X018134Y020779D02*
X018322Y020779D01*
X018152Y020734D02*
X018322Y020734D01*
X018164Y020689D02*
X018322Y020689D01*
X018171Y020644D02*
X018322Y020644D01*
X018172Y020599D02*
X018322Y020599D01*
X018168Y020554D02*
X018322Y020554D01*
X018159Y020509D02*
X018322Y020509D01*
X018144Y020464D02*
X018322Y020464D01*
X018123Y020419D02*
X018322Y020419D01*
X018094Y020374D02*
X018322Y020374D01*
X018056Y020329D02*
X018322Y020329D01*
X018001Y020284D02*
X018322Y020284D01*
X017915Y020239D02*
X018322Y020239D01*
X016818Y020194D02*
X018322Y020194D01*
X016818Y017764D02*
X018309Y017764D01*
X016818Y017539D02*
X018307Y017539D01*
X016818Y017719D02*
X018288Y017719D01*
X016818Y017584D02*
X018287Y017584D01*
X016818Y017674D02*
X018278Y017674D01*
X016818Y017629D02*
X018278Y017629D01*
X016818Y022984D02*
X018201Y022984D01*
X016818Y023389D02*
X018136Y023389D01*
X016818Y023029D02*
X018108Y023029D01*
X016818Y023344D02*
X018081Y023344D01*
X016818Y018394D02*
X018068Y018394D01*
X016818Y023074D02*
X018066Y023074D01*
X016818Y018799D02*
X018055Y018799D01*
X016818Y023299D02*
X018051Y023299D01*
X016818Y023119D02*
X018042Y023119D01*
X016818Y023254D02*
X018034Y023254D01*
X016818Y023164D02*
X018030Y023164D01*
X016818Y023209D02*
X018027Y023209D01*
X016818Y018439D02*
X017996Y018439D01*
X016818Y018754D02*
X017991Y018754D01*
X016818Y018484D02*
X017960Y018484D01*
X016818Y018709D02*
X017956Y018709D01*
X016818Y018529D02*
X017939Y018529D01*
X016818Y018664D02*
X017937Y018664D01*
X016818Y018574D02*
X017928Y018574D01*
X016818Y018619D02*
X017928Y018619D01*
X016828Y021004D02*
X017767Y021004D01*
X016915Y020239D02*
X017639Y020239D01*
X017263Y024019D02*
X017621Y024019D01*
X016960Y020959D02*
X017594Y020959D01*
X017257Y024064D02*
X017573Y024064D01*
X017001Y020284D02*
X017553Y020284D01*
X017242Y024109D02*
X017546Y024109D01*
X017214Y024154D02*
X017532Y024154D01*
X017028Y020914D02*
X017526Y020914D01*
X017056Y020329D02*
X017499Y020329D01*
X017075Y020869D02*
X017480Y020869D01*
X017094Y020374D02*
X017460Y020374D01*
X017109Y020824D02*
X017446Y020824D01*
X017123Y020419D02*
X017431Y020419D01*
X016818Y023569D02*
X017421Y023569D01*
X017134Y020779D02*
X017420Y020779D01*
X017246Y023929D02*
X017420Y023929D01*
X017144Y020464D02*
X017410Y020464D01*
X017152Y020734D02*
X017402Y020734D01*
X017159Y020509D02*
X017395Y020509D01*
X017164Y020689D02*
X017390Y020689D01*
X017168Y020554D02*
X017386Y020554D01*
X017171Y020644D02*
X017384Y020644D01*
X017172Y020599D02*
X017382Y020599D01*
X016818Y023614D02*
X017373Y023614D01*
X017221Y023884D02*
X017373Y023884D01*
X016818Y023659D02*
X017346Y023659D01*
X017176Y023839D02*
X017346Y023839D01*
X016818Y023704D02*
X017332Y023704D01*
X016818Y023794D02*
X017332Y023794D01*
X016818Y023749D02*
X017327Y023749D01*
X016818Y023839D02*
X016910Y023839D01*
X016821Y023884D02*
X016866Y023884D01*
X029148Y012524D02*
X038872Y012524D01*
X029129Y012479D02*
X038872Y012479D01*
X029102Y012434D02*
X038872Y012434D01*
X029065Y012389D02*
X038872Y012389D01*
X029015Y012344D02*
X038872Y012344D01*
X028939Y012299D02*
X038872Y012299D01*
X010622Y012254D02*
X038872Y012254D01*
X010622Y012209D02*
X038872Y012209D01*
X010622Y012164D02*
X038872Y012164D01*
X010622Y012119D02*
X038872Y012119D01*
X010622Y012074D02*
X038872Y012074D01*
X010622Y012029D02*
X038872Y012029D01*
X010622Y011984D02*
X038872Y011984D01*
X010633Y011939D02*
X038872Y011939D01*
X010649Y011894D02*
X038872Y011894D01*
X029162Y012569D02*
X038868Y012569D01*
X010660Y011849D02*
X038867Y011849D01*
X029169Y012614D02*
X038861Y012614D01*
X010667Y011804D02*
X038860Y011804D01*
X029172Y012659D02*
X038858Y012659D01*
X010668Y015449D02*
X038858Y015449D01*
X010668Y015404D02*
X038858Y015404D01*
X010668Y015359D02*
X038858Y015359D01*
X010668Y015314D02*
X038858Y015314D01*
X010668Y015269D02*
X038858Y015269D01*
X010668Y015224D02*
X038858Y015224D01*
X037426Y015179D02*
X038858Y015179D01*
X037473Y015134D02*
X038858Y015134D01*
X037500Y015089D02*
X038858Y015089D01*
X037515Y015044D02*
X038858Y015044D01*
X037520Y014999D02*
X038858Y014999D01*
X037515Y014954D02*
X038858Y014954D01*
X037500Y014909D02*
X038858Y014909D01*
X037473Y014864D02*
X038858Y014864D01*
X037426Y014819D02*
X038858Y014819D01*
X010668Y014774D02*
X038858Y014774D01*
X010668Y014729D02*
X038858Y014729D01*
X010668Y014684D02*
X038858Y014684D01*
X010668Y014639D02*
X038858Y014639D01*
X010668Y014594D02*
X038858Y014594D01*
X010668Y014549D02*
X038858Y014549D01*
X010668Y014504D02*
X038858Y014504D01*
X010668Y014459D02*
X038858Y014459D01*
X010668Y014414D02*
X038858Y014414D01*
X010668Y014369D02*
X038858Y014369D01*
X010668Y014324D02*
X038858Y014324D01*
X010668Y014279D02*
X038858Y014279D01*
X010668Y014234D02*
X038858Y014234D01*
X010668Y014189D02*
X038858Y014189D01*
X010668Y014144D02*
X038858Y014144D01*
X010668Y014099D02*
X038858Y014099D01*
X010668Y014054D02*
X038858Y014054D01*
X010668Y014009D02*
X038858Y014009D01*
X010668Y013964D02*
X038858Y013964D01*
X010668Y013919D02*
X038858Y013919D01*
X010668Y013874D02*
X038858Y013874D01*
X010668Y013829D02*
X038858Y013829D01*
X010668Y013784D02*
X038858Y013784D01*
X010668Y013739D02*
X038858Y013739D01*
X010668Y013694D02*
X038858Y013694D01*
X010668Y013649D02*
X038858Y013649D01*
X010668Y013604D02*
X038858Y013604D01*
X010668Y013559D02*
X038858Y013559D01*
X010668Y013514D02*
X038858Y013514D01*
X010668Y013469D02*
X038858Y013469D01*
X010668Y013424D02*
X038858Y013424D01*
X010668Y013379D02*
X038858Y013379D01*
X010668Y013334D02*
X038858Y013334D01*
X010668Y013289D02*
X038858Y013289D01*
X010668Y013244D02*
X038858Y013244D01*
X010668Y013199D02*
X038858Y013199D01*
X010668Y013154D02*
X038858Y013154D01*
X010668Y013109D02*
X038858Y013109D01*
X010668Y013064D02*
X038858Y013064D01*
X028940Y013019D02*
X038858Y013019D01*
X029016Y012974D02*
X038858Y012974D01*
X029066Y012929D02*
X038858Y012929D01*
X029102Y012884D02*
X038858Y012884D01*
X029129Y012839D02*
X038858Y012839D01*
X029148Y012794D02*
X038858Y012794D01*
X029162Y012749D02*
X038858Y012749D01*
X029170Y012704D02*
X038858Y012704D01*
X010669Y011759D02*
X038858Y011759D01*
X010669Y011714D02*
X038858Y011714D01*
X010669Y011669D02*
X038858Y011669D01*
X010669Y011624D02*
X038858Y011624D01*
X010669Y011579D02*
X038858Y011579D01*
X010669Y011534D02*
X038858Y011534D01*
X010669Y011489D02*
X038858Y011489D01*
X010669Y011444D02*
X038858Y011444D01*
X010669Y011399D02*
X038858Y011399D01*
X010669Y011354D02*
X038858Y011354D01*
X010669Y011309D02*
X038858Y011309D01*
X010670Y011264D02*
X038858Y011264D01*
X010670Y011219D02*
X038858Y011219D01*
X010670Y011174D02*
X038858Y011174D01*
X010670Y011129D02*
X038858Y011129D01*
X010670Y011084D02*
X038858Y011084D01*
X010670Y011039D02*
X038858Y011039D01*
X010670Y010994D02*
X038858Y010994D01*
X010670Y010949D02*
X038858Y010949D01*
X010670Y010904D02*
X038858Y010904D01*
X010670Y010859D02*
X038858Y010859D01*
X010670Y010814D02*
X038858Y010814D01*
X010671Y010769D02*
X038858Y010769D01*
X010671Y010724D02*
X038858Y010724D01*
X010695Y010679D02*
X038834Y010679D01*
X010740Y010634D02*
X038789Y010634D01*
X010785Y010589D02*
X038744Y010589D01*
X010830Y010544D02*
X038699Y010544D01*
X010875Y010499D02*
X038654Y010499D01*
X010920Y010454D02*
X038609Y010454D01*
X010965Y010409D02*
X038564Y010409D01*
X011010Y010364D02*
X038519Y010364D01*
X011055Y010319D02*
X038474Y010319D01*
X035622Y025664D02*
X038422Y025664D01*
X035622Y025619D02*
X038422Y025619D01*
X035622Y025574D02*
X038422Y025574D01*
X035632Y025529D02*
X038422Y025529D01*
X035772Y025484D02*
X038422Y025484D01*
X035772Y025439D02*
X038422Y025439D01*
X035772Y025394D02*
X038422Y025394D01*
X035772Y025349D02*
X038422Y025349D01*
X035772Y025304D02*
X038422Y025304D01*
X035772Y025259D02*
X038422Y025259D01*
X035772Y025214D02*
X038422Y025214D01*
X035772Y025169D02*
X038422Y025169D01*
X035772Y025124D02*
X038422Y025124D01*
X035772Y025079D02*
X038422Y025079D01*
X035772Y025034D02*
X038422Y025034D01*
X035772Y024989D02*
X038422Y024989D01*
X035772Y024944D02*
X038422Y024944D01*
X035989Y024899D02*
X038422Y024899D01*
X036053Y024854D02*
X038422Y024854D01*
X036088Y024809D02*
X038422Y024809D01*
X036107Y024764D02*
X038422Y024764D01*
X036116Y024719D02*
X038422Y024719D01*
X036116Y024674D02*
X038422Y024674D01*
X036106Y024629D02*
X038422Y024629D01*
X036085Y024584D02*
X038422Y024584D01*
X037311Y024539D02*
X038422Y024539D01*
X037365Y024494D02*
X038422Y024494D01*
X037396Y024449D02*
X038422Y024449D01*
X037413Y024404D02*
X038422Y024404D01*
X037419Y024359D02*
X038422Y024359D01*
X037417Y024314D02*
X038422Y024314D01*
X037404Y024269D02*
X038422Y024269D01*
X037381Y024224D02*
X038422Y024224D01*
X037339Y024179D02*
X038422Y024179D01*
X037246Y024134D02*
X038422Y024134D01*
X030722Y024089D02*
X038422Y024089D01*
X030722Y024044D02*
X038422Y024044D01*
X030722Y023999D02*
X038422Y023999D01*
X030722Y023954D02*
X038422Y023954D01*
X030722Y023909D02*
X038422Y023909D01*
X030722Y023864D02*
X038422Y023864D01*
X030722Y023819D02*
X038422Y023819D01*
X030722Y023774D02*
X038422Y023774D01*
X030722Y023729D02*
X038422Y023729D01*
X030722Y023684D02*
X038422Y023684D01*
X030722Y023639D02*
X038422Y023639D01*
X030722Y023594D02*
X038422Y023594D01*
X030722Y023549D02*
X038422Y023549D01*
X030722Y023504D02*
X038422Y023504D01*
X030722Y023459D02*
X038422Y023459D01*
X030722Y023414D02*
X038422Y023414D01*
X030722Y023369D02*
X038422Y023369D01*
X030722Y023324D02*
X038422Y023324D01*
X030722Y023279D02*
X038422Y023279D01*
X030722Y023234D02*
X038422Y023234D01*
X030722Y023189D02*
X038422Y023189D01*
X030722Y023144D02*
X038422Y023144D01*
X030722Y023099D02*
X038422Y023099D01*
X030722Y023054D02*
X038422Y023054D01*
X030722Y023009D02*
X038422Y023009D01*
X030722Y022964D02*
X038422Y022964D01*
X030722Y022919D02*
X038422Y022919D01*
X030722Y022874D02*
X038422Y022874D01*
X030722Y022829D02*
X038422Y022829D01*
X030722Y022784D02*
X038422Y022784D01*
X030722Y022739D02*
X038422Y022739D01*
X030722Y022694D02*
X038422Y022694D01*
X030722Y022649D02*
X038422Y022649D01*
X030722Y022604D02*
X038422Y022604D01*
X030722Y022559D02*
X038422Y022559D01*
X030722Y022514D02*
X038422Y022514D01*
X030722Y022469D02*
X038422Y022469D01*
X030722Y022424D02*
X038422Y022424D01*
X030722Y022379D02*
X038422Y022379D01*
X030722Y022334D02*
X038422Y022334D01*
X030722Y022289D02*
X038422Y022289D01*
X030722Y022244D02*
X038422Y022244D01*
X035624Y025709D02*
X038420Y025709D01*
X010668Y014819D02*
X037173Y014819D01*
X010668Y015179D02*
X037173Y015179D01*
X036496Y024134D02*
X037154Y024134D01*
X010668Y014864D02*
X037126Y014864D01*
X010668Y015134D02*
X037126Y015134D01*
X010668Y014909D02*
X037099Y014909D01*
X010668Y015089D02*
X037099Y015089D01*
X036561Y024539D02*
X037088Y024539D01*
X010668Y014954D02*
X037084Y014954D01*
X010668Y015044D02*
X037084Y015044D01*
X010668Y014999D02*
X037080Y014999D01*
X036589Y024179D02*
X037060Y024179D01*
X036615Y024494D02*
X037034Y024494D01*
X036631Y024224D02*
X037019Y024224D01*
X036646Y024449D02*
X037004Y024449D01*
X036654Y024269D02*
X036995Y024269D01*
X036663Y024404D02*
X036986Y024404D01*
X036667Y024314D02*
X036982Y024314D01*
X036669Y024359D02*
X036980Y024359D01*
X030722Y024134D02*
X036404Y024134D01*
X036048Y024539D02*
X036338Y024539D01*
X035772Y024179D02*
X036310Y024179D01*
X035977Y024494D02*
X036284Y024494D01*
X035772Y024224D02*
X036269Y024224D01*
X035772Y024449D02*
X036254Y024449D01*
X035772Y024269D02*
X036245Y024269D01*
X035772Y024404D02*
X036236Y024404D01*
X035772Y024314D02*
X036232Y024314D01*
X035772Y024359D02*
X036230Y024359D01*
X035780Y024494D02*
X035818Y024494D01*
X035789Y024899D02*
X035805Y024899D01*
X030272Y025664D02*
X035572Y025664D01*
X030272Y025619D02*
X035572Y025619D01*
X030272Y025574D02*
X035572Y025574D01*
X030272Y025709D02*
X035570Y025709D01*
X030282Y025529D02*
X035562Y025529D01*
X030722Y022199D02*
X033872Y022199D01*
X030722Y022154D02*
X033872Y022154D01*
X030722Y022109D02*
X033872Y022109D01*
X030722Y022064D02*
X033872Y022064D01*
X030722Y022019D02*
X033872Y022019D01*
X030722Y021974D02*
X033872Y021974D01*
X030722Y021929D02*
X033872Y021929D01*
X030722Y021884D02*
X033872Y021884D01*
X030722Y021839D02*
X033872Y021839D01*
X030722Y021794D02*
X033872Y021794D01*
X030722Y021749D02*
X033872Y021749D01*
X030722Y021704D02*
X033872Y021704D01*
X030722Y021659D02*
X033872Y021659D01*
X030722Y021614D02*
X033872Y021614D01*
X030722Y021569D02*
X033872Y021569D01*
X030722Y021524D02*
X033872Y021524D01*
X030722Y021479D02*
X033872Y021479D01*
X030722Y021434D02*
X033872Y021434D01*
X030722Y021389D02*
X033872Y021389D01*
X030722Y021344D02*
X033872Y021344D01*
X030722Y021299D02*
X033872Y021299D01*
X030722Y021254D02*
X033872Y021254D01*
X030722Y021209D02*
X033872Y021209D01*
X030722Y021164D02*
X033872Y021164D01*
X030722Y021119D02*
X033872Y021119D01*
X030722Y021074D02*
X033872Y021074D01*
X030722Y021029D02*
X033872Y021029D01*
X030722Y020984D02*
X033872Y020984D01*
X030722Y020939D02*
X033872Y020939D01*
X030722Y020894D02*
X033872Y020894D01*
X030722Y020849D02*
X033872Y020849D01*
X030722Y020804D02*
X033872Y020804D01*
X030722Y020759D02*
X033872Y020759D01*
X030722Y020714D02*
X033872Y020714D01*
X030722Y020669D02*
X033872Y020669D01*
X030722Y020624D02*
X033872Y020624D01*
X030722Y020579D02*
X033872Y020579D01*
X030722Y020534D02*
X033872Y020534D01*
X030722Y020489D02*
X033872Y020489D01*
X030722Y020444D02*
X033872Y020444D01*
X030722Y020399D02*
X033872Y020399D01*
X030722Y020354D02*
X033872Y020354D01*
X030722Y020309D02*
X033872Y020309D01*
X030722Y020264D02*
X033872Y020264D01*
X030722Y020219D02*
X033872Y020219D01*
X030722Y020174D02*
X033872Y020174D01*
X030722Y020129D02*
X033872Y020129D01*
X030722Y020084D02*
X033872Y020084D01*
X030722Y020039D02*
X033872Y020039D01*
X030722Y019994D02*
X033872Y019994D01*
X030722Y019949D02*
X033872Y019949D01*
X030722Y019904D02*
X033872Y019904D01*
X030722Y019859D02*
X033872Y019859D01*
X030722Y019814D02*
X033872Y019814D01*
X030722Y019769D02*
X033872Y019769D01*
X030722Y019724D02*
X033872Y019724D01*
X030722Y019679D02*
X033872Y019679D01*
X030722Y019634D02*
X033872Y019634D01*
X030722Y019589D02*
X033872Y019589D01*
X030722Y019544D02*
X033872Y019544D01*
X030722Y019499D02*
X033872Y019499D01*
X030722Y019454D02*
X033872Y019454D01*
X030722Y019409D02*
X033872Y019409D01*
X030722Y019364D02*
X033872Y019364D01*
X019582Y019319D02*
X033872Y019319D01*
X019572Y019274D02*
X033872Y019274D01*
X019572Y019229D02*
X033872Y019229D01*
X019572Y019184D02*
X033872Y019184D01*
X019572Y019139D02*
X033872Y019139D01*
X019572Y019094D02*
X033872Y019094D01*
X019572Y019049D02*
X033872Y019049D01*
X019572Y019004D02*
X033872Y019004D01*
X019572Y018959D02*
X033872Y018959D01*
X019572Y018914D02*
X033872Y018914D01*
X019572Y018869D02*
X033872Y018869D01*
X019572Y018824D02*
X033872Y018824D01*
X019572Y018779D02*
X033872Y018779D01*
X019866Y018734D02*
X033872Y018734D01*
X019917Y018689D02*
X033872Y018689D01*
X019946Y018644D02*
X033872Y018644D01*
X019961Y018599D02*
X033872Y018599D01*
X019967Y018554D02*
X033872Y018554D01*
X019963Y018509D02*
X033872Y018509D01*
X019950Y018464D02*
X033872Y018464D01*
X019924Y018419D02*
X033872Y018419D01*
X019880Y018374D02*
X033872Y018374D01*
X019572Y018329D02*
X033872Y018329D01*
X019572Y018284D02*
X033872Y018284D01*
X019572Y018239D02*
X033872Y018239D01*
X019572Y018194D02*
X033872Y018194D01*
X019572Y018149D02*
X033872Y018149D01*
X019572Y018104D02*
X033872Y018104D01*
X019572Y018059D02*
X033872Y018059D01*
X019572Y018014D02*
X033872Y018014D01*
X019572Y017969D02*
X033872Y017969D01*
X019572Y017924D02*
X033872Y017924D01*
X019572Y017879D02*
X033872Y017879D01*
X019572Y017834D02*
X033872Y017834D01*
X019572Y017789D02*
X033872Y017789D01*
X019572Y017744D02*
X033872Y017744D01*
X019572Y017699D02*
X033872Y017699D01*
X019572Y017654D02*
X033872Y017654D01*
X019572Y017609D02*
X033872Y017609D01*
X019572Y017564D02*
X033872Y017564D01*
X019572Y017519D02*
X033872Y017519D01*
X019572Y017474D02*
X033872Y017474D01*
X019572Y017429D02*
X033872Y017429D01*
X019572Y017384D02*
X033872Y017384D01*
X019572Y017339D02*
X033872Y017339D01*
X019572Y017294D02*
X033872Y017294D01*
X019572Y017249D02*
X033872Y017249D01*
X019572Y017204D02*
X033872Y017204D01*
X019572Y017159D02*
X033872Y017159D01*
X019572Y017114D02*
X033872Y017114D01*
X010854Y017069D02*
X033872Y017069D01*
X010842Y017024D02*
X033872Y017024D01*
X010821Y016979D02*
X033872Y016979D01*
X010788Y016934D02*
X033872Y016934D01*
X010733Y016889D02*
X033872Y016889D01*
X010668Y016844D02*
X033872Y016844D01*
X010668Y016799D02*
X033872Y016799D01*
X010668Y016754D02*
X033872Y016754D01*
X017163Y016709D02*
X033872Y016709D01*
X017243Y016664D02*
X033872Y016664D01*
X017282Y016619D02*
X033872Y016619D01*
X017304Y016574D02*
X033872Y016574D01*
X017315Y016529D02*
X033872Y016529D01*
X017317Y016484D02*
X033872Y016484D01*
X017309Y016439D02*
X033872Y016439D01*
X017290Y016394D02*
X033872Y016394D01*
X017258Y016349D02*
X033872Y016349D01*
X017199Y016304D02*
X033872Y016304D01*
X010668Y016259D02*
X033872Y016259D01*
X010668Y016214D02*
X033872Y016214D01*
X010668Y016169D02*
X033872Y016169D01*
X010668Y016124D02*
X033872Y016124D01*
X010668Y016079D02*
X033872Y016079D01*
X010668Y016034D02*
X033872Y016034D01*
X010668Y015989D02*
X033872Y015989D01*
X010668Y015944D02*
X033872Y015944D01*
X010668Y015899D02*
X033872Y015899D01*
X010668Y015854D02*
X033872Y015854D01*
X010668Y015809D02*
X033872Y015809D01*
X010668Y015764D02*
X033872Y015764D01*
X010668Y015719D02*
X033872Y015719D01*
X010668Y015674D02*
X033872Y015674D01*
X010668Y015629D02*
X033872Y015629D01*
X010668Y015584D02*
X033872Y015584D01*
X010668Y015539D02*
X033872Y015539D01*
X010668Y015494D02*
X033872Y015494D01*
X025424Y032774D02*
X030772Y032774D01*
X025395Y032729D02*
X030772Y032729D01*
X025360Y032684D02*
X030772Y032684D01*
X025318Y032639D02*
X030772Y032639D01*
X025268Y032594D02*
X030772Y032594D01*
X025205Y032549D02*
X030772Y032549D01*
X025122Y032504D02*
X030772Y032504D01*
X024982Y032459D02*
X030772Y032459D01*
X015108Y032414D02*
X030772Y032414D01*
X015126Y032369D02*
X030772Y032369D01*
X015137Y032324D02*
X030772Y032324D01*
X015143Y032279D02*
X030772Y032279D01*
X015144Y032234D02*
X030772Y032234D01*
X015140Y032189D02*
X030772Y032189D01*
X015130Y032144D02*
X030772Y032144D01*
X015115Y032099D02*
X030772Y032099D01*
X015093Y032054D02*
X030772Y032054D01*
X015063Y032009D02*
X030772Y032009D01*
X015023Y031964D02*
X030772Y031964D01*
X014966Y031919D02*
X030772Y031919D01*
X014873Y031874D02*
X030772Y031874D01*
X010668Y031829D02*
X030772Y031829D01*
X010668Y031784D02*
X030772Y031784D01*
X010668Y031739D02*
X030772Y031739D01*
X010668Y031694D02*
X030772Y031694D01*
X010668Y031649D02*
X030772Y031649D01*
X010668Y031604D02*
X030772Y031604D01*
X010668Y031559D02*
X030772Y031559D01*
X019994Y031514D02*
X030772Y031514D01*
X020087Y031469D02*
X030772Y031469D01*
X020128Y031424D02*
X030772Y031424D01*
X020156Y031379D02*
X030772Y031379D01*
X024972Y031334D02*
X030772Y031334D01*
X024972Y031289D02*
X030772Y031289D01*
X024972Y031244D02*
X030772Y031244D01*
X026839Y031199D02*
X030772Y031199D01*
X026903Y031154D02*
X030772Y031154D01*
X026938Y031109D02*
X030772Y031109D01*
X026957Y031064D02*
X030772Y031064D01*
X026966Y031019D02*
X030772Y031019D01*
X026966Y030974D02*
X030772Y030974D01*
X026956Y030929D02*
X030772Y030929D01*
X026935Y030884D02*
X030772Y030884D01*
X026898Y030839D02*
X030772Y030839D01*
X026827Y030794D02*
X030772Y030794D01*
X024972Y030749D02*
X030772Y030749D01*
X024972Y030704D02*
X030772Y030704D01*
X024972Y030659D02*
X030772Y030659D01*
X024972Y030614D02*
X030772Y030614D01*
X024972Y030569D02*
X030772Y030569D01*
X024972Y030524D02*
X030772Y030524D01*
X024972Y030479D02*
X030772Y030479D01*
X025666Y030434D02*
X030772Y030434D01*
X025717Y030389D02*
X030772Y030389D01*
X027249Y030344D02*
X030772Y030344D01*
X027308Y030299D02*
X030772Y030299D01*
X027340Y030254D02*
X030772Y030254D01*
X027359Y030209D02*
X030772Y030209D01*
X027367Y030164D02*
X030772Y030164D01*
X027365Y030119D02*
X030772Y030119D01*
X027354Y030074D02*
X030772Y030074D01*
X027331Y030029D02*
X030772Y030029D01*
X027292Y029984D02*
X030772Y029984D01*
X027212Y029939D02*
X030772Y029939D01*
X024972Y029894D02*
X030772Y029894D01*
X024972Y029849D02*
X030772Y029849D01*
X024972Y029804D02*
X030772Y029804D01*
X024972Y029759D02*
X030772Y029759D01*
X024972Y029714D02*
X030772Y029714D01*
X024972Y029669D02*
X030772Y029669D01*
X024972Y029624D02*
X030772Y029624D01*
X024972Y029579D02*
X030772Y029579D01*
X024972Y029534D02*
X030772Y029534D01*
X024974Y029489D02*
X030772Y029489D01*
X028822Y029444D02*
X030772Y029444D01*
X028822Y029399D02*
X030772Y029399D01*
X028822Y029354D02*
X030772Y029354D01*
X028822Y029309D02*
X030772Y029309D01*
X028822Y029264D02*
X030772Y029264D01*
X028822Y029219D02*
X030772Y029219D01*
X028822Y029174D02*
X030772Y029174D01*
X028822Y029129D02*
X030772Y029129D01*
X028822Y029084D02*
X030772Y029084D01*
X028822Y029039D02*
X030772Y029039D01*
X030152Y028994D02*
X030772Y028994D01*
X030211Y028949D02*
X030772Y028949D01*
X030243Y028904D02*
X030772Y028904D01*
X030261Y028859D02*
X030772Y028859D01*
X030269Y028814D02*
X030772Y028814D01*
X030267Y028769D02*
X030772Y028769D01*
X030256Y028724D02*
X030772Y028724D01*
X030234Y028679D02*
X030772Y028679D01*
X030195Y028634D02*
X030772Y028634D01*
X030115Y028589D02*
X030772Y028589D01*
X028822Y028544D02*
X030772Y028544D01*
X028822Y028499D02*
X030772Y028499D01*
X028822Y028454D02*
X030772Y028454D01*
X028822Y028409D02*
X030772Y028409D01*
X028822Y028364D02*
X030772Y028364D01*
X028822Y028319D02*
X030772Y028319D01*
X028822Y028274D02*
X030772Y028274D01*
X028822Y028229D02*
X030772Y028229D01*
X028822Y028184D02*
X030772Y028184D01*
X028822Y028139D02*
X030772Y028139D01*
X028822Y028094D02*
X030772Y028094D01*
X028822Y028049D02*
X030772Y028049D01*
X028822Y028004D02*
X030772Y028004D01*
X028822Y027959D02*
X030772Y027959D01*
X028822Y027914D02*
X030772Y027914D01*
X028822Y027869D02*
X030772Y027869D01*
X028822Y027824D02*
X030772Y027824D01*
X028822Y027779D02*
X030772Y027779D01*
X028822Y027734D02*
X030772Y027734D01*
X028822Y027689D02*
X030772Y027689D01*
X028822Y027644D02*
X030772Y027644D01*
X028822Y027599D02*
X030772Y027599D01*
X028822Y027554D02*
X030772Y027554D01*
X028822Y027509D02*
X030772Y027509D01*
X028822Y027464D02*
X030772Y027464D01*
X028822Y027419D02*
X030772Y027419D01*
X028822Y027374D02*
X030772Y027374D01*
X028822Y027329D02*
X030772Y027329D01*
X028822Y027284D02*
X030772Y027284D01*
X028822Y027239D02*
X030772Y027239D01*
X028822Y027194D02*
X030772Y027194D01*
X028822Y027149D02*
X030772Y027149D01*
X028822Y027104D02*
X030772Y027104D01*
X028822Y027059D02*
X030772Y027059D01*
X028822Y027014D02*
X030772Y027014D01*
X028822Y026969D02*
X030772Y026969D01*
X028822Y026924D02*
X030772Y026924D01*
X028822Y026879D02*
X030772Y026879D01*
X028822Y026834D02*
X030772Y026834D01*
X028824Y026789D02*
X030772Y026789D01*
X030272Y026744D02*
X030772Y026744D01*
X030272Y026699D02*
X030772Y026699D01*
X030272Y026654D02*
X030772Y026654D01*
X030272Y026609D02*
X030772Y026609D01*
X030272Y026564D02*
X030772Y026564D01*
X030457Y026519D02*
X030772Y026519D01*
X030583Y026474D02*
X030772Y026474D01*
X030627Y026429D02*
X030772Y026429D01*
X030653Y026384D02*
X030772Y026384D01*
X030666Y026339D02*
X030772Y026339D01*
X030669Y026294D02*
X030772Y026294D01*
X030664Y026249D02*
X030772Y026249D01*
X030648Y026204D02*
X030772Y026204D01*
X030619Y026159D02*
X030772Y026159D01*
X030568Y026114D02*
X030772Y026114D01*
X030272Y026069D02*
X030772Y026069D01*
X030272Y026024D02*
X030772Y026024D01*
X030272Y025979D02*
X030772Y025979D01*
X030272Y025934D02*
X030772Y025934D01*
X030272Y025889D02*
X030772Y025889D01*
X030272Y025844D02*
X030772Y025844D01*
X030272Y025799D02*
X030772Y025799D01*
X030272Y025754D02*
X030772Y025754D01*
X025448Y032819D02*
X030772Y032819D01*
X030272Y026519D02*
X030442Y026519D01*
X030273Y026114D02*
X030331Y026114D01*
X030279Y026474D02*
X030316Y026474D01*
X028822Y028589D02*
X029984Y028589D01*
X028822Y028994D02*
X029947Y028994D01*
X028822Y028634D02*
X029904Y028634D01*
X028822Y028949D02*
X029888Y028949D01*
X028822Y028679D02*
X029865Y028679D01*
X028822Y028904D02*
X029856Y028904D01*
X028822Y028724D02*
X029843Y028724D01*
X028822Y028859D02*
X029838Y028859D01*
X028822Y028769D02*
X029832Y028769D01*
X028822Y028814D02*
X029830Y028814D01*
X019718Y022874D02*
X028972Y022874D01*
X019718Y022829D02*
X028972Y022829D01*
X020516Y022784D02*
X028972Y022784D01*
X020567Y022739D02*
X028972Y022739D01*
X020596Y022694D02*
X028972Y022694D01*
X020611Y022649D02*
X028972Y022649D01*
X022480Y022604D02*
X028972Y022604D01*
X022551Y022559D02*
X028972Y022559D01*
X022587Y022514D02*
X028972Y022514D01*
X022608Y022469D02*
X028972Y022469D01*
X022618Y022424D02*
X028972Y022424D01*
X022619Y022379D02*
X028972Y022379D01*
X022610Y022334D02*
X028972Y022334D01*
X022590Y022289D02*
X028972Y022289D01*
X022556Y022244D02*
X028972Y022244D01*
X022491Y022199D02*
X028972Y022199D01*
X019718Y022154D02*
X028972Y022154D01*
X019718Y022109D02*
X028972Y022109D01*
X019718Y022064D02*
X028972Y022064D01*
X019718Y022019D02*
X028972Y022019D01*
X019718Y021974D02*
X028972Y021974D01*
X019718Y021929D02*
X028972Y021929D01*
X019718Y021884D02*
X028972Y021884D01*
X019718Y021839D02*
X028972Y021839D01*
X019718Y021794D02*
X028972Y021794D01*
X019718Y021749D02*
X028972Y021749D01*
X022480Y021704D02*
X028972Y021704D01*
X022551Y021659D02*
X028972Y021659D01*
X022587Y021614D02*
X028972Y021614D01*
X022608Y021569D02*
X028972Y021569D01*
X022618Y021524D02*
X028972Y021524D01*
X022619Y021479D02*
X028972Y021479D01*
X022610Y021434D02*
X028972Y021434D01*
X022590Y021389D02*
X028972Y021389D01*
X022556Y021344D02*
X028972Y021344D01*
X022491Y021299D02*
X028972Y021299D01*
X019718Y021254D02*
X028972Y021254D01*
X019718Y021209D02*
X028972Y021209D01*
X019718Y021164D02*
X028972Y021164D01*
X019718Y021119D02*
X028972Y021119D01*
X018495Y021074D02*
X028972Y021074D01*
X018472Y021029D02*
X028972Y021029D01*
X028902Y020984D02*
X028970Y020984D01*
X019718Y022919D02*
X028962Y022919D01*
X027902Y020984D02*
X028653Y020984D01*
X027939Y012299D02*
X028615Y012299D01*
X027940Y013019D02*
X028614Y013019D01*
X027994Y020939D02*
X028560Y020939D01*
X028015Y012344D02*
X028539Y012344D01*
X028016Y012974D02*
X028539Y012974D01*
X028051Y020894D02*
X028503Y020894D01*
X028065Y012389D02*
X028489Y012389D01*
X028066Y012929D02*
X028489Y012929D01*
X028082Y020354D02*
X028472Y020354D01*
X028091Y020849D02*
X028463Y020849D01*
X028102Y012434D02*
X028452Y012434D01*
X028102Y012884D02*
X028452Y012884D01*
X028112Y020399D02*
X028443Y020399D01*
X028121Y020804D02*
X028433Y020804D01*
X028129Y012479D02*
X028426Y012479D01*
X028129Y012839D02*
X028425Y012839D01*
X028136Y020444D02*
X028418Y020444D01*
X028143Y020759D02*
X028412Y020759D01*
X028148Y012524D02*
X028406Y012524D01*
X028148Y012794D02*
X028406Y012794D01*
X028153Y020489D02*
X028401Y020489D01*
X028158Y020714D02*
X028396Y020714D01*
X028162Y012569D02*
X028392Y012569D01*
X028162Y012749D02*
X028392Y012749D01*
X028165Y020534D02*
X028389Y020534D01*
X028168Y020669D02*
X028387Y020669D01*
X028169Y012614D02*
X028385Y012614D01*
X028170Y012704D02*
X028385Y012704D01*
X028171Y020579D02*
X028383Y020579D01*
X028172Y020624D02*
X028382Y020624D01*
X028172Y012659D02*
X028382Y012659D01*
X026902Y020984D02*
X027653Y020984D01*
X026939Y012299D02*
X027615Y012299D01*
X026940Y013019D02*
X027614Y013019D01*
X026994Y020939D02*
X027560Y020939D01*
X027015Y012344D02*
X027539Y012344D01*
X027016Y012974D02*
X027539Y012974D01*
X027051Y020894D02*
X027503Y020894D01*
X027065Y012389D02*
X027489Y012389D01*
X027066Y012929D02*
X027489Y012929D01*
X027082Y020354D02*
X027472Y020354D01*
X027091Y020849D02*
X027463Y020849D01*
X027102Y012434D02*
X027452Y012434D01*
X027102Y012884D02*
X027452Y012884D01*
X027112Y020399D02*
X027443Y020399D01*
X027121Y020804D02*
X027433Y020804D01*
X027129Y012479D02*
X027426Y012479D01*
X027129Y012839D02*
X027425Y012839D01*
X027136Y020444D02*
X027418Y020444D01*
X027143Y020759D02*
X027412Y020759D01*
X027148Y012524D02*
X027406Y012524D01*
X027148Y012794D02*
X027406Y012794D01*
X027153Y020489D02*
X027401Y020489D01*
X027158Y020714D02*
X027396Y020714D01*
X027162Y012569D02*
X027392Y012569D01*
X027162Y012749D02*
X027392Y012749D01*
X027165Y020534D02*
X027389Y020534D01*
X027168Y020669D02*
X027387Y020669D01*
X027169Y012614D02*
X027385Y012614D01*
X027170Y012704D02*
X027385Y012704D01*
X027171Y020579D02*
X027383Y020579D01*
X027172Y020624D02*
X027382Y020624D01*
X027172Y012659D02*
X027382Y012659D01*
X024972Y029939D02*
X027082Y029939D01*
X025746Y030344D02*
X027045Y030344D01*
X024972Y029984D02*
X027002Y029984D01*
X025761Y030299D02*
X026986Y030299D01*
X024972Y030029D02*
X026963Y030029D01*
X025767Y030254D02*
X026954Y030254D01*
X025680Y030074D02*
X026940Y030074D01*
X025763Y030209D02*
X026935Y030209D01*
X025724Y030119D02*
X026929Y030119D01*
X025750Y030164D02*
X026928Y030164D01*
X024972Y030794D02*
X026668Y030794D01*
X024972Y031199D02*
X026655Y031199D01*
X025902Y020984D02*
X026653Y020984D01*
X025939Y012299D02*
X026615Y012299D01*
X025940Y013019D02*
X026614Y013019D01*
X024972Y030839D02*
X026596Y030839D01*
X024972Y031154D02*
X026591Y031154D01*
X025994Y020939D02*
X026560Y020939D01*
X024972Y030884D02*
X026560Y030884D01*
X024972Y031109D02*
X026556Y031109D01*
X026015Y012344D02*
X026539Y012344D01*
X026016Y012974D02*
X026539Y012974D01*
X024972Y030929D02*
X026539Y030929D01*
X024972Y031064D02*
X026537Y031064D01*
X024972Y030974D02*
X026528Y030974D01*
X024972Y031019D02*
X026528Y031019D01*
X026051Y020894D02*
X026503Y020894D01*
X026065Y012389D02*
X026489Y012389D01*
X026066Y012929D02*
X026489Y012929D01*
X026082Y020354D02*
X026472Y020354D01*
X026091Y020849D02*
X026463Y020849D01*
X026102Y012434D02*
X026452Y012434D01*
X026102Y012884D02*
X026452Y012884D01*
X026112Y020399D02*
X026443Y020399D01*
X026121Y020804D02*
X026433Y020804D01*
X026129Y012479D02*
X026426Y012479D01*
X026129Y012839D02*
X026425Y012839D01*
X026136Y020444D02*
X026418Y020444D01*
X026143Y020759D02*
X026412Y020759D01*
X026148Y012524D02*
X026406Y012524D01*
X026148Y012794D02*
X026406Y012794D01*
X026153Y020489D02*
X026401Y020489D01*
X026158Y020714D02*
X026396Y020714D01*
X026162Y012569D02*
X026392Y012569D01*
X026162Y012749D02*
X026392Y012749D01*
X026165Y020534D02*
X026389Y020534D01*
X026168Y020669D02*
X026387Y020669D01*
X026169Y012614D02*
X026385Y012614D01*
X026170Y012704D02*
X026385Y012704D01*
X026171Y020579D02*
X026383Y020579D01*
X026172Y020624D02*
X026382Y020624D01*
X026172Y012659D02*
X026382Y012659D01*
X018822Y028049D02*
X025672Y028049D01*
X018822Y028004D02*
X025672Y028004D01*
X018822Y027959D02*
X025672Y027959D01*
X018822Y027914D02*
X025672Y027914D01*
X022755Y027869D02*
X025672Y027869D01*
X022881Y027824D02*
X025672Y027824D01*
X022925Y027779D02*
X025672Y027779D01*
X022950Y027734D02*
X025672Y027734D01*
X024422Y027689D02*
X025672Y027689D01*
X024422Y027644D02*
X025672Y027644D01*
X024422Y027599D02*
X025672Y027599D01*
X024422Y027554D02*
X025672Y027554D01*
X024422Y027509D02*
X025672Y027509D01*
X024422Y027464D02*
X025672Y027464D01*
X024422Y027419D02*
X025672Y027419D01*
X024422Y027374D02*
X025672Y027374D01*
X024422Y027329D02*
X025672Y027329D01*
X024422Y027284D02*
X025672Y027284D01*
X024422Y027239D02*
X025672Y027239D01*
X024422Y027194D02*
X025672Y027194D01*
X024422Y027149D02*
X025672Y027149D01*
X024422Y027104D02*
X025672Y027104D01*
X024422Y027059D02*
X025672Y027059D01*
X024422Y027014D02*
X025672Y027014D01*
X024422Y026969D02*
X025672Y026969D01*
X024422Y026924D02*
X025672Y026924D01*
X024422Y026879D02*
X025672Y026879D01*
X024422Y026834D02*
X025672Y026834D01*
X024422Y026789D02*
X025672Y026789D01*
X024422Y026744D02*
X025672Y026744D01*
X024422Y026699D02*
X025672Y026699D01*
X024422Y026654D02*
X025672Y026654D01*
X024422Y026609D02*
X025672Y026609D01*
X024422Y026564D02*
X025672Y026564D01*
X024422Y026519D02*
X025672Y026519D01*
X024422Y026474D02*
X025672Y026474D01*
X024422Y026429D02*
X025672Y026429D01*
X024422Y026384D02*
X025672Y026384D01*
X024422Y026339D02*
X025672Y026339D01*
X024422Y026294D02*
X025672Y026294D01*
X024422Y026249D02*
X025672Y026249D01*
X024422Y026204D02*
X025672Y026204D01*
X024422Y026159D02*
X025672Y026159D01*
X024422Y026114D02*
X025672Y026114D01*
X024422Y026069D02*
X025672Y026069D01*
X024422Y026024D02*
X025672Y026024D01*
X024422Y025979D02*
X025672Y025979D01*
X024422Y025934D02*
X025672Y025934D01*
X024422Y025889D02*
X025672Y025889D01*
X024422Y025844D02*
X025672Y025844D01*
X024422Y025799D02*
X025672Y025799D01*
X024422Y025754D02*
X025672Y025754D01*
X024422Y025709D02*
X025672Y025709D01*
X024422Y025664D02*
X025672Y025664D01*
X024422Y025619D02*
X025672Y025619D01*
X024422Y025574D02*
X025672Y025574D01*
X024422Y025529D02*
X025672Y025529D01*
X024422Y025484D02*
X025672Y025484D01*
X024422Y025439D02*
X025672Y025439D01*
X024422Y025394D02*
X025672Y025394D01*
X024422Y025349D02*
X025672Y025349D01*
X024422Y025304D02*
X025672Y025304D01*
X024422Y025259D02*
X025672Y025259D01*
X024422Y025214D02*
X025672Y025214D01*
X024422Y025169D02*
X025672Y025169D01*
X024422Y025124D02*
X025672Y025124D01*
X024422Y025079D02*
X025672Y025079D01*
X024422Y025034D02*
X025672Y025034D01*
X024424Y024989D02*
X025670Y024989D01*
X025627Y028094D02*
X025664Y028094D01*
X024902Y020984D02*
X025653Y020984D01*
X024939Y012299D02*
X025615Y012299D01*
X024940Y013019D02*
X025614Y013019D01*
X024994Y020939D02*
X025560Y020939D01*
X025015Y012344D02*
X025539Y012344D01*
X025016Y012974D02*
X025539Y012974D01*
X025051Y020894D02*
X025503Y020894D01*
X025065Y012389D02*
X025489Y012389D01*
X025066Y012929D02*
X025489Y012929D01*
X025082Y020354D02*
X025472Y020354D01*
X018822Y028094D02*
X025468Y028094D01*
X025091Y020849D02*
X025463Y020849D01*
X025102Y012434D02*
X025452Y012434D01*
X025102Y012884D02*
X025452Y012884D01*
X025112Y020399D02*
X025443Y020399D01*
X025121Y020804D02*
X025433Y020804D01*
X024972Y030434D02*
X025428Y030434D01*
X025129Y012479D02*
X025426Y012479D01*
X025129Y012839D02*
X025425Y012839D01*
X025136Y020444D02*
X025418Y020444D01*
X024972Y030074D02*
X025414Y030074D01*
X025143Y020759D02*
X025412Y020759D01*
X025148Y012524D02*
X025406Y012524D01*
X025148Y012794D02*
X025406Y012794D01*
X025153Y020489D02*
X025401Y020489D01*
X025158Y020714D02*
X025396Y020714D01*
X018822Y028139D02*
X025396Y028139D01*
X025162Y012569D02*
X025392Y012569D01*
X025162Y012749D02*
X025392Y012749D01*
X025165Y020534D02*
X025389Y020534D01*
X025168Y020669D02*
X025387Y020669D01*
X025169Y012614D02*
X025385Y012614D01*
X025170Y012704D02*
X025385Y012704D01*
X025171Y020579D02*
X025383Y020579D01*
X025172Y020624D02*
X025382Y020624D01*
X025172Y012659D02*
X025382Y012659D01*
X018823Y028454D02*
X025378Y028454D01*
X024972Y030389D02*
X025377Y030389D01*
X024972Y030119D02*
X025370Y030119D01*
X018822Y028184D02*
X025360Y028184D01*
X018822Y028409D02*
X025356Y028409D01*
X024972Y030344D02*
X025349Y030344D01*
X024972Y030164D02*
X025344Y030164D01*
X018822Y028229D02*
X025339Y028229D01*
X018822Y028364D02*
X025337Y028364D01*
X024972Y030299D02*
X025333Y030299D01*
X024972Y030209D02*
X025331Y030209D01*
X018822Y028274D02*
X025328Y028274D01*
X018822Y028319D02*
X025328Y028319D01*
X024972Y030254D02*
X025327Y030254D01*
X021773Y032459D02*
X024714Y032459D01*
X023902Y020984D02*
X024653Y020984D01*
X023939Y012299D02*
X024615Y012299D01*
X023940Y013019D02*
X024614Y013019D01*
X021913Y032504D02*
X024574Y032504D01*
X023994Y020939D02*
X024560Y020939D01*
X024015Y012344D02*
X024539Y012344D01*
X024016Y012974D02*
X024539Y012974D01*
X024051Y020894D02*
X024503Y020894D01*
X021997Y032549D02*
X024490Y032549D01*
X024065Y012389D02*
X024489Y012389D01*
X024066Y012929D02*
X024489Y012929D01*
X024082Y020354D02*
X024472Y020354D01*
X024091Y020849D02*
X024463Y020849D01*
X024102Y012434D02*
X024452Y012434D01*
X024102Y012884D02*
X024452Y012884D01*
X024112Y020399D02*
X024443Y020399D01*
X024121Y020804D02*
X024433Y020804D01*
X022060Y032594D02*
X024428Y032594D01*
X024129Y012479D02*
X024426Y012479D01*
X024129Y012839D02*
X024425Y012839D01*
X024136Y020444D02*
X024418Y020444D01*
X024143Y020759D02*
X024412Y020759D01*
X024148Y012524D02*
X024406Y012524D01*
X024148Y012794D02*
X024406Y012794D01*
X024153Y020489D02*
X024401Y020489D01*
X024158Y020714D02*
X024396Y020714D01*
X024162Y012569D02*
X024392Y012569D01*
X024162Y012749D02*
X024392Y012749D01*
X024165Y020534D02*
X024389Y020534D01*
X024168Y020669D02*
X024387Y020669D01*
X024169Y012614D02*
X024385Y012614D01*
X024170Y012704D02*
X024385Y012704D01*
X024171Y020579D02*
X024383Y020579D01*
X024172Y020624D02*
X024382Y020624D01*
X024172Y012659D02*
X024382Y012659D01*
X022110Y032639D02*
X024377Y032639D01*
X022151Y032684D02*
X024336Y032684D01*
X022186Y032729D02*
X024301Y032729D01*
X022215Y032774D02*
X024272Y032774D01*
X022239Y032819D02*
X024248Y032819D01*
X022902Y020984D02*
X023653Y020984D01*
X022939Y012299D02*
X023615Y012299D01*
X022940Y013019D02*
X023614Y013019D01*
X022994Y020939D02*
X023560Y020939D01*
X023015Y012344D02*
X023539Y012344D01*
X023016Y012974D02*
X023539Y012974D01*
X023051Y020894D02*
X023503Y020894D01*
X023065Y012389D02*
X023489Y012389D01*
X023066Y012929D02*
X023489Y012929D01*
X023082Y020354D02*
X023472Y020354D01*
X023091Y020849D02*
X023463Y020849D01*
X023102Y012434D02*
X023452Y012434D01*
X023102Y012884D02*
X023452Y012884D01*
X023112Y020399D02*
X023443Y020399D01*
X023121Y020804D02*
X023433Y020804D01*
X023129Y012479D02*
X023426Y012479D01*
X023129Y012839D02*
X023425Y012839D01*
X023136Y020444D02*
X023418Y020444D01*
X023143Y020759D02*
X023412Y020759D01*
X023148Y012524D02*
X023406Y012524D01*
X023148Y012794D02*
X023406Y012794D01*
X023153Y020489D02*
X023401Y020489D01*
X023158Y020714D02*
X023396Y020714D01*
X023162Y012569D02*
X023392Y012569D01*
X023162Y012749D02*
X023392Y012749D01*
X023165Y020534D02*
X023389Y020534D01*
X023168Y020669D02*
X023387Y020669D01*
X023169Y012614D02*
X023385Y012614D01*
X023170Y012704D02*
X023385Y012704D01*
X023171Y020579D02*
X023383Y020579D01*
X023172Y020624D02*
X023382Y020624D01*
X023172Y012659D02*
X023382Y012659D01*
X022963Y027689D02*
X023122Y027689D01*
X022967Y027644D02*
X023122Y027644D01*
X022961Y027599D02*
X023122Y027599D01*
X022945Y027554D02*
X023122Y027554D01*
X022917Y027509D02*
X023122Y027509D01*
X022866Y027464D02*
X023122Y027464D01*
X020955Y027419D02*
X023122Y027419D01*
X021081Y027374D02*
X023122Y027374D01*
X021125Y027329D02*
X023122Y027329D01*
X021150Y027284D02*
X023122Y027284D01*
X021163Y027239D02*
X023122Y027239D01*
X021167Y027194D02*
X023122Y027194D01*
X021161Y027149D02*
X023122Y027149D01*
X021145Y027104D02*
X023122Y027104D01*
X021117Y027059D02*
X023122Y027059D01*
X021066Y027014D02*
X023122Y027014D01*
X018822Y026969D02*
X023122Y026969D01*
X018822Y026924D02*
X023122Y026924D01*
X018822Y026879D02*
X023122Y026879D01*
X018822Y026834D02*
X023122Y026834D01*
X018822Y026789D02*
X023122Y026789D01*
X018822Y026744D02*
X023122Y026744D01*
X018822Y026699D02*
X023122Y026699D01*
X018822Y026654D02*
X023122Y026654D01*
X018822Y026609D02*
X023122Y026609D01*
X018822Y026564D02*
X023122Y026564D01*
X018822Y026519D02*
X023122Y026519D01*
X018822Y026474D02*
X023122Y026474D01*
X018822Y026429D02*
X023122Y026429D01*
X018822Y026384D02*
X023122Y026384D01*
X018822Y026339D02*
X023122Y026339D01*
X018822Y026294D02*
X023122Y026294D01*
X018822Y026249D02*
X023122Y026249D01*
X018822Y026204D02*
X023122Y026204D01*
X018822Y026159D02*
X023122Y026159D01*
X018822Y026114D02*
X023122Y026114D01*
X018822Y026069D02*
X023122Y026069D01*
X018822Y026024D02*
X023122Y026024D01*
X018822Y025979D02*
X023122Y025979D01*
X018822Y025934D02*
X023122Y025934D01*
X018822Y025889D02*
X023122Y025889D01*
X018822Y025844D02*
X023122Y025844D01*
X018822Y025799D02*
X023122Y025799D01*
X018822Y025754D02*
X023122Y025754D01*
X018822Y025709D02*
X023122Y025709D01*
X018822Y025664D02*
X023122Y025664D01*
X017173Y025619D02*
X023122Y025619D01*
X010668Y025574D02*
X023122Y025574D01*
X010668Y025529D02*
X023122Y025529D01*
X020001Y025484D02*
X023122Y025484D01*
X020127Y025439D02*
X023122Y025439D01*
X020171Y025394D02*
X023122Y025394D01*
X020196Y025349D02*
X023122Y025349D01*
X020210Y025304D02*
X023122Y025304D01*
X020213Y025259D02*
X023122Y025259D01*
X020207Y025214D02*
X023122Y025214D01*
X020192Y025169D02*
X023122Y025169D01*
X020163Y025124D02*
X023122Y025124D01*
X020112Y025079D02*
X023122Y025079D01*
X017093Y025034D02*
X023122Y025034D01*
X010668Y024989D02*
X023122Y024989D01*
X017899Y024944D02*
X023122Y024944D01*
X017958Y024899D02*
X023122Y024899D01*
X018822Y027869D02*
X022739Y027869D01*
X021902Y020984D02*
X022653Y020984D01*
X018822Y027464D02*
X022628Y027464D01*
X021939Y012299D02*
X022615Y012299D01*
X021940Y013019D02*
X022614Y013019D01*
X018822Y027824D02*
X022614Y027824D01*
X018822Y027509D02*
X022577Y027509D01*
X018822Y027779D02*
X022569Y027779D01*
X021994Y020939D02*
X022560Y020939D01*
X018822Y027554D02*
X022549Y027554D01*
X018822Y027734D02*
X022544Y027734D01*
X022015Y012344D02*
X022539Y012344D01*
X022016Y012974D02*
X022539Y012974D01*
X018822Y027599D02*
X022533Y027599D01*
X018822Y027689D02*
X022531Y027689D01*
X018822Y027644D02*
X022527Y027644D01*
X022051Y020894D02*
X022503Y020894D01*
X022065Y012389D02*
X022489Y012389D01*
X022066Y012929D02*
X022489Y012929D01*
X022082Y020354D02*
X022472Y020354D01*
X022091Y020849D02*
X022463Y020849D01*
X022102Y012434D02*
X022452Y012434D01*
X022102Y012884D02*
X022452Y012884D01*
X022112Y020399D02*
X022443Y020399D01*
X022121Y020804D02*
X022433Y020804D01*
X022129Y012479D02*
X022426Y012479D01*
X022129Y012839D02*
X022425Y012839D01*
X022136Y020444D02*
X022418Y020444D01*
X022143Y020759D02*
X022412Y020759D01*
X022148Y012524D02*
X022406Y012524D01*
X022148Y012794D02*
X022406Y012794D01*
X022153Y020489D02*
X022401Y020489D01*
X022158Y020714D02*
X022396Y020714D01*
X022162Y012569D02*
X022392Y012569D01*
X022162Y012749D02*
X022392Y012749D01*
X022165Y020534D02*
X022389Y020534D01*
X022168Y020669D02*
X022387Y020669D01*
X022169Y012614D02*
X022385Y012614D01*
X022170Y012704D02*
X022385Y012704D01*
X022171Y020579D02*
X022383Y020579D01*
X022172Y020624D02*
X022382Y020624D01*
X022172Y012659D02*
X022382Y012659D01*
X020617Y022604D02*
X022319Y022604D01*
X019718Y021704D02*
X022319Y021704D01*
X019718Y022199D02*
X022308Y022199D01*
X019718Y021299D02*
X022308Y021299D01*
X020613Y022559D02*
X022248Y022559D01*
X019718Y021659D02*
X022248Y021659D01*
X019718Y022244D02*
X022244Y022244D01*
X019718Y021344D02*
X022244Y021344D01*
X020600Y022514D02*
X022212Y022514D01*
X019718Y021614D02*
X022212Y021614D01*
X019718Y022289D02*
X022209Y022289D01*
X019718Y021389D02*
X022209Y021389D01*
X020574Y022469D02*
X022191Y022469D01*
X019718Y021569D02*
X022191Y021569D01*
X019718Y022334D02*
X022189Y022334D01*
X019718Y021434D02*
X022189Y021434D01*
X020530Y022424D02*
X022181Y022424D01*
X019718Y021524D02*
X022181Y021524D01*
X019718Y022379D02*
X022180Y022379D01*
X019718Y021479D02*
X022180Y021479D01*
X017990Y024854D02*
X022072Y024854D01*
X018009Y024809D02*
X022072Y024809D01*
X018017Y024764D02*
X022072Y024764D01*
X018015Y024719D02*
X022072Y024719D01*
X018004Y024674D02*
X022072Y024674D01*
X017981Y024629D02*
X022072Y024629D01*
X017942Y024584D02*
X022072Y024584D01*
X017862Y024539D02*
X022072Y024539D01*
X010668Y024494D02*
X022072Y024494D01*
X010668Y024449D02*
X022072Y024449D01*
X017827Y024404D02*
X022072Y024404D01*
X017898Y024359D02*
X022072Y024359D01*
X020335Y024314D02*
X022072Y024314D01*
X020399Y024269D02*
X022072Y024269D01*
X020434Y024224D02*
X022072Y024224D01*
X020453Y024179D02*
X022072Y024179D01*
X020462Y024134D02*
X022072Y024134D01*
X020462Y024089D02*
X022072Y024089D01*
X020452Y024044D02*
X022072Y024044D01*
X020431Y023999D02*
X022072Y023999D01*
X020394Y023954D02*
X022072Y023954D01*
X020323Y023909D02*
X022072Y023909D01*
X019718Y023864D02*
X022072Y023864D01*
X019718Y023819D02*
X022072Y023819D01*
X019718Y023774D02*
X022072Y023774D01*
X019718Y023729D02*
X022072Y023729D01*
X019718Y023684D02*
X022072Y023684D01*
X019718Y023639D02*
X022072Y023639D01*
X019718Y023594D02*
X022072Y023594D01*
X019718Y023549D02*
X022072Y023549D01*
X019718Y023504D02*
X022072Y023504D01*
X019718Y023459D02*
X022072Y023459D01*
X019718Y023414D02*
X022072Y023414D01*
X019718Y023369D02*
X022072Y023369D01*
X019718Y023324D02*
X022072Y023324D01*
X019718Y023279D02*
X022072Y023279D01*
X019718Y023234D02*
X022072Y023234D01*
X019718Y023189D02*
X022072Y023189D01*
X019718Y023144D02*
X022072Y023144D01*
X019718Y023099D02*
X022072Y023099D01*
X019718Y023054D02*
X022072Y023054D01*
X019718Y023009D02*
X022072Y023009D01*
X019718Y022964D02*
X022072Y022964D01*
X020902Y020984D02*
X021653Y020984D01*
X020939Y012299D02*
X021615Y012299D01*
X020940Y013019D02*
X021614Y013019D01*
X020994Y020939D02*
X021560Y020939D01*
X021015Y012344D02*
X021539Y012344D01*
X021016Y012974D02*
X021539Y012974D01*
X015084Y032459D02*
X021505Y032459D01*
X021051Y020894D02*
X021503Y020894D01*
X021065Y012389D02*
X021489Y012389D01*
X021066Y012929D02*
X021489Y012929D01*
X021082Y020354D02*
X021472Y020354D01*
X021091Y020849D02*
X021463Y020849D01*
X021102Y012434D02*
X021452Y012434D01*
X021102Y012884D02*
X021452Y012884D01*
X021112Y020399D02*
X021443Y020399D01*
X021121Y020804D02*
X021433Y020804D01*
X021129Y012479D02*
X021426Y012479D01*
X021129Y012839D02*
X021425Y012839D01*
X021136Y020444D02*
X021418Y020444D01*
X021143Y020759D02*
X021412Y020759D01*
X021148Y012524D02*
X021406Y012524D01*
X021148Y012794D02*
X021406Y012794D01*
X021153Y020489D02*
X021401Y020489D01*
X021158Y020714D02*
X021396Y020714D01*
X021162Y012569D02*
X021392Y012569D01*
X021162Y012749D02*
X021392Y012749D01*
X021165Y020534D02*
X021389Y020534D01*
X021168Y020669D02*
X021387Y020669D01*
X021169Y012614D02*
X021385Y012614D01*
X021170Y012704D02*
X021385Y012704D01*
X021171Y020579D02*
X021383Y020579D01*
X021172Y020624D02*
X021382Y020624D01*
X021172Y012659D02*
X021382Y012659D01*
X015051Y032504D02*
X021366Y032504D01*
X015007Y032549D02*
X021282Y032549D01*
X014942Y032594D02*
X021219Y032594D01*
X014813Y032639D02*
X021169Y032639D01*
X010668Y032684D02*
X021127Y032684D01*
X010668Y032729D02*
X021093Y032729D01*
X010668Y032774D02*
X021064Y032774D01*
X010669Y032819D02*
X021039Y032819D01*
X018822Y027419D02*
X020939Y027419D01*
X018822Y027014D02*
X020828Y027014D01*
X018822Y027374D02*
X020814Y027374D01*
X018822Y027059D02*
X020777Y027059D01*
X018822Y027329D02*
X020769Y027329D01*
X018822Y027104D02*
X020749Y027104D01*
X018822Y027284D02*
X020744Y027284D01*
X018822Y027149D02*
X020733Y027149D01*
X018822Y027239D02*
X020731Y027239D01*
X018822Y027194D02*
X020727Y027194D01*
X019902Y020984D02*
X020653Y020984D01*
X019939Y012299D02*
X020615Y012299D01*
X019940Y013019D02*
X020614Y013019D01*
X019994Y020939D02*
X020560Y020939D01*
X020015Y012344D02*
X020539Y012344D01*
X020016Y012974D02*
X020539Y012974D01*
X020051Y020894D02*
X020503Y020894D01*
X020065Y012389D02*
X020489Y012389D01*
X020066Y012929D02*
X020489Y012929D01*
X020082Y020354D02*
X020472Y020354D01*
X020091Y020849D02*
X020463Y020849D01*
X020102Y012434D02*
X020452Y012434D01*
X020102Y012884D02*
X020452Y012884D01*
X020112Y020399D02*
X020443Y020399D01*
X020121Y020804D02*
X020433Y020804D01*
X020129Y012479D02*
X020426Y012479D01*
X020129Y012839D02*
X020425Y012839D01*
X020136Y020444D02*
X020418Y020444D01*
X020143Y020759D02*
X020412Y020759D01*
X020148Y012524D02*
X020406Y012524D01*
X020148Y012794D02*
X020406Y012794D01*
X020153Y020489D02*
X020401Y020489D01*
X020158Y020714D02*
X020396Y020714D01*
X020162Y012569D02*
X020392Y012569D01*
X020162Y012749D02*
X020392Y012749D01*
X020165Y020534D02*
X020389Y020534D01*
X020168Y020669D02*
X020387Y020669D01*
X020169Y012614D02*
X020385Y012614D01*
X020170Y012704D02*
X020385Y012704D01*
X020171Y020579D02*
X020383Y020579D01*
X020172Y020624D02*
X020382Y020624D01*
X020172Y012659D02*
X020382Y012659D01*
X019718Y022784D02*
X020278Y022784D01*
X019718Y022424D02*
X020264Y022424D01*
X019718Y022739D02*
X020227Y022739D01*
X019718Y022469D02*
X020220Y022469D01*
X019718Y022694D02*
X020199Y022694D01*
X019718Y022514D02*
X020194Y022514D01*
X019718Y022649D02*
X020183Y022649D01*
X019718Y022559D02*
X020181Y022559D01*
X019718Y022604D02*
X020177Y022604D01*
X019718Y023909D02*
X020164Y023909D01*
X019718Y024314D02*
X020151Y024314D01*
X019718Y023954D02*
X020092Y023954D01*
X019718Y024269D02*
X020087Y024269D01*
X019718Y023999D02*
X020056Y023999D01*
X019718Y024224D02*
X020053Y024224D01*
X019718Y024044D02*
X020035Y024044D01*
X019718Y024179D02*
X020033Y024179D01*
X019718Y024089D02*
X020025Y024089D01*
X019718Y024134D02*
X020024Y024134D01*
X019651Y025484D02*
X019986Y025484D01*
X019444Y031514D02*
X019900Y031514D01*
X019762Y025079D02*
X019874Y025079D01*
X019777Y025439D02*
X019860Y025439D01*
X019537Y031469D02*
X019807Y031469D01*
X019578Y031424D02*
X019766Y031424D01*
X019606Y031379D02*
X019738Y031379D01*
X018902Y020984D02*
X019653Y020984D01*
X010668Y025484D02*
X019636Y025484D01*
X019574Y018734D02*
X019628Y018734D01*
X018939Y012299D02*
X019615Y012299D01*
X018940Y013019D02*
X019614Y013019D01*
X019580Y018374D02*
X019614Y018374D01*
X018994Y020939D02*
X019560Y020939D01*
X019015Y012344D02*
X019539Y012344D01*
X019016Y012974D02*
X019539Y012974D01*
X017187Y025079D02*
X019524Y025079D01*
X017158Y025439D02*
X019510Y025439D01*
X019051Y020894D02*
X019503Y020894D01*
X019065Y012389D02*
X019489Y012389D01*
X019066Y012929D02*
X019489Y012929D01*
X017228Y025124D02*
X019474Y025124D01*
X019082Y020354D02*
X019472Y020354D01*
X017213Y025394D02*
X019466Y025394D01*
X019091Y020849D02*
X019463Y020849D01*
X019102Y012434D02*
X019452Y012434D01*
X019102Y012884D02*
X019452Y012884D01*
X017252Y025169D02*
X019445Y025169D01*
X019112Y020399D02*
X019443Y020399D01*
X017243Y025349D02*
X019440Y025349D01*
X019121Y020804D02*
X019433Y020804D01*
X017264Y025214D02*
X019429Y025214D01*
X017260Y025304D02*
X019427Y025304D01*
X019129Y012479D02*
X019426Y012479D01*
X019129Y012839D02*
X019425Y012839D01*
X017267Y025259D02*
X019423Y025259D01*
X019136Y020444D02*
X019418Y020444D01*
X019143Y020759D02*
X019412Y020759D01*
X019148Y012524D02*
X019406Y012524D01*
X019148Y012794D02*
X019406Y012794D01*
X019153Y020489D02*
X019401Y020489D01*
X019158Y020714D02*
X019396Y020714D01*
X019162Y012569D02*
X019392Y012569D01*
X019162Y012749D02*
X019392Y012749D01*
X019165Y020534D02*
X019389Y020534D01*
X019168Y020669D02*
X019387Y020669D01*
X019169Y012614D02*
X019385Y012614D01*
X019170Y012704D02*
X019385Y012704D01*
X019171Y020579D02*
X019383Y020579D01*
X019172Y020624D02*
X019382Y020624D01*
X019172Y012659D02*
X019382Y012659D01*
X010668Y031514D02*
X019350Y031514D01*
X014107Y031469D02*
X019257Y031469D01*
X014233Y031424D02*
X019216Y031424D01*
X014277Y031379D02*
X019188Y031379D01*
X018472Y020984D02*
X018653Y020984D01*
X017939Y012299D02*
X018615Y012299D01*
X017940Y013019D02*
X018614Y013019D01*
X018472Y020939D02*
X018560Y020939D01*
X018015Y012344D02*
X018539Y012344D01*
X018016Y012974D02*
X018539Y012974D01*
X018065Y012389D02*
X018489Y012389D01*
X018066Y012929D02*
X018489Y012929D01*
X018102Y012434D02*
X018452Y012434D01*
X018102Y012884D02*
X018452Y012884D01*
X018129Y012479D02*
X018426Y012479D01*
X018129Y012839D02*
X018425Y012839D01*
X018148Y012524D02*
X018406Y012524D01*
X018148Y012794D02*
X018406Y012794D01*
X018162Y012569D02*
X018392Y012569D01*
X018162Y012749D02*
X018392Y012749D01*
X018169Y012614D02*
X018385Y012614D01*
X018170Y012704D02*
X018385Y012704D01*
X018172Y012659D02*
X018382Y012659D01*
X010668Y024539D02*
X017732Y024539D01*
X010668Y024944D02*
X017695Y024944D01*
X010668Y024404D02*
X017667Y024404D01*
X010668Y024584D02*
X017652Y024584D01*
X010668Y024899D02*
X017636Y024899D01*
X016939Y012299D02*
X017615Y012299D01*
X016940Y013019D02*
X017614Y013019D01*
X010668Y024629D02*
X017613Y024629D01*
X010668Y024854D02*
X017604Y024854D01*
X010668Y024359D02*
X017596Y024359D01*
X010668Y024674D02*
X017590Y024674D01*
X010668Y024809D02*
X017585Y024809D01*
X010668Y024719D02*
X017579Y024719D01*
X010668Y024764D02*
X017578Y024764D01*
X017015Y012344D02*
X017539Y012344D01*
X017016Y012974D02*
X017539Y012974D01*
X017065Y012389D02*
X017489Y012389D01*
X017066Y012929D02*
X017489Y012929D01*
X017102Y012434D02*
X017452Y012434D01*
X017102Y012884D02*
X017452Y012884D01*
X017129Y012479D02*
X017426Y012479D01*
X017129Y012839D02*
X017425Y012839D01*
X017148Y012524D02*
X017406Y012524D01*
X017148Y012794D02*
X017406Y012794D01*
X017162Y012569D02*
X017392Y012569D01*
X017162Y012749D02*
X017392Y012749D01*
X017169Y012614D02*
X017385Y012614D01*
X017170Y012704D02*
X017385Y012704D01*
X017172Y012659D02*
X017382Y012659D01*
X010668Y016709D02*
X017031Y016709D01*
X010668Y025034D02*
X017001Y025034D01*
X010668Y016304D02*
X016995Y016304D01*
X010668Y016664D02*
X016951Y016664D01*
X010668Y016349D02*
X016936Y016349D01*
X010668Y025439D02*
X016936Y025439D01*
X010668Y025619D02*
X016921Y025619D01*
X010668Y016619D02*
X016913Y016619D01*
X010668Y025079D02*
X016908Y025079D01*
X010668Y016394D02*
X016904Y016394D01*
X010668Y016574D02*
X016890Y016574D01*
X010668Y016439D02*
X016885Y016439D01*
X010668Y025394D02*
X016881Y025394D01*
X010668Y016529D02*
X016879Y016529D01*
X010668Y016484D02*
X016878Y016484D01*
X010668Y025124D02*
X016866Y025124D01*
X010668Y025349D02*
X016851Y025349D01*
X010668Y025169D02*
X016842Y025169D01*
X010668Y025304D02*
X016834Y025304D01*
X010668Y025214D02*
X016830Y025214D01*
X010668Y025259D02*
X016827Y025259D01*
X010668Y024314D02*
X016668Y024314D01*
X010668Y024269D02*
X016668Y024269D01*
X010668Y024224D02*
X016668Y024224D01*
X010668Y024179D02*
X016668Y024179D01*
X010668Y024134D02*
X016668Y024134D01*
X010668Y024089D02*
X016668Y024089D01*
X010668Y024044D02*
X016668Y024044D01*
X010668Y023999D02*
X016668Y023999D01*
X010668Y023954D02*
X016668Y023954D01*
X010668Y023909D02*
X016668Y023909D01*
X010668Y023864D02*
X016668Y023864D01*
X010668Y023819D02*
X016668Y023819D01*
X010668Y023774D02*
X016668Y023774D01*
X010668Y023729D02*
X016668Y023729D01*
X010668Y023684D02*
X016668Y023684D01*
X010668Y023639D02*
X016668Y023639D01*
X010668Y023594D02*
X016668Y023594D01*
X010668Y023549D02*
X016668Y023549D01*
X010668Y023504D02*
X016668Y023504D01*
X010668Y023459D02*
X016668Y023459D01*
X010668Y023414D02*
X016668Y023414D01*
X010668Y023369D02*
X016668Y023369D01*
X010668Y023324D02*
X016668Y023324D01*
X010668Y023279D02*
X016668Y023279D01*
X010668Y023234D02*
X016668Y023234D01*
X010668Y023189D02*
X016668Y023189D01*
X010668Y023144D02*
X016668Y023144D01*
X010668Y023099D02*
X016668Y023099D01*
X010668Y023054D02*
X016668Y023054D01*
X010668Y023009D02*
X016668Y023009D01*
X010668Y022964D02*
X016668Y022964D01*
X010668Y022919D02*
X016668Y022919D01*
X010668Y022874D02*
X016668Y022874D01*
X010668Y022829D02*
X016668Y022829D01*
X010668Y022784D02*
X016668Y022784D01*
X010668Y022739D02*
X016668Y022739D01*
X010668Y022694D02*
X016668Y022694D01*
X010668Y022649D02*
X016668Y022649D01*
X010668Y022604D02*
X016668Y022604D01*
X010668Y022559D02*
X016668Y022559D01*
X010668Y022514D02*
X016668Y022514D01*
X010668Y022469D02*
X016668Y022469D01*
X010668Y022424D02*
X016668Y022424D01*
X010668Y022379D02*
X016668Y022379D01*
X010668Y022334D02*
X016668Y022334D01*
X010668Y022289D02*
X016668Y022289D01*
X010668Y022244D02*
X016668Y022244D01*
X010668Y022199D02*
X016668Y022199D01*
X010668Y022154D02*
X016668Y022154D01*
X010668Y022109D02*
X016668Y022109D01*
X010668Y022064D02*
X016668Y022064D01*
X010668Y022019D02*
X016668Y022019D01*
X010668Y021974D02*
X016668Y021974D01*
X010668Y021929D02*
X016668Y021929D01*
X010668Y021884D02*
X016668Y021884D01*
X010668Y021839D02*
X016668Y021839D01*
X010668Y021794D02*
X016668Y021794D01*
X010668Y021749D02*
X016668Y021749D01*
X010668Y021704D02*
X016668Y021704D01*
X010668Y021659D02*
X016668Y021659D01*
X010668Y021614D02*
X016668Y021614D01*
X010668Y021569D02*
X016668Y021569D01*
X010668Y021524D02*
X016668Y021524D01*
X010668Y021479D02*
X016668Y021479D01*
X010666Y021434D02*
X016668Y021434D01*
X010659Y021389D02*
X016668Y021389D01*
X010647Y021344D02*
X016668Y021344D01*
X010630Y021299D02*
X016668Y021299D01*
X010622Y021254D02*
X016668Y021254D01*
X010622Y021209D02*
X016668Y021209D01*
X010622Y021164D02*
X016668Y021164D01*
X010622Y021119D02*
X016668Y021119D01*
X010622Y021074D02*
X016668Y021074D01*
X010622Y021029D02*
X016668Y021029D01*
X010668Y020174D02*
X016668Y020174D01*
X010668Y020129D02*
X016668Y020129D01*
X010668Y020084D02*
X016668Y020084D01*
X010668Y020039D02*
X016668Y020039D01*
X010668Y019994D02*
X016668Y019994D01*
X010668Y019949D02*
X016668Y019949D01*
X010668Y019904D02*
X016668Y019904D01*
X010668Y019859D02*
X016668Y019859D01*
X010668Y019814D02*
X016668Y019814D01*
X010668Y019769D02*
X016668Y019769D01*
X010668Y019724D02*
X016668Y019724D01*
X010668Y019679D02*
X016668Y019679D01*
X010668Y019634D02*
X016668Y019634D01*
X010668Y019589D02*
X016668Y019589D01*
X010668Y019544D02*
X016668Y019544D01*
X010668Y019499D02*
X016668Y019499D01*
X010668Y019454D02*
X016668Y019454D01*
X010668Y019409D02*
X016668Y019409D01*
X010668Y019364D02*
X016668Y019364D01*
X010668Y019319D02*
X016668Y019319D01*
X010668Y019274D02*
X016668Y019274D01*
X010668Y019229D02*
X016668Y019229D01*
X010668Y019184D02*
X016668Y019184D01*
X010668Y019139D02*
X016668Y019139D01*
X010668Y019094D02*
X016668Y019094D01*
X010668Y019049D02*
X016668Y019049D01*
X010668Y019004D02*
X016668Y019004D01*
X010668Y018959D02*
X016668Y018959D01*
X010668Y018914D02*
X016668Y018914D01*
X010668Y018869D02*
X016668Y018869D01*
X010668Y018824D02*
X016668Y018824D01*
X010668Y018779D02*
X016668Y018779D01*
X010668Y018734D02*
X016668Y018734D01*
X010668Y018689D02*
X016668Y018689D01*
X010668Y018644D02*
X016668Y018644D01*
X010668Y018599D02*
X016668Y018599D01*
X010706Y018554D02*
X016668Y018554D01*
X010773Y018509D02*
X016668Y018509D01*
X010812Y018464D02*
X016668Y018464D01*
X010837Y018419D02*
X016668Y018419D01*
X010851Y018374D02*
X016668Y018374D01*
X015024Y018329D02*
X016668Y018329D01*
X015071Y018284D02*
X016668Y018284D01*
X015098Y018239D02*
X016668Y018239D01*
X015112Y018194D02*
X016668Y018194D01*
X015117Y018149D02*
X016668Y018149D01*
X015112Y018104D02*
X016668Y018104D01*
X015098Y018059D02*
X016668Y018059D01*
X016194Y018014D02*
X016668Y018014D01*
X016287Y017969D02*
X016668Y017969D01*
X016328Y017924D02*
X016668Y017924D01*
X016352Y017879D02*
X016668Y017879D01*
X016364Y017834D02*
X016668Y017834D01*
X016367Y017789D02*
X016668Y017789D01*
X016360Y017744D02*
X016668Y017744D01*
X016343Y017699D02*
X016668Y017699D01*
X016312Y017654D02*
X016668Y017654D01*
X016258Y017609D02*
X016668Y017609D01*
X014793Y017564D02*
X016668Y017564D01*
X014832Y017519D02*
X016668Y017519D01*
X014854Y017474D02*
X016668Y017474D01*
X014865Y017429D02*
X016668Y017429D01*
X014867Y017384D02*
X016668Y017384D01*
X014859Y017339D02*
X016668Y017339D01*
X014840Y017294D02*
X016668Y017294D01*
X014808Y017249D02*
X016668Y017249D01*
X014749Y017204D02*
X016668Y017204D01*
X010854Y017159D02*
X016668Y017159D01*
X010858Y017114D02*
X016668Y017114D01*
X015839Y020219D02*
X016667Y020219D01*
X015902Y020984D02*
X016652Y020984D01*
X015939Y012299D02*
X016615Y012299D01*
X015940Y013019D02*
X016614Y013019D01*
X015969Y020264D02*
X016585Y020264D01*
X015994Y020939D02*
X016560Y020939D01*
X016015Y012344D02*
X016539Y012344D01*
X016016Y012974D02*
X016539Y012974D01*
X016034Y020309D02*
X016520Y020309D01*
X016051Y020894D02*
X016503Y020894D01*
X016065Y012389D02*
X016489Y012389D01*
X016066Y012929D02*
X016489Y012929D01*
X016079Y020354D02*
X016476Y020354D01*
X016091Y020849D02*
X016463Y020849D01*
X016102Y012434D02*
X016452Y012434D01*
X016102Y012884D02*
X016452Y012884D01*
X016112Y020399D02*
X016443Y020399D01*
X016121Y020804D02*
X016433Y020804D01*
X016129Y012479D02*
X016426Y012479D01*
X016129Y012839D02*
X016425Y012839D01*
X016136Y020444D02*
X016418Y020444D01*
X016143Y020759D02*
X016412Y020759D01*
X016148Y012524D02*
X016406Y012524D01*
X016148Y012794D02*
X016406Y012794D01*
X016153Y020489D02*
X016401Y020489D01*
X016158Y020714D02*
X016396Y020714D01*
X016162Y012569D02*
X016392Y012569D01*
X016162Y012749D02*
X016392Y012749D01*
X016165Y020534D02*
X016389Y020534D01*
X016168Y020669D02*
X016387Y020669D01*
X016169Y012614D02*
X016385Y012614D01*
X016170Y012704D02*
X016385Y012704D01*
X016171Y020579D02*
X016383Y020579D01*
X016172Y020624D02*
X016382Y020624D01*
X016172Y012659D02*
X016382Y012659D01*
X014303Y031334D02*
X016318Y031334D01*
X014316Y031289D02*
X016318Y031289D01*
X014319Y031244D02*
X016318Y031244D01*
X014314Y031199D02*
X016318Y031199D01*
X014298Y031154D02*
X016318Y031154D01*
X014269Y031109D02*
X016318Y031109D01*
X014218Y031064D02*
X016318Y031064D01*
X015757Y031019D02*
X016318Y031019D01*
X015883Y030974D02*
X016318Y030974D01*
X015927Y030929D02*
X016318Y030929D01*
X015953Y030884D02*
X016318Y030884D01*
X015966Y030839D02*
X016318Y030839D01*
X015969Y030794D02*
X016318Y030794D01*
X015964Y030749D02*
X016318Y030749D01*
X015948Y030704D02*
X016318Y030704D01*
X015919Y030659D02*
X016318Y030659D01*
X015868Y030614D02*
X016318Y030614D01*
X010668Y030569D02*
X016318Y030569D01*
X010668Y030524D02*
X016318Y030524D01*
X010668Y030479D02*
X016318Y030479D01*
X010668Y030434D02*
X016318Y030434D01*
X010668Y030389D02*
X016318Y030389D01*
X010668Y030344D02*
X016318Y030344D01*
X010668Y030299D02*
X016318Y030299D01*
X010668Y030254D02*
X016318Y030254D01*
X010668Y030209D02*
X016318Y030209D01*
X010668Y030164D02*
X016318Y030164D01*
X010668Y030119D02*
X016318Y030119D01*
X010668Y030074D02*
X016318Y030074D01*
X010668Y030029D02*
X016318Y030029D01*
X010668Y029984D02*
X016318Y029984D01*
X010668Y029939D02*
X016318Y029939D01*
X010668Y029894D02*
X016318Y029894D01*
X010668Y029849D02*
X016318Y029849D01*
X010668Y029804D02*
X016318Y029804D01*
X010668Y029759D02*
X016318Y029759D01*
X010668Y029714D02*
X016318Y029714D01*
X010668Y029669D02*
X016318Y029669D01*
X010668Y029624D02*
X016318Y029624D01*
X010668Y029579D02*
X016318Y029579D01*
X010668Y029534D02*
X016318Y029534D01*
X010668Y029489D02*
X016318Y029489D01*
X010668Y029444D02*
X016318Y029444D01*
X010668Y029399D02*
X016318Y029399D01*
X010668Y029354D02*
X016318Y029354D01*
X010668Y029309D02*
X016318Y029309D01*
X010682Y029264D02*
X016318Y029264D01*
X010761Y029219D02*
X016318Y029219D01*
X010805Y029174D02*
X016318Y029174D01*
X010832Y029129D02*
X016318Y029129D01*
X010849Y029084D02*
X016318Y029084D01*
X010857Y029039D02*
X016318Y029039D01*
X010857Y028994D02*
X016318Y028994D01*
X010850Y028949D02*
X016318Y028949D01*
X010834Y028904D02*
X016318Y028904D01*
X010808Y028859D02*
X016318Y028859D01*
X010778Y028814D02*
X016318Y028814D01*
X010808Y028769D02*
X016318Y028769D01*
X010834Y028724D02*
X016318Y028724D01*
X010850Y028679D02*
X016318Y028679D01*
X010858Y028634D02*
X016318Y028634D01*
X010857Y028589D02*
X016318Y028589D01*
X010849Y028544D02*
X016318Y028544D01*
X010832Y028499D02*
X016318Y028499D01*
X010804Y028454D02*
X016318Y028454D01*
X010779Y028409D02*
X016318Y028409D01*
X010812Y028364D02*
X016318Y028364D01*
X010837Y028319D02*
X016318Y028319D01*
X010851Y028274D02*
X016318Y028274D01*
X010858Y028229D02*
X016318Y028229D01*
X010857Y028184D02*
X016318Y028184D01*
X010847Y028139D02*
X016318Y028139D01*
X010829Y028094D02*
X016318Y028094D01*
X010801Y028049D02*
X016318Y028049D01*
X010780Y028004D02*
X016318Y028004D01*
X010815Y027959D02*
X016318Y027959D01*
X010839Y027914D02*
X016318Y027914D01*
X010853Y027869D02*
X016318Y027869D01*
X010858Y027824D02*
X016318Y027824D01*
X010856Y027779D02*
X016318Y027779D01*
X010846Y027734D02*
X016318Y027734D01*
X010827Y027689D02*
X016318Y027689D01*
X010796Y027644D02*
X016318Y027644D01*
X010748Y027599D02*
X016318Y027599D01*
X010671Y027554D02*
X016318Y027554D01*
X010668Y027509D02*
X016318Y027509D01*
X010668Y027464D02*
X016318Y027464D01*
X010668Y027419D02*
X016318Y027419D01*
X010668Y027374D02*
X016318Y027374D01*
X010668Y027329D02*
X016318Y027329D01*
X010668Y027284D02*
X016318Y027284D01*
X010668Y027239D02*
X016318Y027239D01*
X010668Y027194D02*
X016318Y027194D01*
X010668Y027149D02*
X016318Y027149D01*
X010668Y027104D02*
X016318Y027104D01*
X010668Y027059D02*
X016318Y027059D01*
X010668Y027014D02*
X016318Y027014D01*
X010668Y026969D02*
X016318Y026969D01*
X010668Y026924D02*
X016318Y026924D01*
X010668Y026879D02*
X016318Y026879D01*
X010668Y026834D02*
X016318Y026834D01*
X010668Y026789D02*
X016318Y026789D01*
X010668Y026744D02*
X016318Y026744D01*
X010668Y026699D02*
X016318Y026699D01*
X010668Y026654D02*
X016318Y026654D01*
X010668Y026609D02*
X016318Y026609D01*
X010668Y026564D02*
X016318Y026564D01*
X010668Y026519D02*
X016318Y026519D01*
X010668Y026474D02*
X016318Y026474D01*
X010668Y026429D02*
X016318Y026429D01*
X010668Y026384D02*
X016318Y026384D01*
X010668Y026339D02*
X016318Y026339D01*
X010668Y026294D02*
X016318Y026294D01*
X010668Y026249D02*
X016318Y026249D01*
X010668Y026204D02*
X016318Y026204D01*
X010668Y026159D02*
X016318Y026159D01*
X010668Y026114D02*
X016318Y026114D01*
X010668Y026069D02*
X016318Y026069D01*
X010668Y026024D02*
X016318Y026024D01*
X010668Y025979D02*
X016318Y025979D01*
X010668Y025934D02*
X016318Y025934D01*
X010668Y025889D02*
X016318Y025889D01*
X010668Y025844D02*
X016318Y025844D01*
X010668Y025799D02*
X016318Y025799D01*
X010668Y025754D02*
X016318Y025754D01*
X010668Y025709D02*
X016318Y025709D01*
X010668Y025664D02*
X016318Y025664D01*
X015071Y018014D02*
X016100Y018014D01*
X014713Y017609D02*
X016036Y017609D01*
X015023Y017969D02*
X016007Y017969D01*
X010818Y017654D02*
X015982Y017654D01*
X010858Y017924D02*
X015966Y017924D01*
X010783Y017699D02*
X015951Y017699D01*
X010856Y017879D02*
X015942Y017879D01*
X010796Y017744D02*
X015934Y017744D01*
X010846Y017834D02*
X015930Y017834D01*
X010827Y017789D02*
X015927Y017789D01*
X010668Y031019D02*
X015742Y031019D01*
X010668Y020219D02*
X015715Y020219D01*
X010622Y020984D02*
X015653Y020984D01*
X010668Y030614D02*
X015631Y030614D01*
X010668Y030974D02*
X015616Y030974D01*
X010622Y012299D02*
X015615Y012299D01*
X010668Y013019D02*
X015614Y013019D01*
X010668Y020264D02*
X015585Y020264D01*
X010668Y030659D02*
X015580Y030659D01*
X010668Y030929D02*
X015572Y030929D01*
X010622Y020939D02*
X015560Y020939D01*
X010668Y030704D02*
X015551Y030704D01*
X010668Y030884D02*
X015547Y030884D01*
X010622Y012344D02*
X015539Y012344D01*
X010668Y012974D02*
X015539Y012974D01*
X010668Y030749D02*
X015535Y030749D01*
X010668Y030839D02*
X015533Y030839D01*
X010668Y030794D02*
X015530Y030794D01*
X010668Y020309D02*
X015520Y020309D01*
X010622Y020894D02*
X015503Y020894D01*
X010622Y012389D02*
X015489Y012389D01*
X010668Y012929D02*
X015489Y012929D01*
X010668Y020354D02*
X015476Y020354D01*
X010622Y020849D02*
X015463Y020849D01*
X010622Y012434D02*
X015452Y012434D01*
X010668Y012884D02*
X015452Y012884D01*
X010668Y020399D02*
X015443Y020399D01*
X010622Y020804D02*
X015433Y020804D01*
X010630Y012479D02*
X015426Y012479D01*
X010668Y012839D02*
X015425Y012839D01*
X010668Y020444D02*
X015418Y020444D01*
X010632Y020759D02*
X015412Y020759D01*
X010647Y012524D02*
X015406Y012524D01*
X010668Y012794D02*
X015406Y012794D01*
X010668Y020489D02*
X015401Y020489D01*
X010648Y020714D02*
X015396Y020714D01*
X010658Y012569D02*
X015392Y012569D01*
X010668Y012749D02*
X015392Y012749D01*
X010668Y020534D02*
X015389Y020534D01*
X010659Y020669D02*
X015387Y020669D01*
X010665Y012614D02*
X015385Y012614D01*
X010668Y012704D02*
X015385Y012704D01*
X010668Y020579D02*
X015383Y020579D01*
X010666Y020624D02*
X015382Y020624D01*
X010668Y012659D02*
X015382Y012659D01*
X010853Y017969D02*
X014771Y017969D01*
X010858Y018329D02*
X014770Y018329D01*
X010839Y018014D02*
X014723Y018014D01*
X010857Y018284D02*
X014723Y018284D01*
X010815Y018059D02*
X014696Y018059D01*
X010847Y018239D02*
X014696Y018239D01*
X013813Y032639D02*
X014686Y032639D01*
X010780Y018104D02*
X014682Y018104D01*
X010829Y018194D02*
X014682Y018194D01*
X010801Y018149D02*
X014677Y018149D01*
X013873Y031874D02*
X014626Y031874D01*
X010841Y017609D02*
X014581Y017609D01*
X013942Y032594D02*
X014557Y032594D01*
X010843Y017204D02*
X014545Y017204D01*
X013966Y031919D02*
X014533Y031919D01*
X010854Y017564D02*
X014501Y017564D01*
X014007Y032549D02*
X014492Y032549D01*
X010821Y017249D02*
X014486Y017249D01*
X014023Y031964D02*
X014476Y031964D01*
X010858Y017519D02*
X014463Y017519D01*
X010788Y017294D02*
X014454Y017294D01*
X014051Y032504D02*
X014448Y032504D01*
X010855Y017474D02*
X014440Y017474D01*
X014063Y032009D02*
X014436Y032009D01*
X010792Y017339D02*
X014435Y017339D01*
X010844Y017429D02*
X014429Y017429D01*
X010824Y017384D02*
X014428Y017384D01*
X014084Y032459D02*
X014415Y032459D01*
X014093Y032054D02*
X014406Y032054D01*
X014108Y032414D02*
X014391Y032414D01*
X014115Y032099D02*
X014384Y032099D01*
X014126Y032369D02*
X014373Y032369D01*
X014130Y032144D02*
X014369Y032144D01*
X014137Y032324D02*
X014362Y032324D01*
X014140Y032189D02*
X014359Y032189D01*
X014143Y032279D02*
X014356Y032279D01*
X014144Y032234D02*
X014355Y032234D01*
X011957Y031469D02*
X014092Y031469D01*
X012068Y031064D02*
X013981Y031064D01*
X012083Y031424D02*
X013966Y031424D01*
X012119Y031109D02*
X013930Y031109D01*
X012127Y031379D02*
X013922Y031379D01*
X012148Y031154D02*
X013901Y031154D01*
X012153Y031334D02*
X013897Y031334D01*
X012164Y031199D02*
X013885Y031199D01*
X012166Y031289D02*
X013883Y031289D01*
X012169Y031244D02*
X013880Y031244D01*
X012813Y032639D02*
X013686Y032639D01*
X012873Y031874D02*
X013626Y031874D01*
X012942Y032594D02*
X013557Y032594D01*
X012966Y031919D02*
X013533Y031919D01*
X013007Y032549D02*
X013492Y032549D01*
X013023Y031964D02*
X013476Y031964D01*
X013051Y032504D02*
X013448Y032504D01*
X013063Y032009D02*
X013436Y032009D01*
X013084Y032459D02*
X013415Y032459D01*
X013093Y032054D02*
X013406Y032054D01*
X013108Y032414D02*
X013391Y032414D01*
X013115Y032099D02*
X013384Y032099D01*
X013126Y032369D02*
X013373Y032369D01*
X013130Y032144D02*
X013369Y032144D01*
X013137Y032324D02*
X013362Y032324D01*
X013140Y032189D02*
X013359Y032189D01*
X013143Y032279D02*
X013356Y032279D01*
X013144Y032234D02*
X013355Y032234D01*
X010668Y032639D02*
X012686Y032639D01*
X010668Y031874D02*
X012626Y031874D01*
X010668Y032594D02*
X012557Y032594D01*
X010668Y031919D02*
X012533Y031919D01*
X010668Y032549D02*
X012492Y032549D01*
X010668Y031964D02*
X012476Y031964D01*
X010668Y032504D02*
X012448Y032504D01*
X010668Y032009D02*
X012436Y032009D01*
X010668Y032459D02*
X012415Y032459D01*
X010668Y032054D02*
X012406Y032054D01*
X010668Y032414D02*
X012391Y032414D01*
X010668Y032099D02*
X012384Y032099D01*
X010668Y032369D02*
X012373Y032369D01*
X010668Y032144D02*
X012369Y032144D01*
X010668Y032324D02*
X012362Y032324D01*
X010668Y032189D02*
X012359Y032189D01*
X010668Y032279D02*
X012356Y032279D01*
X010668Y032234D02*
X012355Y032234D01*
X010668Y031469D02*
X011942Y031469D01*
X010668Y031064D02*
X011831Y031064D01*
X010668Y031424D02*
X011816Y031424D01*
X010668Y031109D02*
X011780Y031109D01*
X010668Y031379D02*
X011772Y031379D01*
X010668Y031154D02*
X011751Y031154D01*
X010668Y031334D02*
X011747Y031334D01*
X010668Y031199D02*
X011735Y031199D01*
X010668Y031289D02*
X011733Y031289D01*
X010668Y031244D02*
X011730Y031244D01*
X034944Y025314D02*
X035622Y025314D01*
X035037Y025269D02*
X035622Y025269D01*
X035078Y025224D02*
X035622Y025224D01*
X035102Y025179D02*
X035622Y025179D01*
X035114Y025134D02*
X035622Y025134D01*
X035117Y025089D02*
X035622Y025089D01*
X035110Y025044D02*
X035622Y025044D01*
X035093Y024999D02*
X035622Y024999D01*
X035062Y024954D02*
X035622Y024954D01*
X035008Y024909D02*
X035622Y024909D01*
X029122Y024864D02*
X035622Y024864D01*
X029122Y024819D02*
X035622Y024819D01*
X029122Y024774D02*
X035622Y024774D01*
X029122Y024729D02*
X035622Y024729D01*
X029122Y024684D02*
X035622Y024684D01*
X029122Y024639D02*
X035622Y024639D01*
X029122Y024594D02*
X035622Y024594D01*
X029122Y024549D02*
X035622Y024549D01*
X029122Y024504D02*
X035622Y024504D01*
X029122Y024459D02*
X035622Y024459D01*
X029122Y024414D02*
X035622Y024414D01*
X029122Y024369D02*
X035622Y024369D01*
X026808Y025359D02*
X035620Y025359D01*
X027144Y025314D02*
X034850Y025314D01*
X029122Y024909D02*
X034786Y024909D01*
X027237Y025269D02*
X034757Y025269D01*
X029122Y024954D02*
X034732Y024954D01*
X027278Y025224D02*
X034716Y025224D01*
X027296Y024999D02*
X034701Y024999D01*
X027302Y025179D02*
X034692Y025179D01*
X027310Y025044D02*
X034684Y025044D01*
X027314Y025134D02*
X034680Y025134D01*
X027317Y025089D02*
X034677Y025089D01*
X025822Y026574D02*
X030122Y026574D01*
X025822Y026529D02*
X030122Y026529D01*
X025822Y026484D02*
X030122Y026484D01*
X026908Y026439D02*
X030122Y026439D01*
X026963Y026394D02*
X030122Y026394D01*
X026993Y026349D02*
X030122Y026349D01*
X027010Y026304D02*
X030122Y026304D01*
X027017Y026259D02*
X030122Y026259D01*
X027014Y026214D02*
X030122Y026214D01*
X027002Y026169D02*
X030122Y026169D01*
X026978Y026124D02*
X030122Y026124D01*
X026937Y026079D02*
X030122Y026079D01*
X026843Y026034D02*
X030122Y026034D01*
X025822Y025989D02*
X030122Y025989D01*
X025822Y025944D02*
X030122Y025944D01*
X025822Y025899D02*
X030122Y025899D01*
X025822Y025854D02*
X030122Y025854D01*
X025822Y025809D02*
X030122Y025809D01*
X026744Y025764D02*
X030122Y025764D01*
X026837Y025719D02*
X030122Y025719D01*
X026878Y025674D02*
X030122Y025674D01*
X026902Y025629D02*
X030122Y025629D01*
X026914Y025584D02*
X030122Y025584D01*
X026917Y025539D02*
X030122Y025539D01*
X026910Y025494D02*
X030122Y025494D01*
X026893Y025449D02*
X030122Y025449D01*
X026862Y025404D02*
X030122Y025404D01*
X025822Y026619D02*
X030112Y026619D01*
X021416Y029274D02*
X028672Y029274D01*
X021416Y029229D02*
X028672Y029229D01*
X021407Y029184D02*
X028672Y029184D01*
X021388Y029139D02*
X028672Y029139D01*
X021353Y029094D02*
X028672Y029094D01*
X021288Y029049D02*
X028672Y029049D01*
X016468Y029004D02*
X028672Y029004D01*
X020013Y028959D02*
X028672Y028959D01*
X020093Y028914D02*
X028672Y028914D01*
X020132Y028869D02*
X028672Y028869D01*
X020154Y028824D02*
X028672Y028824D01*
X020165Y028779D02*
X028672Y028779D01*
X020167Y028734D02*
X028672Y028734D01*
X020159Y028689D02*
X028672Y028689D01*
X020146Y028644D02*
X028672Y028644D01*
X025822Y028599D02*
X028672Y028599D01*
X025822Y028554D02*
X028672Y028554D01*
X025822Y028509D02*
X028672Y028509D01*
X025822Y028464D02*
X028672Y028464D01*
X025822Y028419D02*
X028672Y028419D01*
X025822Y028374D02*
X028672Y028374D01*
X025822Y028329D02*
X028672Y028329D01*
X025822Y028284D02*
X028672Y028284D01*
X026908Y028239D02*
X028672Y028239D01*
X026963Y028194D02*
X028672Y028194D01*
X026993Y028149D02*
X028672Y028149D01*
X027010Y028104D02*
X028672Y028104D01*
X027017Y028059D02*
X028672Y028059D01*
X027014Y028014D02*
X028672Y028014D01*
X027002Y027969D02*
X028672Y027969D01*
X026978Y027924D02*
X028672Y027924D01*
X026937Y027879D02*
X028672Y027879D01*
X026843Y027834D02*
X028672Y027834D01*
X025822Y027789D02*
X028672Y027789D01*
X025822Y027744D02*
X028672Y027744D01*
X025822Y027699D02*
X028672Y027699D01*
X025822Y027654D02*
X028672Y027654D01*
X025822Y027609D02*
X028672Y027609D01*
X025822Y027564D02*
X028672Y027564D01*
X025822Y027519D02*
X028672Y027519D01*
X025822Y027474D02*
X028672Y027474D01*
X025822Y027429D02*
X028672Y027429D01*
X025822Y027384D02*
X028672Y027384D01*
X025822Y027339D02*
X028672Y027339D01*
X025822Y027294D02*
X028672Y027294D01*
X025822Y027249D02*
X028672Y027249D01*
X025822Y027204D02*
X028672Y027204D01*
X025822Y027159D02*
X028672Y027159D01*
X025822Y027114D02*
X028672Y027114D01*
X025822Y027069D02*
X028672Y027069D01*
X025822Y027024D02*
X028672Y027024D01*
X025822Y026979D02*
X028672Y026979D01*
X025822Y026934D02*
X028672Y026934D01*
X025822Y026889D02*
X028672Y026889D01*
X025822Y026844D02*
X028672Y026844D01*
X025822Y026799D02*
X028672Y026799D01*
X025822Y026754D02*
X028672Y026754D01*
X025822Y026709D02*
X028672Y026709D01*
X025822Y026664D02*
X028672Y026664D01*
X021406Y029319D02*
X028662Y029319D01*
X026294Y025314D02*
X027050Y025314D01*
X026387Y025269D02*
X026957Y025269D01*
X026428Y025224D02*
X026916Y025224D01*
X026446Y024999D02*
X026898Y024999D01*
X026452Y025179D02*
X026892Y025179D01*
X026460Y025044D02*
X026884Y025044D01*
X026464Y025134D02*
X026880Y025134D01*
X026467Y025089D02*
X026877Y025089D01*
X025822Y027834D02*
X026751Y027834D01*
X025822Y026034D02*
X026751Y026034D01*
X025822Y028239D02*
X026686Y028239D01*
X025822Y026439D02*
X026686Y026439D01*
X025822Y027879D02*
X026658Y027879D01*
X025822Y026079D02*
X026658Y026079D01*
X025822Y025764D02*
X026650Y025764D01*
X025822Y028194D02*
X026631Y028194D01*
X025822Y026394D02*
X026631Y026394D01*
X025822Y027924D02*
X026616Y027924D01*
X025822Y026124D02*
X026616Y026124D01*
X025822Y028149D02*
X026601Y028149D01*
X025822Y026349D02*
X026601Y026349D01*
X025822Y027969D02*
X026592Y027969D01*
X025822Y026169D02*
X026592Y026169D01*
X025822Y025359D02*
X026586Y025359D01*
X025822Y028104D02*
X026584Y028104D01*
X025822Y026304D02*
X026584Y026304D01*
X025822Y028014D02*
X026580Y028014D01*
X025822Y026214D02*
X026580Y026214D01*
X025822Y028059D02*
X026577Y028059D01*
X025822Y026259D02*
X026577Y026259D01*
X025822Y025719D02*
X026557Y025719D01*
X025822Y025404D02*
X026532Y025404D01*
X025822Y025674D02*
X026516Y025674D01*
X025822Y025449D02*
X026501Y025449D01*
X025822Y025629D02*
X026492Y025629D01*
X025822Y025494D02*
X026484Y025494D01*
X025822Y025584D02*
X026480Y025584D01*
X025822Y025539D02*
X026477Y025539D01*
X025822Y025314D02*
X026200Y025314D01*
X025822Y025269D02*
X026107Y025269D01*
X025822Y025224D02*
X026066Y025224D01*
X025822Y024999D02*
X026048Y024999D01*
X025822Y025179D02*
X026042Y025179D01*
X025822Y025044D02*
X026034Y025044D01*
X025822Y025134D02*
X026030Y025134D01*
X025822Y025089D02*
X026027Y025089D01*
X020121Y031164D02*
X024822Y031164D01*
X020073Y031119D02*
X024822Y031119D01*
X016468Y031074D02*
X024822Y031074D01*
X016468Y031029D02*
X024822Y031029D01*
X016468Y030984D02*
X024822Y030984D01*
X016468Y030939D02*
X024822Y030939D01*
X016468Y030894D02*
X024822Y030894D01*
X016468Y030849D02*
X024822Y030849D01*
X016468Y030804D02*
X024822Y030804D01*
X016468Y030759D02*
X024822Y030759D01*
X016468Y030714D02*
X024822Y030714D01*
X019455Y030669D02*
X024822Y030669D01*
X019581Y030624D02*
X024822Y030624D01*
X019625Y030579D02*
X024822Y030579D01*
X019650Y030534D02*
X024822Y030534D01*
X019663Y030489D02*
X024822Y030489D01*
X019667Y030444D02*
X024822Y030444D01*
X019661Y030399D02*
X024822Y030399D01*
X020877Y030354D02*
X024822Y030354D01*
X020948Y030309D02*
X024822Y030309D01*
X020985Y030264D02*
X024822Y030264D01*
X021006Y030219D02*
X024822Y030219D01*
X021016Y030174D02*
X024822Y030174D01*
X021016Y030129D02*
X024822Y030129D01*
X021007Y030084D02*
X024822Y030084D01*
X020988Y030039D02*
X024822Y030039D01*
X020953Y029994D02*
X024822Y029994D01*
X020888Y029949D02*
X024822Y029949D01*
X016468Y029904D02*
X024822Y029904D01*
X016468Y029859D02*
X024822Y029859D01*
X016468Y029814D02*
X024822Y029814D01*
X016468Y029769D02*
X024822Y029769D01*
X016468Y029724D02*
X024822Y029724D01*
X016468Y029679D02*
X024822Y029679D01*
X016468Y029634D02*
X024822Y029634D01*
X016468Y029589D02*
X024822Y029589D01*
X016468Y029544D02*
X024822Y029544D01*
X018539Y029499D02*
X024822Y029499D01*
X021277Y029454D02*
X024822Y029454D01*
X021348Y029409D02*
X024822Y029409D01*
X021385Y029364D02*
X024822Y029364D01*
X020148Y031209D02*
X024820Y031209D01*
X019977Y029454D02*
X021117Y029454D01*
X019988Y029049D02*
X021106Y029049D01*
X020048Y029409D02*
X021046Y029409D01*
X020053Y029094D02*
X021041Y029094D01*
X020085Y029364D02*
X021009Y029364D01*
X020088Y029139D02*
X021007Y029139D01*
X020106Y029319D02*
X020988Y029319D01*
X020107Y029184D02*
X020987Y029184D01*
X020116Y029274D02*
X020978Y029274D01*
X020116Y029229D02*
X020978Y029229D01*
X020327Y030354D02*
X020717Y030354D01*
X020338Y029949D02*
X020706Y029949D01*
X020398Y030309D02*
X020646Y030309D01*
X020403Y029994D02*
X020641Y029994D01*
X020435Y030264D02*
X020609Y030264D01*
X020438Y030039D02*
X020607Y030039D01*
X020456Y030219D02*
X020588Y030219D01*
X020457Y030084D02*
X020587Y030084D01*
X020466Y030174D02*
X020578Y030174D01*
X020466Y030129D02*
X020578Y030129D01*
X019645Y030354D02*
X020167Y030354D01*
X018938Y029949D02*
X020156Y029949D01*
X019617Y030309D02*
X020096Y030309D01*
X019003Y029994D02*
X020091Y029994D01*
X019566Y030264D02*
X020059Y030264D01*
X019038Y030039D02*
X020057Y030039D01*
X019056Y030219D02*
X020038Y030219D01*
X019057Y030084D02*
X020037Y030084D01*
X019066Y030174D02*
X020028Y030174D01*
X019066Y030129D02*
X020028Y030129D01*
X016468Y028959D02*
X019881Y028959D01*
X019523Y031119D02*
X019821Y031119D01*
X018603Y029454D02*
X019817Y029454D01*
X016468Y029049D02*
X019806Y029049D01*
X017997Y028914D02*
X019801Y028914D01*
X019571Y031164D02*
X019773Y031164D01*
X018089Y028869D02*
X019763Y028869D01*
X018162Y028644D02*
X019748Y028644D01*
X019598Y031209D02*
X019746Y031209D01*
X018638Y029409D02*
X019746Y029409D01*
X018527Y029094D02*
X019741Y029094D01*
X018131Y028824D02*
X019740Y028824D01*
X018169Y028689D02*
X019735Y028689D01*
X018155Y028779D02*
X019729Y028779D01*
X018167Y028734D02*
X019728Y028734D01*
X018657Y029364D02*
X019709Y029364D01*
X018598Y029139D02*
X019707Y029139D01*
X018666Y029319D02*
X019688Y029319D01*
X018635Y029184D02*
X019687Y029184D01*
X018666Y029274D02*
X019678Y029274D01*
X018656Y029229D02*
X019678Y029229D01*
X016468Y030669D02*
X019439Y030669D01*
X019035Y030264D02*
X019328Y030264D01*
X016468Y030624D02*
X019314Y030624D01*
X018998Y030309D02*
X019277Y030309D01*
X016468Y031119D02*
X019271Y031119D01*
X016468Y030579D02*
X019269Y030579D01*
X018927Y030354D02*
X019249Y030354D01*
X016468Y030534D02*
X019244Y030534D01*
X016468Y030399D02*
X019233Y030399D01*
X016468Y030489D02*
X019231Y030489D01*
X016468Y030444D02*
X019227Y030444D01*
X016468Y031164D02*
X019223Y031164D01*
X016470Y031209D02*
X019196Y031209D01*
X016468Y030354D02*
X018767Y030354D01*
X016468Y029949D02*
X018756Y029949D01*
X016468Y030309D02*
X018696Y030309D01*
X016468Y029994D02*
X018691Y029994D01*
X018145Y028599D02*
X018672Y028599D01*
X018115Y028554D02*
X018672Y028554D01*
X018060Y028509D02*
X018672Y028509D01*
X016468Y028464D02*
X018672Y028464D01*
X016468Y028419D02*
X018672Y028419D01*
X016468Y028374D02*
X018672Y028374D01*
X018074Y028329D02*
X018672Y028329D01*
X018121Y028284D02*
X018672Y028284D01*
X018148Y028239D02*
X018672Y028239D01*
X018162Y028194D02*
X018672Y028194D01*
X018167Y028149D02*
X018672Y028149D01*
X018162Y028104D02*
X018672Y028104D01*
X018148Y028059D02*
X018672Y028059D01*
X018121Y028014D02*
X018672Y028014D01*
X018073Y027969D02*
X018672Y027969D01*
X016468Y027924D02*
X018672Y027924D01*
X016974Y027879D02*
X018672Y027879D01*
X017021Y027834D02*
X018672Y027834D01*
X017048Y027789D02*
X018672Y027789D01*
X017062Y027744D02*
X018672Y027744D01*
X017067Y027699D02*
X018672Y027699D01*
X017062Y027654D02*
X018672Y027654D01*
X017048Y027609D02*
X018672Y027609D01*
X017021Y027564D02*
X018672Y027564D01*
X018305Y027519D02*
X018672Y027519D01*
X018431Y027474D02*
X018672Y027474D01*
X018475Y027429D02*
X018672Y027429D01*
X018500Y027384D02*
X018672Y027384D01*
X018513Y027339D02*
X018672Y027339D01*
X018517Y027294D02*
X018672Y027294D01*
X018511Y027249D02*
X018672Y027249D01*
X018495Y027204D02*
X018672Y027204D01*
X018467Y027159D02*
X018672Y027159D01*
X018416Y027114D02*
X018672Y027114D01*
X017265Y027069D02*
X018672Y027069D01*
X017254Y027024D02*
X018672Y027024D01*
X017231Y026979D02*
X018672Y026979D01*
X017192Y026934D02*
X018672Y026934D01*
X017112Y026889D02*
X018672Y026889D01*
X016468Y026844D02*
X018672Y026844D01*
X016468Y026799D02*
X018672Y026799D01*
X018427Y026754D02*
X018672Y026754D01*
X018498Y026709D02*
X018672Y026709D01*
X018535Y026664D02*
X018672Y026664D01*
X018556Y026619D02*
X018672Y026619D01*
X018566Y026574D02*
X018672Y026574D01*
X018566Y026529D02*
X018672Y026529D01*
X018557Y026484D02*
X018672Y026484D01*
X018538Y026439D02*
X018672Y026439D01*
X018503Y026394D02*
X018672Y026394D01*
X018438Y026349D02*
X018672Y026349D01*
X018003Y026304D02*
X018672Y026304D01*
X018038Y026259D02*
X018672Y026259D01*
X018057Y026214D02*
X018672Y026214D01*
X018066Y026169D02*
X018672Y026169D01*
X018066Y026124D02*
X018672Y026124D01*
X018056Y026079D02*
X018672Y026079D01*
X018035Y026034D02*
X018672Y026034D01*
X017998Y025989D02*
X018672Y025989D01*
X017927Y025944D02*
X018672Y025944D01*
X017243Y025899D02*
X018672Y025899D01*
X017260Y025854D02*
X018672Y025854D01*
X017267Y025809D02*
X018672Y025809D01*
X016468Y030264D02*
X018659Y030264D01*
X016468Y030039D02*
X018657Y030039D01*
X016468Y030219D02*
X018638Y030219D01*
X016468Y030084D02*
X018637Y030084D01*
X016468Y030174D02*
X018628Y030174D01*
X016468Y030129D02*
X018628Y030129D01*
X016468Y029094D02*
X018368Y029094D01*
X016468Y029499D02*
X018355Y029499D01*
X016468Y029139D02*
X018296Y029139D01*
X016468Y029454D02*
X018291Y029454D01*
X016973Y027519D02*
X018289Y027519D01*
X017127Y026754D02*
X018267Y026754D01*
X016468Y029184D02*
X018260Y029184D01*
X016468Y029409D02*
X018256Y029409D01*
X017939Y026349D02*
X018256Y026349D01*
X016468Y029229D02*
X018239Y029229D01*
X016468Y029364D02*
X018237Y029364D01*
X016468Y029274D02*
X018228Y029274D01*
X016468Y029319D02*
X018228Y029319D01*
X017198Y026709D02*
X018196Y026709D01*
X017203Y026394D02*
X018191Y026394D01*
X017267Y027114D02*
X018178Y027114D01*
X016468Y027474D02*
X018164Y027474D01*
X017235Y026664D02*
X018159Y026664D01*
X017238Y026439D02*
X018157Y026439D01*
X017256Y026619D02*
X018138Y026619D01*
X017257Y026484D02*
X018137Y026484D01*
X017266Y026574D02*
X018128Y026574D01*
X017266Y026529D02*
X018128Y026529D01*
X017259Y027159D02*
X018127Y027159D01*
X016468Y027429D02*
X018119Y027429D01*
X017240Y027204D02*
X018099Y027204D01*
X016468Y027384D02*
X018094Y027384D01*
X017208Y027249D02*
X018083Y027249D01*
X016468Y027339D02*
X018081Y027339D01*
X017149Y027294D02*
X018077Y027294D01*
X016468Y028914D02*
X017902Y028914D01*
X016468Y028509D02*
X017839Y028509D01*
X016468Y027969D02*
X017821Y027969D01*
X016468Y028329D02*
X017820Y028329D01*
X016468Y028869D02*
X017810Y028869D01*
X016468Y028554D02*
X017784Y028554D01*
X016468Y028014D02*
X017773Y028014D01*
X016468Y028284D02*
X017773Y028284D01*
X016468Y028824D02*
X017768Y028824D01*
X017213Y025944D02*
X017768Y025944D01*
X017138Y026349D02*
X017755Y026349D01*
X016468Y028599D02*
X017754Y028599D01*
X016468Y028059D02*
X017746Y028059D01*
X016468Y028239D02*
X017746Y028239D01*
X016468Y028779D02*
X017745Y028779D01*
X016468Y028644D02*
X017737Y028644D01*
X016468Y028734D02*
X017732Y028734D01*
X016468Y028104D02*
X017732Y028104D01*
X016468Y028194D02*
X017732Y028194D01*
X016468Y028689D02*
X017730Y028689D01*
X016468Y028149D02*
X017727Y028149D01*
X017158Y025989D02*
X017696Y025989D01*
X016468Y026304D02*
X017691Y026304D01*
X016468Y026034D02*
X017660Y026034D01*
X016468Y026259D02*
X017656Y026259D01*
X016468Y026079D02*
X017639Y026079D01*
X016468Y026214D02*
X017637Y026214D01*
X016468Y026124D02*
X017628Y026124D01*
X016468Y026169D02*
X017628Y026169D01*
X016468Y026889D02*
X016982Y026889D01*
X016468Y026754D02*
X016967Y026754D01*
X016468Y026349D02*
X016956Y026349D01*
X016468Y027294D02*
X016945Y027294D01*
X016468Y025989D02*
X016936Y025989D01*
X016468Y026934D02*
X016902Y026934D01*
X016468Y026709D02*
X016896Y026709D01*
X016468Y026394D02*
X016891Y026394D01*
X016468Y027249D02*
X016886Y027249D01*
X016468Y025944D02*
X016881Y025944D01*
X016468Y026979D02*
X016863Y026979D01*
X016468Y026664D02*
X016859Y026664D01*
X016468Y026439D02*
X016857Y026439D01*
X016468Y027204D02*
X016854Y027204D01*
X016468Y025899D02*
X016851Y025899D01*
X016468Y027024D02*
X016840Y027024D01*
X016468Y026619D02*
X016838Y026619D01*
X016468Y026484D02*
X016837Y026484D01*
X016468Y027159D02*
X016835Y027159D01*
X016468Y025854D02*
X016834Y025854D01*
X016468Y027069D02*
X016829Y027069D01*
X016468Y026574D02*
X016828Y026574D01*
X016468Y026529D02*
X016828Y026529D01*
X016468Y027114D02*
X016828Y027114D01*
X016469Y025809D02*
X016827Y025809D01*
X016468Y027519D02*
X016721Y027519D01*
X016468Y027879D02*
X016720Y027879D01*
X016468Y027564D02*
X016673Y027564D01*
X016468Y027834D02*
X016673Y027834D01*
X016468Y027609D02*
X016646Y027609D01*
X016468Y027789D02*
X016646Y027789D01*
X016468Y027654D02*
X016632Y027654D01*
X016468Y027744D02*
X016632Y027744D01*
X016468Y027699D02*
X016627Y027699D01*
G54D81*
X041383Y011250D03*
X008143Y011250D03*
X008143Y031865D03*
G54D150*
X037354Y030778D03*
X032850Y030778D03*
G54D394*
X037712Y032376D03*
X036712Y032376D03*
X033492Y032376D03*
X032492Y032376D03*
G74*
X000000Y000000D02*
M02*
