*
*
G04 PADS 9.4.1 Build Number: 494907 generated Gerber (RS-274-X) file*
G04 PC Version=2.1*
*
%IN "P9771A_EasyEDA_Edit.pcb"*%
*
%MOIN*%
*
%FSDAX24Y24*%
*
*
*
*
G04 PC Standard Apertures*
*
*
G04 Thermal Relief Aperture macro.*
%AMTER*
1,1,$1,0,0*
1,0,$1-$2,0,0*
21,0,$3,$4,0,0,45*
21,0,$3,$4,0,0,135*
%
*
*
G04 Annular Aperture macro.*
%AMANN*
1,1,$1,0,0*
1,0,$2,0,0*
%
*
*
G04 Odd Aperture macro.*
%AMODD*
1,1,$1,0,0*
1,0,$1-0.005,0,0*
%
*
*
G04 PC Custom Aperture Macros*
*
*
*
*
*
*
G04 PC Aperture Table*
*
%ADD019R,0.06X0.06*%
%ADD031C,0.01*%
%ADD038C,0.038*%
%ADD040R,0.07X0.07*%
%ADD041C,0.07*%
%ADD046C,0.11*%
%ADD051C,0.001*%
%ADD055C,0.075*%
%ADD189C,0.08*%
%ADD206C,0.135*%
%ADD207C,0.138*%
%ADD212R,0.048X0.04*%
%ADD213R,0.04X0.048*%
%ADD215R,0.08X0.08*%
%ADD222C,0.08874*%
%ADD335R,0.06X0.032*%
%ADD348O,0.02181X0.06906*%
%ADD349O,0.06906X0.02181*%
%ADD371R,0.03559X0.03362*%
%ADD372R,0.03362X0.03559*%
%ADD395R,0.038X0.023*%
%ADD396R,0.04937X0.04543*%
*
*
*
*
G04 PC Circuitry*
G04 Layer Name P9771A_EasyEDA_Edit.pcb - circuitry*
%LPD*%
*
*
G04 PC Custom Flashes*
G04 Layer Name P9771A_EasyEDA_Edit.pcb - flashes*
%LPD*%
*
*
G04 PC Circuitry*
G04 Layer Name P9771A_EasyEDA_Edit.pcb - circuitry*
%LPD*%
*
G54D19*
G01X014750Y030450D03*
X014750Y031250D03*
X012750Y030450D03*
X012750Y031250D03*
G54D31*
X006893Y010000D02*
X009393Y010000D01*
X009393Y010000D02*
X009393Y016915D01*
X009693Y017215D02*
G75*
G03X009393Y016915I000000J-000300D01*
G01X009693Y017215D02*
X010093Y017215D01*
X010393Y016915D02*
G03X010093Y017215I-000299J000000D01*
G01X010393Y016915D02*
X010393Y012666D01*
X010393Y012666D02*
X010393Y012666D01*
X010196Y012469D02*
G03X010393Y012666I000000J000197D01*
G01X010196Y012469D02*
X010000Y012469D01*
X010000Y011957*
X010000Y011957D02*
X010197Y011957D01*
X010394Y011761D02*
G03X010197Y011957I-000196J-000000D01*
G01X010394Y011761D02*
X010396Y010589D01*
X010986Y010000*
X010986Y010000D02*
X038543Y010000D01*
X039133Y010590*
X039133Y010590D02*
X039133Y011760D01*
X039330Y011957D02*
G03X039133Y011760I000000J-000196D01*
G01X039330Y011957D02*
X039527Y011957D01*
X039527Y011957D02*
X039527Y012469D01*
X039527Y012469D02*
X039330Y012469D01*
X039133Y012666D02*
G03X039330Y012469I000197J000000D01*
G01X039133Y012666D02*
X039133Y016915D01*
X039433Y017215D02*
G03X039133Y016915I000000J-000300D01*
G01X039433Y017215D02*
X039833Y017215D01*
X040133Y016915D02*
G03X039833Y017215I-000299J-000000D01*
G01X040133Y016915D02*
X040133Y010000D01*
X040133Y010000D02*
X042633Y010000D01*
X042633Y010000D02*
X042633Y033115D01*
X042633Y033115D02*
X040133Y033115D01*
X040133Y033115D02*
X040133Y029215D01*
X039833Y028915D02*
G03X040133Y029215I000000J000300D01*
G01X039833Y028915D02*
X039433Y028915D01*
X039133Y029215D02*
G03X039433Y028915I000300J000000D01*
G01X039133Y029215D02*
X039133Y033115D01*
X039133Y033115D02*
X025242Y033115D01*
X024454Y033115D02*
G03X025242Y033115I000394J000000D01*
G01X024454Y033115D02*
X022033Y033115D01*
X021246Y033115D02*
G03X022033Y033115I000393J000000D01*
G01X021246Y033115D02*
X010393Y033115D01*
X010393Y033115D02*
X010393Y029215D01*
X010093Y028915D02*
G03X010393Y029215I000000J000300D01*
G01X010093Y028915D02*
X009693Y028915D01*
X009393Y029215D02*
G03X009693Y028915I000300J000000D01*
G01X009393Y029215D02*
X009393Y033115D01*
X009393Y033115D02*
X006893Y033115D01*
X006893Y033115D02*
X006893Y010000D01*
X009693Y027915D02*
G03X009393Y027615I000000J-000300D01*
G01X009393Y027615D02*
X009393Y018515D01*
X009393Y018515D02*
G03X009693Y018215I000300J000000D01*
G01X009693Y018215D02*
X010093Y018215D01*
X010093Y018215D02*
G03X010393Y018515I000000J000300D01*
G01X010393Y018515D02*
X010393Y020579D01*
X010393Y020579D02*
G03X010196Y020776I-000196J000000D01*
G01X010196Y020776D02*
X010000Y020776D01*
X010000Y021288*
X010196Y021288*
X010196Y021288D02*
G03X010393Y021485I000000J000197D01*
G01X010393Y021485D02*
X010393Y021485D01*
X010393Y021485D02*
X010393Y027615D01*
X010393Y027615D02*
G03X010093Y027915I-000299J000000D01*
G01X010093Y027915D02*
X009693Y027915D01*
X040133Y027615D02*
G03X039833Y027915I-000299J-000000D01*
G01X040133Y027615D02*
X040133Y018515D01*
X039833Y018215D02*
G03X040133Y018515I000000J000300D01*
G01X039833Y018215D02*
X039433Y018215D01*
X039133Y018515D02*
G03X039433Y018215I000300J000000D01*
G01X039133Y018515D02*
X039133Y020579D01*
X039330Y020776D02*
G03X039133Y020579I000000J-000196D01*
G01X039330Y020776D02*
X039527Y020776D01*
X039527Y020776D02*
X039527Y021288D01*
X039527Y021288D02*
X039330Y021288D01*
X039133Y021485D02*
G03X039330Y021288I000197J000000D01*
G01X039133Y021485D02*
X039133Y027615D01*
X039433Y027915D02*
G03X039133Y027615I000000J-000300D01*
G01X039433Y027915D02*
X039833Y027915D01*
G54D38*
X010593Y017515D03*
X010593Y017915D03*
X010593Y018315D03*
X010593Y017115D03*
X010593Y028215D03*
X010593Y028615D03*
X010593Y029015D03*
X010593Y027815D03*
X038943Y017515D03*
X038943Y017915D03*
X038943Y018315D03*
X038943Y017115D03*
X038943Y028215D03*
X038943Y028615D03*
X038943Y029015D03*
X038943Y027815D03*
G54D40*
X028777Y020610D03*
X015777Y012660D03*
X012750Y032250D03*
X036854Y028278D03*
G54D41*
X027777Y020610D03*
X026777Y020610D03*
X025777Y020610D03*
X024777Y020610D03*
X023777Y020610D03*
X022777Y020610D03*
X021777Y020610D03*
X020777Y020610D03*
X019777Y020610D03*
X018777Y020610D03*
X017777Y020610D03*
X016777Y020610D03*
X015777Y020610D03*
X016777Y012660D03*
X017777Y012660D03*
X018777Y012660D03*
X019777Y012660D03*
X020777Y012660D03*
X021777Y012660D03*
X022777Y012660D03*
X023777Y012660D03*
X024777Y012660D03*
X025777Y012660D03*
X026777Y012660D03*
X027777Y012660D03*
X028777Y012660D03*
X013750Y032250D03*
X014750Y032250D03*
X036350Y027278D03*
X035854Y028278D03*
X035350Y027278D03*
X034854Y028278D03*
X034350Y027278D03*
X033854Y028278D03*
X033350Y027278D03*
G54D46*
X038181Y029577D03*
X032023Y029577D03*
G54D51*
G54D55*
X037712Y032376D03*
X036712Y032376D03*
X033492Y032376D03*
X032492Y032376D03*
G54D189*
X035397Y017830D03*
X035397Y018830D03*
X035397Y019830D03*
X035397Y020830D03*
G54D206*
X041383Y011250D03*
X008143Y011250D03*
X008143Y031865D03*
G54D207*
X037354Y030778D03*
X032850Y030778D03*
G54D212*
X018640Y018550D03*
X019260Y018550D03*
X018610Y023750D03*
X017990Y023750D03*
X017960Y027700D03*
X017340Y027700D03*
X015760Y017400D03*
X015140Y017400D03*
X018440Y021500D03*
X019060Y021500D03*
X026810Y027600D03*
X026190Y027600D03*
X026810Y026700D03*
X026190Y026700D03*
X023560Y021500D03*
X022940Y021500D03*
X023560Y022100D03*
X022940Y022100D03*
X023560Y022700D03*
X022940Y022700D03*
X024840Y026800D03*
X025460Y026800D03*
X024840Y027450D03*
X025460Y027450D03*
X024840Y029600D03*
X025460Y029600D03*
X024840Y028950D03*
X025460Y028950D03*
G54D213*
X026700Y024490D03*
X026700Y025110D03*
X019450Y029960D03*
X019450Y029340D03*
X026150Y028910D03*
X026150Y028290D03*
X026150Y029640D03*
X026150Y030260D03*
X036450Y024790D03*
X036450Y025410D03*
X037200Y024790D03*
X037200Y025410D03*
X030450Y026740D03*
X030450Y027360D03*
X030450Y028810D03*
X030450Y028190D03*
G54D215*
X035397Y016830D03*
G54D222*
X018876Y027973D03*
X022223Y024626D03*
X008143Y013000D03*
X011400Y011000D03*
X011400Y032100D03*
X038150Y011000D03*
X008143Y030115D03*
X041383Y013000D03*
G54D335*
X016788Y018270D03*
X016788Y017900D03*
X016788Y017530D03*
X017850Y017530D03*
X017850Y018270D03*
G54D348*
X021632Y027973D03*
X021435Y027973D03*
X021238Y027973D03*
X021042Y027973D03*
X020845Y027973D03*
X020648Y027973D03*
X020451Y027973D03*
X020254Y027973D03*
X020057Y027973D03*
X019861Y027973D03*
X019664Y027973D03*
X019467Y027973D03*
X019467Y024626D03*
X019664Y024626D03*
X019861Y024626D03*
X020057Y024626D03*
X020254Y024626D03*
X020451Y024626D03*
X020648Y024626D03*
X020845Y024626D03*
X021042Y024626D03*
X021238Y024626D03*
X021435Y024626D03*
X021632Y024626D03*
G54D349*
X018876Y027382D03*
X018876Y027185D03*
X018876Y026989D03*
X018876Y026792D03*
X018876Y026595D03*
X018876Y026398D03*
X018876Y026201D03*
X018876Y026004D03*
X018876Y025807D03*
X018876Y025611D03*
X018876Y025414D03*
X018876Y025217D03*
X022223Y025217D03*
X022223Y025414D03*
X022223Y025611D03*
X022223Y025807D03*
X022223Y026004D03*
X022223Y026201D03*
X022223Y026398D03*
X022223Y026595D03*
X022223Y026792D03*
X022223Y026989D03*
X022223Y027185D03*
X022223Y027382D03*
G54D371*
X026775Y029000D03*
X027225Y029000D03*
X023025Y025250D03*
X023475Y025250D03*
X017525Y016900D03*
X017075Y016900D03*
X017875Y025248D03*
X017425Y025248D03*
X017875Y026549D03*
X017425Y026549D03*
X017875Y025800D03*
X017425Y025800D03*
X018822Y028700D03*
X018372Y028700D03*
X017875Y027100D03*
X017425Y027100D03*
X018675Y024200D03*
X018225Y024200D03*
X026775Y029550D03*
X027225Y029550D03*
X015775Y018150D03*
X015325Y018150D03*
X018675Y023200D03*
X019125Y023200D03*
X023025Y027150D03*
X023475Y027150D03*
X030375Y031600D03*
X029925Y031600D03*
X030375Y032150D03*
X029925Y032150D03*
X023025Y026600D03*
X023475Y026600D03*
X023025Y026050D03*
X023475Y026050D03*
X018675Y024750D03*
X018225Y024750D03*
X023475Y024700D03*
X023025Y024700D03*
G54D372*
X035900Y025525D03*
X035900Y025075D03*
X026750Y030125D03*
X026750Y030575D03*
X020800Y029275D03*
X020800Y029725D03*
X018850Y029275D03*
X018850Y029725D03*
X020250Y029275D03*
X020250Y029725D03*
X035350Y025075D03*
X035350Y025525D03*
X022050Y023475D03*
X022050Y023925D03*
X015400Y030775D03*
X015400Y030325D03*
G54D395*
X018465Y018000D03*
X018835Y018000D03*
G54D396*
X019780Y023108D03*
X020419Y023108D03*
X020419Y023591D03*
X019780Y023591D03*
G74*
X000000Y000000D02*
M02*
