*
*
G04 PADS 9.4.1 Build Number: 494907 generated Gerber (RS-274-X) file*
G04 PC Version=2.1*
*
%IN "P9771A_EasyEDA_Edit.pcb"*%
*
%MOIN*%
*
%FSDAX24Y24*%
*
*
*
*
G04 PC Standard Apertures*
*
*
G04 Thermal Relief Aperture macro.*
%AMTER*
1,1,$1,0,0*
1,0,$1-$2,0,0*
21,0,$3,$4,0,0,45*
21,0,$3,$4,0,0,135*
%
*
*
G04 Annular Aperture macro.*
%AMANN*
1,1,$1,0,0*
1,0,$2,0,0*
%
*
*
G04 Odd Aperture macro.*
%AMODD*
1,1,$1,0,0*
1,0,$1-0.005,0,0*
%
*
*
G04 PC Custom Aperture Macros*
*
*
*
*
*
*
G04 PC Aperture Table*
*
%ADD020C,0.06*%
%ADD026C,0.1*%
%ADD031C,0.01*%
%ADD032C,0.025*%
%ADD041C,0.07*%
%ADD051C,0.001*%
%ADD066C,0.028*%
%ADD074C,0.005*%
%ADD081C,0.125*%
%ADD150C,0.128*%
%ADD394C,0.065*%
*
*
*
*
G04 PC Circuitry*
G04 Layer Name P9771A_EasyEDA_Edit.pcb - circuitry*
%LPD*%
*
*
G04 PC Custom Flashes*
G04 Layer Name P9771A_EasyEDA_Edit.pcb - flashes*
%LPD*%
*
*
G04 PC Circuitry*
G04 Layer Name P9771A_EasyEDA_Edit.pcb - circuitry*
%LPD*%
*
G54D20*
G01X028777Y020610D03*
X027777Y020610D03*
X026777Y020610D03*
X025777Y020610D03*
X024777Y020610D03*
X023777Y020610D03*
X022777Y020610D03*
X021777Y020610D03*
X020777Y020610D03*
X019777Y020610D03*
X018777Y020610D03*
X017777Y020610D03*
X016777Y020610D03*
X015777Y020610D03*
X015777Y012660D03*
X016777Y012660D03*
X017777Y012660D03*
X018777Y012660D03*
X019777Y012660D03*
X020777Y012660D03*
X021777Y012660D03*
X022777Y012660D03*
X023777Y012660D03*
X024777Y012660D03*
X025777Y012660D03*
X026777Y012660D03*
X027777Y012660D03*
X028777Y012660D03*
X012750Y032250D03*
X013750Y032250D03*
X014750Y032250D03*
X036854Y028278D03*
X036350Y027278D03*
X035854Y028278D03*
X035350Y027278D03*
X034854Y028278D03*
X034350Y027278D03*
X033854Y028278D03*
X033350Y027278D03*
G54D26*
X038181Y029577D03*
X032023Y029577D03*
G54D31*
X018498Y020330D02*
X018565Y020397D01*
X019056Y020330D02*
X018989Y020397D01*
X019056Y020889D02*
X018989Y020822D01*
X018498Y020889D02*
X018565Y020822D01*
X037455Y015155D02*
X037388Y015088D01*
X037144Y015155D02*
X037211Y015088D01*
X037144Y014844D02*
X037211Y014911D01*
X037455Y014844D02*
X037388Y014911D01*
X019903Y018705D02*
X019835Y018638D01*
X019591Y018705D02*
X019659Y018638D01*
X019591Y018394D02*
X019659Y018461D01*
X019903Y018394D02*
X019835Y018461D01*
X019253Y018155D02*
X019185Y018088D01*
X018941Y018155D02*
X019009Y018088D01*
X018941Y017844D02*
X019009Y017911D01*
X019253Y017844D02*
X019185Y017911D01*
X015053Y018305D02*
X014985Y018238D01*
X014741Y018305D02*
X014809Y018238D01*
X014741Y017994D02*
X014809Y018061D01*
X015053Y017994D02*
X014985Y018061D01*
X014803Y017555D02*
X014735Y017488D01*
X014491Y017555D02*
X014559Y017488D01*
X014491Y017244D02*
X014559Y017311D01*
X014803Y017244D02*
X014735Y017311D01*
X017253Y016655D02*
X017185Y016588D01*
X016941Y016655D02*
X017009Y016588D01*
X016941Y016344D02*
X017009Y016411D01*
X017253Y016344D02*
X017185Y016411D01*
X016303Y017955D02*
X016235Y017888D01*
X015991Y017955D02*
X016059Y017888D01*
X015991Y017644D02*
X016059Y017711D01*
X016303Y017644D02*
X016235Y017711D01*
X020103Y028905D02*
X020035Y028838D01*
X019791Y028905D02*
X019859Y028838D01*
X019791Y028594D02*
X019859Y028661D01*
X020103Y028594D02*
X020035Y028661D01*
X017903Y024355D02*
X017835Y024288D01*
X017591Y024355D02*
X017659Y024288D01*
X017591Y024044D02*
X017659Y024111D01*
X017903Y024044D02*
X017835Y024111D01*
X017953Y024905D02*
X017885Y024838D01*
X017641Y024905D02*
X017709Y024838D01*
X017641Y024594D02*
X017709Y024661D01*
X017953Y024594D02*
X017885Y024661D01*
X019003Y030305D02*
X018935Y030238D01*
X018691Y030305D02*
X018759Y030238D01*
X018691Y029994D02*
X018759Y030061D01*
X019003Y029994D02*
X018935Y030061D01*
X019603Y030605D02*
X019535Y030538D01*
X019291Y030605D02*
X019359Y030538D01*
X019291Y030294D02*
X019359Y030361D01*
X019603Y030294D02*
X019535Y030361D01*
X036053Y024855D02*
X035985Y024788D01*
X035741Y024855D02*
X035809Y024788D01*
X035741Y024544D02*
X035809Y024611D01*
X036053Y024544D02*
X035985Y024611D01*
X026903Y031155D02*
X026835Y031088D01*
X026591Y031155D02*
X026659Y031088D01*
X026591Y030844D02*
X026659Y030911D01*
X026903Y030844D02*
X026835Y030911D01*
X024053Y025405D02*
X023985Y025338D01*
X023741Y025405D02*
X023809Y025338D01*
X023741Y025094D02*
X023809Y025161D01*
X024053Y025094D02*
X023985Y025161D01*
X018403Y023355D02*
X018335Y023288D01*
X018091Y023355D02*
X018159Y023288D01*
X018091Y023044D02*
X018159Y023111D01*
X018403Y023044D02*
X018335Y023111D01*
X020953Y030305D02*
X020885Y030238D01*
X020641Y030305D02*
X020709Y030238D01*
X020641Y029994D02*
X020709Y030061D01*
X020953Y029994D02*
X020885Y030061D01*
X017703Y023905D02*
X017635Y023838D01*
X017391Y023905D02*
X017459Y023838D01*
X017391Y023594D02*
X017459Y023661D01*
X017703Y023594D02*
X017635Y023661D01*
X017203Y025405D02*
X017135Y025338D01*
X016891Y025405D02*
X016959Y025338D01*
X016891Y025094D02*
X016959Y025161D01*
X017203Y025094D02*
X017135Y025161D01*
X017203Y025955D02*
X017135Y025888D01*
X016891Y025955D02*
X016959Y025888D01*
X016891Y025644D02*
X016959Y025711D01*
X017203Y025644D02*
X017135Y025711D01*
X017203Y026705D02*
X017135Y026638D01*
X016891Y026705D02*
X016959Y026638D01*
X016891Y026394D02*
X016959Y026461D01*
X017203Y026394D02*
X017135Y026461D01*
X017203Y027255D02*
X017135Y027188D01*
X016891Y027255D02*
X016959Y027188D01*
X016891Y026944D02*
X016959Y027011D01*
X017203Y026944D02*
X017135Y027011D01*
X017003Y027855D02*
X016935Y027788D01*
X016691Y027855D02*
X016759Y027788D01*
X016691Y027544D02*
X016759Y027611D01*
X017003Y027544D02*
X016935Y027611D01*
X018105Y028855D02*
X018038Y028788D01*
X017794Y028855D02*
X017861Y028788D01*
X017794Y028544D02*
X017861Y028611D01*
X018105Y028544D02*
X018038Y028611D01*
X021103Y027355D02*
X021035Y027288D01*
X020791Y027355D02*
X020859Y027288D01*
X020791Y027044D02*
X020859Y027111D01*
X021103Y027044D02*
X021035Y027111D01*
X018453Y027455D02*
X018385Y027388D01*
X018141Y027455D02*
X018209Y027388D01*
X018141Y027144D02*
X018209Y027211D01*
X018453Y027144D02*
X018385Y027211D01*
X020399Y024270D02*
X020332Y024203D01*
X020088Y024270D02*
X020155Y024203D01*
X020088Y023959D02*
X020155Y024026D01*
X020399Y023959D02*
X020332Y024026D01*
X022903Y027805D02*
X022835Y027738D01*
X022591Y027805D02*
X022659Y027738D01*
X022591Y027494D02*
X022659Y027561D01*
X022903Y027494D02*
X022835Y027561D01*
X020403Y030305D02*
X020335Y030238D01*
X020091Y030305D02*
X020159Y030238D01*
X020091Y029994D02*
X020159Y030061D01*
X020403Y029994D02*
X020335Y030061D01*
X030605Y026455D02*
X030538Y026388D01*
X030294Y026455D02*
X030361Y026388D01*
X030294Y026144D02*
X030361Y026211D01*
X030605Y026144D02*
X030538Y026211D01*
X030205Y028955D02*
X030138Y028888D01*
X029894Y028955D02*
X029961Y028888D01*
X029894Y028644D02*
X029961Y028711D01*
X030205Y028644D02*
X030138Y028711D01*
X036605Y024505D02*
X036538Y024438D01*
X036294Y024505D02*
X036361Y024438D01*
X036294Y024194D02*
X036361Y024261D01*
X036605Y024194D02*
X036538Y024261D01*
X037355Y024505D02*
X037288Y024438D01*
X037044Y024505D02*
X037111Y024438D01*
X037044Y024194D02*
X037111Y024261D01*
X037355Y024194D02*
X037288Y024261D01*
X020553Y022755D02*
X020485Y022688D01*
X020241Y022755D02*
X020309Y022688D01*
X020241Y022444D02*
X020309Y022511D01*
X020553Y022444D02*
X020485Y022511D01*
X018503Y026705D02*
X018435Y026638D01*
X018191Y026705D02*
X018259Y026638D01*
X018191Y026394D02*
X018259Y026461D01*
X018503Y026394D02*
X018435Y026461D01*
X006893Y010000D02*
X009393Y010000D01*
X009393Y010000D02*
X009393Y016915D01*
X009693Y017215D02*
G75*
G03X009393Y016915I000000J-000300D01*
G01X009693Y017215D02*
X010093Y017215D01*
X010393Y016915D02*
G03X010093Y017215I-000299J000000D01*
G01X010393Y016915D02*
X010393Y012666D01*
X010393Y012666D02*
X010393Y012666D01*
X010196Y012469D02*
G03X010393Y012666I000000J000197D01*
G01X010196Y012469D02*
X010000Y012469D01*
X010000Y011957*
X010000Y011957D02*
X010197Y011957D01*
X010394Y011761D02*
G03X010197Y011957I-000196J-000000D01*
G01X010394Y011761D02*
X010396Y010589D01*
X010986Y010000*
X010986Y010000D02*
X038543Y010000D01*
X039133Y010590*
X039133Y010590D02*
X039133Y011760D01*
X039330Y011957D02*
G03X039133Y011760I000000J-000196D01*
G01X039330Y011957D02*
X039527Y011957D01*
X039527Y011957D02*
X039527Y012469D01*
X039527Y012469D02*
X039330Y012469D01*
X039133Y012666D02*
G03X039330Y012469I000197J000000D01*
G01X039133Y012666D02*
X039133Y016915D01*
X039433Y017215D02*
G03X039133Y016915I000000J-000300D01*
G01X039433Y017215D02*
X039833Y017215D01*
X040133Y016915D02*
G03X039833Y017215I-000299J-000000D01*
G01X040133Y016915D02*
X040133Y010000D01*
X040133Y010000D02*
X042633Y010000D01*
X042633Y010000D02*
X042633Y033115D01*
X042633Y033115D02*
X040133Y033115D01*
X040133Y033115D02*
X040133Y029215D01*
X039833Y028915D02*
G03X040133Y029215I000000J000300D01*
G01X039833Y028915D02*
X039433Y028915D01*
X039133Y029215D02*
G03X039433Y028915I000300J000000D01*
G01X039133Y029215D02*
X039133Y033115D01*
X039133Y033115D02*
X025242Y033115D01*
X024454Y033115D02*
G03X025242Y033115I000394J000000D01*
G01X024454Y033115D02*
X022033Y033115D01*
X021246Y033115D02*
G03X022033Y033115I000393J000000D01*
G01X021246Y033115D02*
X010393Y033115D01*
X010393Y033115D02*
X010393Y029215D01*
X010093Y028915D02*
G03X010393Y029215I000000J000300D01*
G01X010093Y028915D02*
X009693Y028915D01*
X009393Y029215D02*
G03X009693Y028915I000300J000000D01*
G01X009393Y029215D02*
X009393Y033115D01*
X009393Y033115D02*
X006893Y033115D01*
X006893Y033115D02*
X006893Y010000D01*
X009693Y027915D02*
G03X009393Y027615I000000J-000300D01*
G01X009393Y027615D02*
X009393Y018515D01*
X009393Y018515D02*
G03X009693Y018215I000300J000000D01*
G01X009693Y018215D02*
X010093Y018215D01*
X010093Y018215D02*
G03X010393Y018515I000000J000300D01*
G01X010393Y018515D02*
X010393Y020579D01*
X010393Y020579D02*
G03X010196Y020776I-000196J000000D01*
G01X010196Y020776D02*
X010000Y020776D01*
X010000Y021288*
X010196Y021288*
X010196Y021288D02*
G03X010393Y021485I000000J000197D01*
G01X010393Y021485D02*
X010393Y021485D01*
X010393Y021485D02*
X010393Y027615D01*
X010393Y027615D02*
G03X010093Y027915I-000299J000000D01*
G01X010093Y027915D02*
X009693Y027915D01*
X040133Y027615D02*
G03X039833Y027915I-000299J-000000D01*
G01X040133Y027615D02*
X040133Y018515D01*
X039833Y018215D02*
G03X040133Y018515I000000J000300D01*
G01X039833Y018215D02*
X039433Y018215D01*
X039133Y018515D02*
G03X039433Y018215I000300J000000D01*
G01X039133Y018515D02*
X039133Y020579D01*
X039330Y020776D02*
G03X039133Y020579I000000J-000196D01*
G01X039330Y020776D02*
X039527Y020776D01*
X039527Y020776D02*
X039527Y021288D01*
X039527Y021288D02*
X039330Y021288D01*
X039133Y021485D02*
G03X039330Y021288I000197J000000D01*
G01X039133Y021485D02*
X039133Y027615D01*
X039433Y027915D02*
G03X039133Y027615I000000J-000300D01*
G01X039433Y027915D02*
X039833Y027915D01*
G54D32*
X037300Y015000D03*
X014647Y017400D03*
X016147Y017800D03*
X014897Y018150D03*
X018497Y017650D03*
X018147Y018600D03*
X019097Y018000D03*
X019747Y018550D03*
X017097Y016500D03*
X019143Y023615D03*
X019047Y021950D03*
X020397Y022600D03*
X019147Y022800D03*
X017547Y023750D03*
X018247Y023200D03*
X022400Y022400D03*
X022400Y021500D03*
X022447Y023500D03*
X017043Y024015D03*
X019193Y024015D03*
X019643Y025265D03*
X017847Y026150D03*
X019993Y025265D03*
X018297Y027300D03*
X018347Y026550D03*
X017047Y025250D03*
X017047Y025800D03*
X017047Y026550D03*
X016847Y027700D03*
X017047Y027100D03*
X017747Y024200D03*
X017797Y024750D03*
X020243Y024115D03*
X023043Y024315D03*
X023897Y024700D03*
X023897Y026050D03*
X023897Y026600D03*
X023897Y027150D03*
X022747Y027650D03*
X023897Y025250D03*
X020947Y027200D03*
X027097Y024500D03*
X026697Y024000D03*
X026247Y024500D03*
X027097Y025100D03*
X026247Y025100D03*
X026697Y025550D03*
X026797Y026250D03*
X030450Y026300D03*
X036450Y024350D03*
X034897Y025100D03*
X035897Y024700D03*
X037200Y024350D03*
X011950Y031250D03*
X015750Y030800D03*
X014100Y031250D03*
X017950Y028700D03*
X018447Y029300D03*
X019897Y029250D03*
X017947Y028150D03*
X019947Y031300D03*
X019947Y028750D03*
X018847Y030150D03*
X019447Y030450D03*
X020247Y030150D03*
X019397Y031300D03*
X021197Y029250D03*
X020797Y030150D03*
X026797Y028050D03*
X025547Y028300D03*
X025547Y030250D03*
X027147Y030150D03*
X026747Y031000D03*
X030050Y028800D03*
G54D41*
X035397Y016830D03*
X035397Y017830D03*
X035397Y018830D03*
X035397Y019830D03*
X035397Y020830D03*
G54D51*
G54D66*
X010593Y017515D03*
X010593Y017915D03*
X010593Y018315D03*
X010593Y017115D03*
X010593Y028215D03*
X010593Y028615D03*
X010593Y029015D03*
X010593Y027815D03*
X038943Y017515D03*
X038943Y017915D03*
X038943Y018315D03*
X038943Y017115D03*
X038943Y028215D03*
X038943Y028615D03*
X038943Y029015D03*
X038943Y027815D03*
G54D74*
X037520Y015000D02*
G03X037520Y015000I-000220J0D01*
G01X037420Y024350D02*
G03X037420Y024350I-000220J0D01*
G01X036670Y024350D02*
G03X036670Y024350I-000220J0D01*
G01X036117Y024700D02*
G03X036117Y024700I-000219J0D01*
G01X035117Y025100D02*
G03X035117Y025100I-000219J0D01*
G01X030670Y026300D02*
G03X030670Y026300I-000220J0D01*
G01X030270Y028800D02*
G03X030270Y028800I-000220J0D01*
G01X029172Y012660D02*
G03X029172Y012660I-000394J0D01*
G01X029172Y020610D02*
G03X029172Y020610I-000394J0D01*
G01X028172Y012660D02*
G03X028172Y012660I-000394J0D01*
G01X028172Y020610D02*
G03X028172Y020610I-000394J0D01*
G01X027172Y012660D02*
G03X027172Y012660I-000394J0D01*
G01X027172Y020610D02*
G03X027172Y020610I-000394J0D01*
G01X026917Y024000D02*
G03X026917Y024000I-000219J0D01*
G01X027317Y024500D02*
G03X027317Y024500I-000219J0D01*
G01X027317Y025100D02*
G03X027317Y025100I-000219J0D01*
G01X026917Y025550D02*
G03X026917Y025550I-000219J0D01*
G01X027017Y026250D02*
G03X027017Y026250I-000219J0D01*
G01X027017Y028050D02*
G03X027017Y028050I-000219J0D01*
G01X027367Y030150D02*
G03X027367Y030150I-000219J0D01*
G01X026967Y031000D02*
G03X026967Y031000I-000219J0D01*
G01X026172Y012660D02*
G03X026172Y012660I-000394J0D01*
G01X026172Y020610D02*
G03X026172Y020610I-000394J0D01*
G01X026467Y024500D02*
G03X026467Y024500I-000219J0D01*
G01X026467Y025100D02*
G03X026467Y025100I-000219J0D01*
G01X025767Y028300D02*
G03X025767Y028300I-000219J0D01*
G01X025767Y030250D02*
G03X025767Y030250I-000219J0D01*
G01X025172Y012660D02*
G03X025172Y012660I-000394J0D01*
G01X025172Y020610D02*
G03X025172Y020610I-000394J0D01*
G01X024172Y012660D02*
G03X024172Y012660I-000394J0D01*
G01X024172Y020610D02*
G03X024172Y020610I-000394J0D01*
G01X024117Y024700D02*
G03X024117Y024700I-000219J0D01*
G01X024117Y025250D02*
G03X024117Y025250I-000219J0D01*
G01X024117Y026050D02*
G03X024117Y026050I-000219J0D01*
G01X024117Y026600D02*
G03X024117Y026600I-000219J0D01*
G01X024117Y027150D02*
G03X024117Y027150I-000219J0D01*
G01X023172Y012660D02*
G03X023172Y012660I-000394J0D01*
G01X023172Y020610D02*
G03X023172Y020610I-000394J0D01*
G01X023263Y024315D02*
G03X023263Y024315I-000219J0D01*
G01X022620Y021500D02*
G03X022620Y021500I-000220J0D01*
G01X022620Y022400D02*
G03X022620Y022400I-000220J0D01*
G01X022667Y023500D02*
G03X022667Y023500I-000219J0D01*
G01X022967Y027650D02*
G03X022967Y027650I-000219J0D01*
G01X022172Y012660D02*
G03X022172Y012660I-000394J0D01*
G01X022172Y020610D02*
G03X022172Y020610I-000394J0D01*
G01X021172Y012660D02*
G03X021172Y012660I-000394J0D01*
G01X021172Y020610D02*
G03X021172Y020610I-000394J0D01*
G01X021167Y027200D02*
G03X021167Y027200I-000219J0D01*
G01X021417Y029250D02*
G03X021417Y029250I-000219J0D01*
G01X020617Y022600D02*
G03X020617Y022600I-000219J0D01*
G01X021017Y030150D02*
G03X021017Y030150I-000219J0D01*
G01X020172Y012660D02*
G03X020172Y012660I-000394J0D01*
G01X019967Y018550D02*
G03X019967Y018550I-000219J0D01*
G01X020172Y020610D02*
G03X020172Y020610I-000394J0D01*
G01X020463Y024115D02*
G03X020463Y024115I-000219J0D01*
G01X020167Y028750D02*
G03X020167Y028750I-000219J0D01*
G01X020117Y029250D02*
G03X020117Y029250I-000219J0D01*
G01X020467Y030150D02*
G03X020467Y030150I-000219J0D01*
G01X020167Y031300D02*
G03X020167Y031300I-000219J0D01*
G01X019172Y012660D02*
G03X019172Y012660I-000394J0D01*
G01X019317Y018000D02*
G03X019317Y018000I-000219J0D01*
G01X018717Y017650D02*
G03X018717Y017650I-000219J0D01*
G01X019172Y020610D02*
G03X019172Y020610I-000394J0D01*
G01X019267Y021950D02*
G03X019267Y021950I-000219J0D01*
G01X019367Y022800D02*
G03X019367Y022800I-000219J0D01*
G01X019667Y030450D02*
G03X019667Y030450I-000219J0D01*
G01X019617Y031300D02*
G03X019617Y031300I-000219J0D01*
G01X018172Y012660D02*
G03X018172Y012660I-000394J0D01*
G01X018367Y018600D02*
G03X018367Y018600I-000219J0D01*
G01X018172Y020610D02*
G03X018172Y020610I-000394J0D01*
G01X018467Y023200D02*
G03X018467Y023200I-000219J0D01*
G01X018567Y026550D02*
G03X018567Y026550I-000219J0D01*
G01X018517Y027300D02*
G03X018517Y027300I-000219J0D01*
G01X018667Y029300D02*
G03X018667Y029300I-000219J0D01*
G01X019067Y030150D02*
G03X019067Y030150I-000219J0D01*
G01X017767Y023750D02*
G03X017767Y023750I-000219J0D01*
G01X017967Y024200D02*
G03X017967Y024200I-000219J0D01*
G01X018017Y024750D02*
G03X018017Y024750I-000219J0D01*
G01X018067Y026150D02*
G03X018067Y026150I-000219J0D01*
G01X018167Y028150D02*
G03X018167Y028150I-000219J0D01*
G01X018170Y028700D02*
G03X018170Y028700I-000220J0D01*
G01X017172Y012660D02*
G03X017172Y012660I-000394J0D01*
G01X017317Y016500D02*
G03X017317Y016500I-000219J0D01*
G01X017172Y020610D02*
G03X017172Y020610I-000394J0D01*
G01X017263Y024015D02*
G03X017263Y024015I-000219J0D01*
G01X017267Y025250D02*
G03X017267Y025250I-000219J0D01*
G01X017267Y025800D02*
G03X017267Y025800I-000219J0D01*
G01X017267Y026550D02*
G03X017267Y026550I-000219J0D01*
G01X017267Y027100D02*
G03X017267Y027100I-000219J0D01*
G01X017067Y027700D02*
G03X017067Y027700I-000219J0D01*
G01X016172Y012660D02*
G03X016172Y012660I-000394J0D01*
G01X016367Y017800D02*
G03X016367Y017800I-000219J0D01*
G01X016172Y020610D02*
G03X016172Y020610I-000394J0D01*
G01X015970Y030800D02*
G03X015970Y030800I-000220J0D01*
G01X014867Y017400D02*
G03X014867Y017400I-000219J0D01*
G01X015117Y018150D02*
G03X015117Y018150I-000219J0D01*
G01X015145Y032250D02*
G03X015145Y032250I-000395J0D01*
G01X014320Y031250D02*
G03X014320Y031250I-000220J0D01*
G01X014145Y032250D02*
G03X014145Y032250I-000395J0D01*
G01X013145Y032250D02*
G03X013145Y032250I-000395J0D01*
G01X012170Y031250D02*
G03X012170Y031250I-000220J0D01*
G01X038872Y011876D02*
X038872Y012550D01*
X038872Y012550D02*
G03X038871Y012556I-000024J000000D01*
G01X038858Y012666D02*
G03X038871Y012556I000472J000000D01*
G01X038858Y012666D02*
X038858Y015450D01*
X038858Y015450D02*
G03X038833Y015475I-000024J000000D01*
G01X038833Y015475D02*
X033872Y015475D01*
X033872Y015475D02*
X033872Y022225D01*
X033872Y022225D02*
X038397Y022225D01*
X038397Y022225D02*
G03X038422Y022250I000000J000025D01*
G01X038422Y022250D02*
X038422Y025700D01*
X038422Y025700D02*
G03X038397Y025725I-000024J000000D01*
G01X038397Y025725D02*
X030772Y025725D01*
X030772Y025725D02*
X030772Y032815D01*
X030772Y032815D02*
G03X030747Y032840I-000024J-000000D01*
G01X030747Y032840D02*
X025473Y032840D01*
X025473Y032840D02*
G03X025451Y032825I000000J-000025D01*
G01X024245Y032825D02*
G03X025451Y032825I000603J000290D01*
G01X024245Y032825D02*
G03X024222Y032840I-000022J-000010D01*
G01X024222Y032840D02*
X022265Y032840D01*
G03X022242Y032825I000000J-000025*
G01X021036Y032825D02*
G03X022242Y032825I000603J000290D01*
G01X021036Y032825D02*
G03X021014Y032840I-000021J-000010D01*
G01X010693Y032840*
X010693Y032840D02*
G03X010668Y032815I000000J-000025D01*
G01X010668Y032815D02*
X010668Y029287D01*
X010668Y029287D02*
G03X010685Y029263I000025J000000D01*
G01X010785Y028832D02*
G03X010685Y029263I-000191J000183D01*
G01X010785Y028832D02*
G03X010785Y028797I000018J-000017D01*
G01X010785Y028432D02*
G03X010785Y028797I-000191J000183D01*
G01X010785Y028432D02*
G03X010785Y028397I000018J-000017D01*
G01X010785Y028032D02*
G03X010785Y028397I-000191J000183D01*
G01X010785Y028032D02*
G03X010785Y027997I000018J-000017D01*
G01X010685Y027566D02*
G03X010785Y027997I-000091J000249D01*
G01X010685Y027566D02*
G03X010668Y027542I000008J-000023D01*
G01X010668Y027542D02*
X010668Y021485D01*
X010624Y021286D02*
G03X010668Y021485I-000427J000199D01*
G01X010624Y021286D02*
G03X010622Y021276I000023J-000010D01*
G01X010622Y021276D02*
X010622Y020788D01*
X010622Y020788D02*
G03X010624Y020778I000025J000000D01*
G01X010668Y020579D02*
G03X010624Y020778I-000471J000000D01*
G01X010668Y020579D02*
X010668Y018587D01*
X010668Y018587D02*
G03X010685Y018563I000025J000000D01*
G01X010785Y018132D02*
G03X010685Y018563I-000191J000183D01*
G01X010785Y018132D02*
G03X010785Y018097I000018J-000017D01*
G01X010785Y017732D02*
G03X010785Y018097I-000191J000183D01*
G01X010785Y017732D02*
G03X010785Y017697I000018J-000017D01*
G01X010785Y017332D02*
G03X010785Y017697I-000191J000183D01*
G01X010785Y017332D02*
G03X010785Y017297I000018J-000017D01*
G01X010685Y016866D02*
G03X010785Y017297I-000091J000249D01*
G01X010685Y016866D02*
G03X010668Y016842I000008J-000023D01*
G01X010668Y016842D02*
X010668Y012666D01*
X010624Y012467D02*
G03X010668Y012666I-000427J000199D01*
G01X010624Y012467D02*
G03X010622Y012457I000023J-000009D01*
G01X010622Y012457D02*
X010622Y011970D01*
X010622Y011970D02*
G03X010624Y011960I000025J000000D01*
G01X010669Y011761D02*
G03X010624Y011960I-000471J-000000D01*
G01X010669Y011761D02*
X010671Y010714D01*
G03X010678Y010696I000025J000000*
G01X011093Y010282*
G03X011111Y010275I000018J000018*
G01X038419Y010275*
G03X038436Y010282I-000000J000025*
G01X038436Y010282D02*
X038851Y010697D01*
G03X038858Y010714I-000017J000017*
G01X038858Y010714D02*
X038858Y011760D01*
X038871Y011870D02*
G03X038858Y011760I000459J-000109D01*
G01X038871Y011870D02*
G03X038872Y011876I-000023J000006D01*
G01X037520Y015000D02*
G03X037520Y015000I-000220J0D01*
G01X037420Y024350D02*
G03X037420Y024350I-000220J0D01*
G01X036670Y024350D02*
G03X036670Y024350I-000220J0D01*
G01X036117Y024700D02*
G03X036117Y024700I-000219J0D01*
G01X035117Y025100D02*
G03X035117Y025100I-000219J0D01*
G01X030670Y026300D02*
G03X030670Y026300I-000220J0D01*
G01X030270Y028800D02*
G03X030270Y028800I-000220J0D01*
G01X029172Y012660D02*
G03X029172Y012660I-000394J0D01*
G01X029172Y020610D02*
G03X029172Y020610I-000394J0D01*
G01X028172Y012660D02*
G03X028172Y012660I-000394J0D01*
G01X028172Y020610D02*
G03X028172Y020610I-000394J0D01*
G01X027172Y012660D02*
G03X027172Y012660I-000394J0D01*
G01X027172Y020610D02*
G03X027172Y020610I-000394J0D01*
G01X026917Y024000D02*
G03X026917Y024000I-000219J0D01*
G01X027317Y024500D02*
G03X027317Y024500I-000219J0D01*
G01X027317Y025100D02*
G03X027317Y025100I-000219J0D01*
G01X026917Y025550D02*
G03X026917Y025550I-000219J0D01*
G01X027017Y026250D02*
G03X027017Y026250I-000219J0D01*
G01X027017Y028050D02*
G03X027017Y028050I-000219J0D01*
G01X027367Y030150D02*
G03X027367Y030150I-000219J0D01*
G01X026967Y031000D02*
G03X026967Y031000I-000219J0D01*
G01X026172Y012660D02*
G03X026172Y012660I-000394J0D01*
G01X026172Y020610D02*
G03X026172Y020610I-000394J0D01*
G01X026467Y024500D02*
G03X026467Y024500I-000219J0D01*
G01X026467Y025100D02*
G03X026467Y025100I-000219J0D01*
G01X025767Y028300D02*
G03X025767Y028300I-000219J0D01*
G01X025767Y030250D02*
G03X025767Y030250I-000219J0D01*
G01X025172Y012660D02*
G03X025172Y012660I-000394J0D01*
G01X025172Y020610D02*
G03X025172Y020610I-000394J0D01*
G01X024172Y012660D02*
G03X024172Y012660I-000394J0D01*
G01X024172Y020610D02*
G03X024172Y020610I-000394J0D01*
G01X024117Y024700D02*
G03X024117Y024700I-000219J0D01*
G01X024117Y025250D02*
G03X024117Y025250I-000219J0D01*
G01X024117Y026050D02*
G03X024117Y026050I-000219J0D01*
G01X024117Y026600D02*
G03X024117Y026600I-000219J0D01*
G01X024117Y027150D02*
G03X024117Y027150I-000219J0D01*
G01X023172Y012660D02*
G03X023172Y012660I-000394J0D01*
G01X023172Y020610D02*
G03X023172Y020610I-000394J0D01*
G01X023263Y024315D02*
G03X023263Y024315I-000219J0D01*
G01X022620Y021500D02*
G03X022620Y021500I-000220J0D01*
G01X022620Y022400D02*
G03X022620Y022400I-000220J0D01*
G01X022667Y023500D02*
G03X022667Y023500I-000219J0D01*
G01X022967Y027650D02*
G03X022967Y027650I-000219J0D01*
G01X022172Y012660D02*
G03X022172Y012660I-000394J0D01*
G01X022172Y020610D02*
G03X022172Y020610I-000394J0D01*
G01X021172Y012660D02*
G03X021172Y012660I-000394J0D01*
G01X021172Y020610D02*
G03X021172Y020610I-000394J0D01*
G01X021167Y027200D02*
G03X021167Y027200I-000219J0D01*
G01X021417Y029250D02*
G03X021417Y029250I-000219J0D01*
G01X020617Y022600D02*
G03X020617Y022600I-000219J0D01*
G01X021017Y030150D02*
G03X021017Y030150I-000219J0D01*
G01X020172Y012660D02*
G03X020172Y012660I-000394J0D01*
G01X019967Y018550D02*
G03X019967Y018550I-000219J0D01*
G01X020172Y020610D02*
G03X020172Y020610I-000394J0D01*
G01X020463Y024115D02*
G03X020463Y024115I-000219J0D01*
G01X019836Y025111D02*
G03X019836Y025419I000157J000154D01*
G01X019836Y025111D02*
G03X019800Y025111I-000017J-000017D01*
G01X019800Y025419D02*
G03X019800Y025111I-000156J-000154D01*
G01X019800Y025419D02*
G03X019836Y025419I000018J000017D01*
G01X020167Y028750D02*
G03X020167Y028750I-000219J0D01*
G01X020117Y029250D02*
G03X020117Y029250I-000219J0D01*
G01X020467Y030150D02*
G03X020467Y030150I-000219J0D01*
G01X020167Y031300D02*
G03X020167Y031300I-000219J0D01*
G01X019172Y012660D02*
G03X019172Y012660I-000394J0D01*
G01X019317Y018000D02*
G03X019317Y018000I-000219J0D01*
G01X018717Y017650D02*
G03X018717Y017650I-000219J0D01*
G01X019172Y020610D02*
G03X019172Y020610I-000394J0D01*
G01X019267Y021950D02*
G03X019267Y021950I-000219J0D01*
G01X019367Y022800D02*
G03X019367Y022800I-000219J0D01*
G01X019295Y023819D02*
G03X019047Y023850I-000101J000196D01*
G01X019295Y023819D02*
G03X019290Y023779I000011J-000021D01*
G01X019042Y023810D02*
G03X019290Y023779I000101J-000195D01*
G01X019042Y023810D02*
G03X019047Y023850I-000011J000022D01*
G01X019667Y030450D02*
G03X019667Y030450I-000219J0D01*
G01X019617Y031300D02*
G03X019617Y031300I-000219J0D01*
G01X018172Y012660D02*
G03X018172Y012660I-000394J0D01*
G01X018367Y018600D02*
G03X018367Y018600I-000219J0D01*
G01X018172Y020610D02*
G03X018172Y020610I-000394J0D01*
G01X018467Y023200D02*
G03X018467Y023200I-000219J0D01*
G01X018567Y026550D02*
G03X018567Y026550I-000219J0D01*
G01X018517Y027300D02*
G03X018517Y027300I-000219J0D01*
G01X018667Y029300D02*
G03X018667Y029300I-000219J0D01*
G01X019067Y030150D02*
G03X019067Y030150I-000219J0D01*
G01X017767Y023750D02*
G03X017767Y023750I-000219J0D01*
G01X017967Y024200D02*
G03X017967Y024200I-000219J0D01*
G01X018017Y024750D02*
G03X018017Y024750I-000219J0D01*
G01X018067Y026150D02*
G03X018067Y026150I-000219J0D01*
G01X018167Y028150D02*
G03X018167Y028150I-000219J0D01*
G01X018170Y028700D02*
G03X018170Y028700I-000220J0D01*
G01X017172Y012660D02*
G03X017172Y012660I-000394J0D01*
G01X017317Y016500D02*
G03X017317Y016500I-000219J0D01*
G01X017172Y020610D02*
G03X017172Y020610I-000394J0D01*
G01X017263Y024015D02*
G03X017263Y024015I-000219J0D01*
G01X017267Y025250D02*
G03X017267Y025250I-000219J0D01*
G01X017267Y025800D02*
G03X017267Y025800I-000219J0D01*
G01X017267Y026550D02*
G03X017267Y026550I-000219J0D01*
G01X017267Y027100D02*
G03X017267Y027100I-000219J0D01*
G01X017067Y027700D02*
G03X017067Y027700I-000219J0D01*
G01X016172Y012660D02*
G03X016172Y012660I-000394J0D01*
G01X016367Y017800D02*
G03X016367Y017800I-000219J0D01*
G01X016172Y020610D02*
G03X016172Y020610I-000394J0D01*
G01X015970Y030800D02*
G03X015970Y030800I-000220J0D01*
G01X014867Y017400D02*
G03X014867Y017400I-000219J0D01*
G01X015117Y018150D02*
G03X015117Y018150I-000219J0D01*
G01X015145Y032250D02*
G03X015145Y032250I-000395J0D01*
G01X014320Y031250D02*
G03X014320Y031250I-000220J0D01*
G01X014145Y032250D02*
G03X014145Y032250I-000395J0D01*
G01X013145Y032250D02*
G03X013145Y032250I-000395J0D01*
G01X012170Y031250D02*
G03X012170Y031250I-000220J0D01*
G01X029148Y012524D02*
X038872Y012524D01*
X029129Y012479D02*
X038872Y012479D01*
X029102Y012434D02*
X038872Y012434D01*
X029065Y012389D02*
X038872Y012389D01*
X029015Y012344D02*
X038872Y012344D01*
X028939Y012299D02*
X038872Y012299D01*
X010622Y012254D02*
X038872Y012254D01*
X010622Y012209D02*
X038872Y012209D01*
X010622Y012164D02*
X038872Y012164D01*
X010622Y012119D02*
X038872Y012119D01*
X010622Y012074D02*
X038872Y012074D01*
X010622Y012029D02*
X038872Y012029D01*
X010622Y011984D02*
X038872Y011984D01*
X010633Y011939D02*
X038872Y011939D01*
X010649Y011894D02*
X038872Y011894D01*
X029162Y012569D02*
X038868Y012569D01*
X010660Y011849D02*
X038867Y011849D01*
X029169Y012614D02*
X038861Y012614D01*
X010667Y011804D02*
X038860Y011804D01*
X029172Y012659D02*
X038858Y012659D01*
X010668Y015449D02*
X038858Y015449D01*
X010668Y015404D02*
X038858Y015404D01*
X010668Y015359D02*
X038858Y015359D01*
X010668Y015314D02*
X038858Y015314D01*
X010668Y015269D02*
X038858Y015269D01*
X010668Y015224D02*
X038858Y015224D01*
X037426Y015179D02*
X038858Y015179D01*
X037473Y015134D02*
X038858Y015134D01*
X037500Y015089D02*
X038858Y015089D01*
X037515Y015044D02*
X038858Y015044D01*
X037520Y014999D02*
X038858Y014999D01*
X037515Y014954D02*
X038858Y014954D01*
X037500Y014909D02*
X038858Y014909D01*
X037473Y014864D02*
X038858Y014864D01*
X037426Y014819D02*
X038858Y014819D01*
X010668Y014774D02*
X038858Y014774D01*
X010668Y014729D02*
X038858Y014729D01*
X010668Y014684D02*
X038858Y014684D01*
X010668Y014639D02*
X038858Y014639D01*
X010668Y014594D02*
X038858Y014594D01*
X010668Y014549D02*
X038858Y014549D01*
X010668Y014504D02*
X038858Y014504D01*
X010668Y014459D02*
X038858Y014459D01*
X010668Y014414D02*
X038858Y014414D01*
X010668Y014369D02*
X038858Y014369D01*
X010668Y014324D02*
X038858Y014324D01*
X010668Y014279D02*
X038858Y014279D01*
X010668Y014234D02*
X038858Y014234D01*
X010668Y014189D02*
X038858Y014189D01*
X010668Y014144D02*
X038858Y014144D01*
X010668Y014099D02*
X038858Y014099D01*
X010668Y014054D02*
X038858Y014054D01*
X010668Y014009D02*
X038858Y014009D01*
X010668Y013964D02*
X038858Y013964D01*
X010668Y013919D02*
X038858Y013919D01*
X010668Y013874D02*
X038858Y013874D01*
X010668Y013829D02*
X038858Y013829D01*
X010668Y013784D02*
X038858Y013784D01*
X010668Y013739D02*
X038858Y013739D01*
X010668Y013694D02*
X038858Y013694D01*
X010668Y013649D02*
X038858Y013649D01*
X010668Y013604D02*
X038858Y013604D01*
X010668Y013559D02*
X038858Y013559D01*
X010668Y013514D02*
X038858Y013514D01*
X010668Y013469D02*
X038858Y013469D01*
X010668Y013424D02*
X038858Y013424D01*
X010668Y013379D02*
X038858Y013379D01*
X010668Y013334D02*
X038858Y013334D01*
X010668Y013289D02*
X038858Y013289D01*
X010668Y013244D02*
X038858Y013244D01*
X010668Y013199D02*
X038858Y013199D01*
X010668Y013154D02*
X038858Y013154D01*
X010668Y013109D02*
X038858Y013109D01*
X010668Y013064D02*
X038858Y013064D01*
X028940Y013019D02*
X038858Y013019D01*
X029016Y012974D02*
X038858Y012974D01*
X029066Y012929D02*
X038858Y012929D01*
X029102Y012884D02*
X038858Y012884D01*
X029129Y012839D02*
X038858Y012839D01*
X029148Y012794D02*
X038858Y012794D01*
X029162Y012749D02*
X038858Y012749D01*
X029170Y012704D02*
X038858Y012704D01*
X010669Y011759D02*
X038858Y011759D01*
X010669Y011714D02*
X038858Y011714D01*
X010669Y011669D02*
X038858Y011669D01*
X010669Y011624D02*
X038858Y011624D01*
X010669Y011579D02*
X038858Y011579D01*
X010669Y011534D02*
X038858Y011534D01*
X010669Y011489D02*
X038858Y011489D01*
X010669Y011444D02*
X038858Y011444D01*
X010669Y011399D02*
X038858Y011399D01*
X010669Y011354D02*
X038858Y011354D01*
X010669Y011309D02*
X038858Y011309D01*
X010670Y011264D02*
X038858Y011264D01*
X010670Y011219D02*
X038858Y011219D01*
X010670Y011174D02*
X038858Y011174D01*
X010670Y011129D02*
X038858Y011129D01*
X010670Y011084D02*
X038858Y011084D01*
X010670Y011039D02*
X038858Y011039D01*
X010670Y010994D02*
X038858Y010994D01*
X010670Y010949D02*
X038858Y010949D01*
X010670Y010904D02*
X038858Y010904D01*
X010670Y010859D02*
X038858Y010859D01*
X010670Y010814D02*
X038858Y010814D01*
X010671Y010769D02*
X038858Y010769D01*
X010671Y010724D02*
X038858Y010724D01*
X010695Y010679D02*
X038834Y010679D01*
X010740Y010634D02*
X038789Y010634D01*
X010785Y010589D02*
X038744Y010589D01*
X010830Y010544D02*
X038699Y010544D01*
X010875Y010499D02*
X038654Y010499D01*
X010920Y010454D02*
X038609Y010454D01*
X010965Y010409D02*
X038564Y010409D01*
X011010Y010364D02*
X038519Y010364D01*
X011055Y010319D02*
X038474Y010319D01*
X026885Y025664D02*
X038422Y025664D01*
X026906Y025619D02*
X038422Y025619D01*
X026916Y025574D02*
X038422Y025574D01*
X026916Y025529D02*
X038422Y025529D01*
X026907Y025484D02*
X038422Y025484D01*
X026888Y025439D02*
X038422Y025439D01*
X026853Y025394D02*
X038422Y025394D01*
X026788Y025349D02*
X038422Y025349D01*
X034977Y025304D02*
X038422Y025304D01*
X035048Y025259D02*
X038422Y025259D01*
X035085Y025214D02*
X038422Y025214D01*
X035106Y025169D02*
X038422Y025169D01*
X035116Y025124D02*
X038422Y025124D01*
X035116Y025079D02*
X038422Y025079D01*
X035107Y025034D02*
X038422Y025034D01*
X035088Y024989D02*
X038422Y024989D01*
X035053Y024944D02*
X038422Y024944D01*
X035989Y024899D02*
X038422Y024899D01*
X036053Y024854D02*
X038422Y024854D01*
X036088Y024809D02*
X038422Y024809D01*
X036107Y024764D02*
X038422Y024764D01*
X036116Y024719D02*
X038422Y024719D01*
X036116Y024674D02*
X038422Y024674D01*
X036106Y024629D02*
X038422Y024629D01*
X036085Y024584D02*
X038422Y024584D01*
X037311Y024539D02*
X038422Y024539D01*
X037365Y024494D02*
X038422Y024494D01*
X037396Y024449D02*
X038422Y024449D01*
X037413Y024404D02*
X038422Y024404D01*
X037419Y024359D02*
X038422Y024359D01*
X037417Y024314D02*
X038422Y024314D01*
X037404Y024269D02*
X038422Y024269D01*
X037381Y024224D02*
X038422Y024224D01*
X037339Y024179D02*
X038422Y024179D01*
X037246Y024134D02*
X038422Y024134D01*
X026898Y024089D02*
X038422Y024089D01*
X026912Y024044D02*
X038422Y024044D01*
X026917Y023999D02*
X038422Y023999D01*
X026912Y023954D02*
X038422Y023954D01*
X026898Y023909D02*
X038422Y023909D01*
X026871Y023864D02*
X038422Y023864D01*
X026823Y023819D02*
X038422Y023819D01*
X019294Y023774D02*
X038422Y023774D01*
X019331Y023729D02*
X038422Y023729D01*
X022566Y023684D02*
X038422Y023684D01*
X022617Y023639D02*
X038422Y023639D01*
X022646Y023594D02*
X038422Y023594D01*
X022661Y023549D02*
X038422Y023549D01*
X022667Y023504D02*
X038422Y023504D01*
X022663Y023459D02*
X038422Y023459D01*
X022650Y023414D02*
X038422Y023414D01*
X022624Y023369D02*
X038422Y023369D01*
X022580Y023324D02*
X038422Y023324D01*
X018452Y023279D02*
X038422Y023279D01*
X018464Y023234D02*
X038422Y023234D01*
X018467Y023189D02*
X038422Y023189D01*
X018460Y023144D02*
X038422Y023144D01*
X018443Y023099D02*
X038422Y023099D01*
X018412Y023054D02*
X038422Y023054D01*
X019213Y023009D02*
X038422Y023009D01*
X019293Y022964D02*
X038422Y022964D01*
X019332Y022919D02*
X038422Y022919D01*
X019354Y022874D02*
X038422Y022874D01*
X019365Y022829D02*
X038422Y022829D01*
X020516Y022784D02*
X038422Y022784D01*
X020567Y022739D02*
X038422Y022739D01*
X020596Y022694D02*
X038422Y022694D01*
X020611Y022649D02*
X038422Y022649D01*
X022480Y022604D02*
X038422Y022604D01*
X022551Y022559D02*
X038422Y022559D01*
X022587Y022514D02*
X038422Y022514D01*
X022608Y022469D02*
X038422Y022469D01*
X022618Y022424D02*
X038422Y022424D01*
X022619Y022379D02*
X038422Y022379D01*
X022610Y022334D02*
X038422Y022334D01*
X022590Y022289D02*
X038422Y022289D01*
X022556Y022244D02*
X038422Y022244D01*
X026848Y025709D02*
X038420Y025709D01*
X010668Y014819D02*
X037173Y014819D01*
X010668Y015179D02*
X037173Y015179D01*
X036496Y024134D02*
X037154Y024134D01*
X010668Y014864D02*
X037126Y014864D01*
X010668Y015134D02*
X037126Y015134D01*
X010668Y014909D02*
X037099Y014909D01*
X010668Y015089D02*
X037099Y015089D01*
X036561Y024539D02*
X037088Y024539D01*
X010668Y014954D02*
X037084Y014954D01*
X010668Y015044D02*
X037084Y015044D01*
X010668Y014999D02*
X037080Y014999D01*
X036589Y024179D02*
X037060Y024179D01*
X036615Y024494D02*
X037034Y024494D01*
X036631Y024224D02*
X037019Y024224D01*
X036646Y024449D02*
X037004Y024449D01*
X036654Y024269D02*
X036995Y024269D01*
X036663Y024404D02*
X036986Y024404D01*
X036667Y024314D02*
X036982Y024314D01*
X036669Y024359D02*
X036980Y024359D01*
X026871Y024134D02*
X036404Y024134D01*
X036048Y024539D02*
X036338Y024539D01*
X026824Y024179D02*
X036310Y024179D01*
X035977Y024494D02*
X036284Y024494D01*
X023244Y024224D02*
X036269Y024224D01*
X027311Y024449D02*
X036254Y024449D01*
X023259Y024269D02*
X036245Y024269D01*
X027295Y024404D02*
X036236Y024404D01*
X027216Y024314D02*
X036232Y024314D01*
X027267Y024359D02*
X036230Y024359D01*
X027317Y024494D02*
X035818Y024494D01*
X034988Y024899D02*
X035805Y024899D01*
X027313Y024539D02*
X035746Y024539D01*
X024053Y024854D02*
X035741Y024854D01*
X027300Y024584D02*
X035710Y024584D01*
X024088Y024809D02*
X035706Y024809D01*
X027275Y024629D02*
X035689Y024629D01*
X024107Y024764D02*
X035687Y024764D01*
X027231Y024674D02*
X035678Y024674D01*
X027105Y024719D02*
X035678Y024719D01*
X027177Y025304D02*
X034817Y025304D01*
X027188Y024899D02*
X034806Y024899D01*
X027248Y025259D02*
X034746Y025259D01*
X027253Y024944D02*
X034741Y024944D01*
X027285Y025214D02*
X034709Y025214D01*
X027288Y024989D02*
X034707Y024989D01*
X027306Y025169D02*
X034688Y025169D01*
X027307Y025034D02*
X034687Y025034D01*
X027316Y025124D02*
X034678Y025124D01*
X027316Y025079D02*
X034678Y025079D01*
X022491Y022199D02*
X033872Y022199D01*
X019127Y022154D02*
X033872Y022154D01*
X019198Y022109D02*
X033872Y022109D01*
X019235Y022064D02*
X033872Y022064D01*
X019256Y022019D02*
X033872Y022019D01*
X019266Y021974D02*
X033872Y021974D01*
X019266Y021929D02*
X033872Y021929D01*
X019257Y021884D02*
X033872Y021884D01*
X019238Y021839D02*
X033872Y021839D01*
X019203Y021794D02*
X033872Y021794D01*
X019138Y021749D02*
X033872Y021749D01*
X022480Y021704D02*
X033872Y021704D01*
X022551Y021659D02*
X033872Y021659D01*
X022587Y021614D02*
X033872Y021614D01*
X022608Y021569D02*
X033872Y021569D01*
X022618Y021524D02*
X033872Y021524D01*
X022619Y021479D02*
X033872Y021479D01*
X022610Y021434D02*
X033872Y021434D01*
X022590Y021389D02*
X033872Y021389D01*
X022556Y021344D02*
X033872Y021344D01*
X022491Y021299D02*
X033872Y021299D01*
X010622Y021254D02*
X033872Y021254D01*
X010622Y021209D02*
X033872Y021209D01*
X010622Y021164D02*
X033872Y021164D01*
X010622Y021119D02*
X033872Y021119D01*
X010622Y021074D02*
X033872Y021074D01*
X010622Y021029D02*
X033872Y021029D01*
X028902Y020984D02*
X033872Y020984D01*
X028994Y020939D02*
X033872Y020939D01*
X029051Y020894D02*
X033872Y020894D01*
X029091Y020849D02*
X033872Y020849D01*
X029121Y020804D02*
X033872Y020804D01*
X029143Y020759D02*
X033872Y020759D01*
X029158Y020714D02*
X033872Y020714D01*
X029168Y020669D02*
X033872Y020669D01*
X029172Y020624D02*
X033872Y020624D01*
X029171Y020579D02*
X033872Y020579D01*
X029165Y020534D02*
X033872Y020534D01*
X029153Y020489D02*
X033872Y020489D01*
X029136Y020444D02*
X033872Y020444D01*
X029112Y020399D02*
X033872Y020399D01*
X029079Y020354D02*
X033872Y020354D01*
X029034Y020309D02*
X033872Y020309D01*
X028969Y020264D02*
X033872Y020264D01*
X028839Y020219D02*
X033872Y020219D01*
X010668Y020174D02*
X033872Y020174D01*
X010668Y020129D02*
X033872Y020129D01*
X010668Y020084D02*
X033872Y020084D01*
X010668Y020039D02*
X033872Y020039D01*
X010668Y019994D02*
X033872Y019994D01*
X010668Y019949D02*
X033872Y019949D01*
X010668Y019904D02*
X033872Y019904D01*
X010668Y019859D02*
X033872Y019859D01*
X010668Y019814D02*
X033872Y019814D01*
X010668Y019769D02*
X033872Y019769D01*
X010668Y019724D02*
X033872Y019724D01*
X010668Y019679D02*
X033872Y019679D01*
X010668Y019634D02*
X033872Y019634D01*
X010668Y019589D02*
X033872Y019589D01*
X010668Y019544D02*
X033872Y019544D01*
X010668Y019499D02*
X033872Y019499D01*
X010668Y019454D02*
X033872Y019454D01*
X010668Y019409D02*
X033872Y019409D01*
X010668Y019364D02*
X033872Y019364D01*
X010668Y019319D02*
X033872Y019319D01*
X010668Y019274D02*
X033872Y019274D01*
X010668Y019229D02*
X033872Y019229D01*
X010668Y019184D02*
X033872Y019184D01*
X010668Y019139D02*
X033872Y019139D01*
X010668Y019094D02*
X033872Y019094D01*
X010668Y019049D02*
X033872Y019049D01*
X010668Y019004D02*
X033872Y019004D01*
X010668Y018959D02*
X033872Y018959D01*
X010668Y018914D02*
X033872Y018914D01*
X010668Y018869D02*
X033872Y018869D01*
X010668Y018824D02*
X033872Y018824D01*
X018274Y018779D02*
X033872Y018779D01*
X019866Y018734D02*
X033872Y018734D01*
X019917Y018689D02*
X033872Y018689D01*
X019946Y018644D02*
X033872Y018644D01*
X019961Y018599D02*
X033872Y018599D01*
X019967Y018554D02*
X033872Y018554D01*
X019963Y018509D02*
X033872Y018509D01*
X019950Y018464D02*
X033872Y018464D01*
X019924Y018419D02*
X033872Y018419D01*
X019880Y018374D02*
X033872Y018374D01*
X015024Y018329D02*
X033872Y018329D01*
X015071Y018284D02*
X033872Y018284D01*
X015098Y018239D02*
X033872Y018239D01*
X019199Y018194D02*
X033872Y018194D01*
X019258Y018149D02*
X033872Y018149D01*
X019290Y018104D02*
X033872Y018104D01*
X019309Y018059D02*
X033872Y018059D01*
X019317Y018014D02*
X033872Y018014D01*
X019315Y017969D02*
X033872Y017969D01*
X019304Y017924D02*
X033872Y017924D01*
X019281Y017879D02*
X033872Y017879D01*
X019242Y017834D02*
X033872Y017834D01*
X019162Y017789D02*
X033872Y017789D01*
X018696Y017744D02*
X033872Y017744D01*
X018711Y017699D02*
X033872Y017699D01*
X018717Y017654D02*
X033872Y017654D01*
X018713Y017609D02*
X033872Y017609D01*
X018700Y017564D02*
X033872Y017564D01*
X018674Y017519D02*
X033872Y017519D01*
X018630Y017474D02*
X033872Y017474D01*
X014865Y017429D02*
X033872Y017429D01*
X014867Y017384D02*
X033872Y017384D01*
X014859Y017339D02*
X033872Y017339D01*
X014840Y017294D02*
X033872Y017294D01*
X014808Y017249D02*
X033872Y017249D01*
X014749Y017204D02*
X033872Y017204D01*
X010854Y017159D02*
X033872Y017159D01*
X010858Y017114D02*
X033872Y017114D01*
X010854Y017069D02*
X033872Y017069D01*
X010842Y017024D02*
X033872Y017024D01*
X010821Y016979D02*
X033872Y016979D01*
X010788Y016934D02*
X033872Y016934D01*
X010733Y016889D02*
X033872Y016889D01*
X010668Y016844D02*
X033872Y016844D01*
X010668Y016799D02*
X033872Y016799D01*
X010668Y016754D02*
X033872Y016754D01*
X017163Y016709D02*
X033872Y016709D01*
X017243Y016664D02*
X033872Y016664D01*
X017282Y016619D02*
X033872Y016619D01*
X017304Y016574D02*
X033872Y016574D01*
X017315Y016529D02*
X033872Y016529D01*
X017317Y016484D02*
X033872Y016484D01*
X017309Y016439D02*
X033872Y016439D01*
X017290Y016394D02*
X033872Y016394D01*
X017258Y016349D02*
X033872Y016349D01*
X017199Y016304D02*
X033872Y016304D01*
X010668Y016259D02*
X033872Y016259D01*
X010668Y016214D02*
X033872Y016214D01*
X010668Y016169D02*
X033872Y016169D01*
X010668Y016124D02*
X033872Y016124D01*
X010668Y016079D02*
X033872Y016079D01*
X010668Y016034D02*
X033872Y016034D01*
X010668Y015989D02*
X033872Y015989D01*
X010668Y015944D02*
X033872Y015944D01*
X010668Y015899D02*
X033872Y015899D01*
X010668Y015854D02*
X033872Y015854D01*
X010668Y015809D02*
X033872Y015809D01*
X010668Y015764D02*
X033872Y015764D01*
X010668Y015719D02*
X033872Y015719D01*
X010668Y015674D02*
X033872Y015674D01*
X010668Y015629D02*
X033872Y015629D01*
X010668Y015584D02*
X033872Y015584D01*
X010668Y015539D02*
X033872Y015539D01*
X010668Y015494D02*
X033872Y015494D01*
X025424Y032774D02*
X030772Y032774D01*
X025395Y032729D02*
X030772Y032729D01*
X025360Y032684D02*
X030772Y032684D01*
X025318Y032639D02*
X030772Y032639D01*
X025268Y032594D02*
X030772Y032594D01*
X025205Y032549D02*
X030772Y032549D01*
X025122Y032504D02*
X030772Y032504D01*
X024982Y032459D02*
X030772Y032459D01*
X015108Y032414D02*
X030772Y032414D01*
X015126Y032369D02*
X030772Y032369D01*
X015137Y032324D02*
X030772Y032324D01*
X015143Y032279D02*
X030772Y032279D01*
X015144Y032234D02*
X030772Y032234D01*
X015140Y032189D02*
X030772Y032189D01*
X015130Y032144D02*
X030772Y032144D01*
X015115Y032099D02*
X030772Y032099D01*
X015093Y032054D02*
X030772Y032054D01*
X015063Y032009D02*
X030772Y032009D01*
X015023Y031964D02*
X030772Y031964D01*
X014966Y031919D02*
X030772Y031919D01*
X014873Y031874D02*
X030772Y031874D01*
X010668Y031829D02*
X030772Y031829D01*
X010668Y031784D02*
X030772Y031784D01*
X010668Y031739D02*
X030772Y031739D01*
X010668Y031694D02*
X030772Y031694D01*
X010668Y031649D02*
X030772Y031649D01*
X010668Y031604D02*
X030772Y031604D01*
X010668Y031559D02*
X030772Y031559D01*
X019994Y031514D02*
X030772Y031514D01*
X020087Y031469D02*
X030772Y031469D01*
X020128Y031424D02*
X030772Y031424D01*
X020152Y031379D02*
X030772Y031379D01*
X020164Y031334D02*
X030772Y031334D01*
X020167Y031289D02*
X030772Y031289D01*
X020160Y031244D02*
X030772Y031244D01*
X026839Y031199D02*
X030772Y031199D01*
X026903Y031154D02*
X030772Y031154D01*
X026938Y031109D02*
X030772Y031109D01*
X026957Y031064D02*
X030772Y031064D01*
X026966Y031019D02*
X030772Y031019D01*
X026966Y030974D02*
X030772Y030974D01*
X026956Y030929D02*
X030772Y030929D01*
X026935Y030884D02*
X030772Y030884D01*
X026898Y030839D02*
X030772Y030839D01*
X026827Y030794D02*
X030772Y030794D01*
X015964Y030749D02*
X030772Y030749D01*
X015948Y030704D02*
X030772Y030704D01*
X019513Y030659D02*
X030772Y030659D01*
X019593Y030614D02*
X030772Y030614D01*
X019632Y030569D02*
X030772Y030569D01*
X019654Y030524D02*
X030772Y030524D01*
X019665Y030479D02*
X030772Y030479D01*
X025666Y030434D02*
X030772Y030434D01*
X025717Y030389D02*
X030772Y030389D01*
X027249Y030344D02*
X030772Y030344D01*
X027308Y030299D02*
X030772Y030299D01*
X027340Y030254D02*
X030772Y030254D01*
X027359Y030209D02*
X030772Y030209D01*
X027367Y030164D02*
X030772Y030164D01*
X027365Y030119D02*
X030772Y030119D01*
X027354Y030074D02*
X030772Y030074D01*
X027331Y030029D02*
X030772Y030029D01*
X027292Y029984D02*
X030772Y029984D01*
X027212Y029939D02*
X030772Y029939D01*
X010668Y029894D02*
X030772Y029894D01*
X010668Y029849D02*
X030772Y029849D01*
X010668Y029804D02*
X030772Y029804D01*
X010668Y029759D02*
X030772Y029759D01*
X010668Y029714D02*
X030772Y029714D01*
X010668Y029669D02*
X030772Y029669D01*
X010668Y029624D02*
X030772Y029624D01*
X010668Y029579D02*
X030772Y029579D01*
X010668Y029534D02*
X030772Y029534D01*
X018558Y029489D02*
X030772Y029489D01*
X021299Y029444D02*
X030772Y029444D01*
X021358Y029399D02*
X030772Y029399D01*
X021390Y029354D02*
X030772Y029354D01*
X021409Y029309D02*
X030772Y029309D01*
X021417Y029264D02*
X030772Y029264D01*
X021415Y029219D02*
X030772Y029219D01*
X021404Y029174D02*
X030772Y029174D01*
X021381Y029129D02*
X030772Y029129D01*
X021342Y029084D02*
X030772Y029084D01*
X021262Y029039D02*
X030772Y029039D01*
X030152Y028994D02*
X030772Y028994D01*
X030211Y028949D02*
X030772Y028949D01*
X030243Y028904D02*
X030772Y028904D01*
X030261Y028859D02*
X030772Y028859D01*
X030269Y028814D02*
X030772Y028814D01*
X030267Y028769D02*
X030772Y028769D01*
X030256Y028724D02*
X030772Y028724D01*
X030234Y028679D02*
X030772Y028679D01*
X030195Y028634D02*
X030772Y028634D01*
X030115Y028589D02*
X030772Y028589D01*
X020027Y028544D02*
X030772Y028544D01*
X025639Y028499D02*
X030772Y028499D01*
X025703Y028454D02*
X030772Y028454D01*
X025738Y028409D02*
X030772Y028409D01*
X025757Y028364D02*
X030772Y028364D01*
X025766Y028319D02*
X030772Y028319D01*
X025766Y028274D02*
X030772Y028274D01*
X026924Y028229D02*
X030772Y028229D01*
X026971Y028184D02*
X030772Y028184D01*
X026998Y028139D02*
X030772Y028139D01*
X027012Y028094D02*
X030772Y028094D01*
X027017Y028049D02*
X030772Y028049D01*
X027012Y028004D02*
X030772Y028004D01*
X026998Y027959D02*
X030772Y027959D01*
X026971Y027914D02*
X030772Y027914D01*
X026923Y027869D02*
X030772Y027869D01*
X022881Y027824D02*
X030772Y027824D01*
X022925Y027779D02*
X030772Y027779D01*
X022950Y027734D02*
X030772Y027734D01*
X022963Y027689D02*
X030772Y027689D01*
X022967Y027644D02*
X030772Y027644D01*
X022961Y027599D02*
X030772Y027599D01*
X022945Y027554D02*
X030772Y027554D01*
X022917Y027509D02*
X030772Y027509D01*
X022866Y027464D02*
X030772Y027464D01*
X020955Y027419D02*
X030772Y027419D01*
X021081Y027374D02*
X030772Y027374D01*
X024024Y027329D02*
X030772Y027329D01*
X024071Y027284D02*
X030772Y027284D01*
X024098Y027239D02*
X030772Y027239D01*
X024112Y027194D02*
X030772Y027194D01*
X024117Y027149D02*
X030772Y027149D01*
X024112Y027104D02*
X030772Y027104D01*
X024098Y027059D02*
X030772Y027059D01*
X024071Y027014D02*
X030772Y027014D01*
X024023Y026969D02*
X030772Y026969D01*
X017180Y026924D02*
X030772Y026924D01*
X010668Y026879D02*
X030772Y026879D01*
X010668Y026834D02*
X030772Y026834D01*
X024008Y026789D02*
X030772Y026789D01*
X024063Y026744D02*
X030772Y026744D01*
X024093Y026699D02*
X030772Y026699D01*
X024110Y026654D02*
X030772Y026654D01*
X024117Y026609D02*
X030772Y026609D01*
X024114Y026564D02*
X030772Y026564D01*
X030457Y026519D02*
X030772Y026519D01*
X030583Y026474D02*
X030772Y026474D01*
X030627Y026429D02*
X030772Y026429D01*
X030653Y026384D02*
X030772Y026384D01*
X030666Y026339D02*
X030772Y026339D01*
X030669Y026294D02*
X030772Y026294D01*
X030664Y026249D02*
X030772Y026249D01*
X030648Y026204D02*
X030772Y026204D01*
X030619Y026159D02*
X030772Y026159D01*
X030568Y026114D02*
X030772Y026114D01*
X026923Y026069D02*
X030772Y026069D01*
X024116Y026024D02*
X030772Y026024D01*
X024106Y025979D02*
X030772Y025979D01*
X024085Y025934D02*
X030772Y025934D01*
X024048Y025889D02*
X030772Y025889D01*
X023977Y025844D02*
X030772Y025844D01*
X017267Y025799D02*
X030772Y025799D01*
X026777Y025754D02*
X030772Y025754D01*
X025448Y032819D02*
X030772Y032819D01*
X024102Y026519D02*
X030442Y026519D01*
X026971Y026114D02*
X030331Y026114D01*
X024078Y026474D02*
X030316Y026474D01*
X026998Y026159D02*
X030280Y026159D01*
X026924Y026429D02*
X030272Y026429D01*
X027012Y026204D02*
X030251Y026204D01*
X026971Y026384D02*
X030247Y026384D01*
X027017Y026249D02*
X030235Y026249D01*
X026998Y026339D02*
X030233Y026339D01*
X027012Y026294D02*
X030230Y026294D01*
X020098Y028589D02*
X029984Y028589D01*
X010857Y028994D02*
X029947Y028994D01*
X020135Y028634D02*
X029904Y028634D01*
X020039Y028949D02*
X029888Y028949D01*
X020156Y028679D02*
X029865Y028679D01*
X020103Y028904D02*
X029856Y028904D01*
X020166Y028724D02*
X029843Y028724D01*
X020138Y028859D02*
X029838Y028859D01*
X020166Y028769D02*
X029832Y028769D01*
X020157Y028814D02*
X029830Y028814D01*
X027839Y020219D02*
X028715Y020219D01*
X027902Y020984D02*
X028653Y020984D01*
X027939Y012299D02*
X028615Y012299D01*
X027940Y013019D02*
X028614Y013019D01*
X027969Y020264D02*
X028585Y020264D01*
X027994Y020939D02*
X028560Y020939D01*
X028015Y012344D02*
X028539Y012344D01*
X028016Y012974D02*
X028539Y012974D01*
X028034Y020309D02*
X028520Y020309D01*
X028051Y020894D02*
X028503Y020894D01*
X028065Y012389D02*
X028489Y012389D01*
X028066Y012929D02*
X028489Y012929D01*
X028079Y020354D02*
X028476Y020354D01*
X028091Y020849D02*
X028463Y020849D01*
X028102Y012434D02*
X028452Y012434D01*
X028102Y012884D02*
X028452Y012884D01*
X028112Y020399D02*
X028443Y020399D01*
X028121Y020804D02*
X028433Y020804D01*
X028129Y012479D02*
X028426Y012479D01*
X028129Y012839D02*
X028425Y012839D01*
X028136Y020444D02*
X028418Y020444D01*
X028143Y020759D02*
X028412Y020759D01*
X028148Y012524D02*
X028406Y012524D01*
X028148Y012794D02*
X028406Y012794D01*
X028153Y020489D02*
X028401Y020489D01*
X028158Y020714D02*
X028396Y020714D01*
X028162Y012569D02*
X028392Y012569D01*
X028162Y012749D02*
X028392Y012749D01*
X028165Y020534D02*
X028389Y020534D01*
X028168Y020669D02*
X028387Y020669D01*
X028169Y012614D02*
X028385Y012614D01*
X028170Y012704D02*
X028385Y012704D01*
X028171Y020579D02*
X028383Y020579D01*
X028172Y020624D02*
X028382Y020624D01*
X028172Y012659D02*
X028382Y012659D01*
X026839Y020219D02*
X027715Y020219D01*
X026902Y020984D02*
X027653Y020984D01*
X026939Y012299D02*
X027615Y012299D01*
X026940Y013019D02*
X027614Y013019D01*
X026969Y020264D02*
X027585Y020264D01*
X026994Y020939D02*
X027560Y020939D01*
X027015Y012344D02*
X027539Y012344D01*
X027016Y012974D02*
X027539Y012974D01*
X027034Y020309D02*
X027520Y020309D01*
X027051Y020894D02*
X027503Y020894D01*
X027065Y012389D02*
X027489Y012389D01*
X027066Y012929D02*
X027489Y012929D01*
X027079Y020354D02*
X027476Y020354D01*
X027091Y020849D02*
X027463Y020849D01*
X027102Y012434D02*
X027452Y012434D01*
X027102Y012884D02*
X027452Y012884D01*
X027112Y020399D02*
X027443Y020399D01*
X027121Y020804D02*
X027433Y020804D01*
X027129Y012479D02*
X027426Y012479D01*
X027129Y012839D02*
X027425Y012839D01*
X027136Y020444D02*
X027418Y020444D01*
X027143Y020759D02*
X027412Y020759D01*
X027148Y012524D02*
X027406Y012524D01*
X027148Y012794D02*
X027406Y012794D01*
X027153Y020489D02*
X027401Y020489D01*
X027158Y020714D02*
X027396Y020714D01*
X027162Y012569D02*
X027392Y012569D01*
X027162Y012749D02*
X027392Y012749D01*
X027165Y020534D02*
X027389Y020534D01*
X027168Y020669D02*
X027387Y020669D01*
X027169Y012614D02*
X027385Y012614D01*
X027170Y012704D02*
X027385Y012704D01*
X027171Y020579D02*
X027383Y020579D01*
X027172Y020624D02*
X027382Y020624D01*
X027172Y012659D02*
X027382Y012659D01*
X026255Y024719D02*
X027089Y024719D01*
X020862Y029939D02*
X027082Y029939D01*
X025746Y030344D02*
X027045Y030344D01*
X026327Y025304D02*
X027017Y025304D01*
X026338Y024899D02*
X027006Y024899D01*
X020942Y029984D02*
X027002Y029984D01*
X025761Y030299D02*
X026986Y030299D01*
X026366Y024314D02*
X026978Y024314D01*
X026381Y024674D02*
X026964Y024674D01*
X020981Y030029D02*
X026963Y030029D01*
X025767Y030254D02*
X026954Y030254D01*
X026398Y025259D02*
X026946Y025259D01*
X026403Y024944D02*
X026941Y024944D01*
X025680Y030074D02*
X026940Y030074D01*
X025763Y030209D02*
X026935Y030209D01*
X025724Y030119D02*
X026929Y030119D01*
X025750Y030164D02*
X026928Y030164D01*
X026417Y024359D02*
X026927Y024359D01*
X026425Y024629D02*
X026919Y024629D01*
X026435Y025214D02*
X026909Y025214D01*
X026438Y024989D02*
X026907Y024989D01*
X026445Y024404D02*
X026899Y024404D01*
X026450Y024584D02*
X026894Y024584D01*
X026456Y025169D02*
X026888Y025169D01*
X026457Y025034D02*
X026887Y025034D01*
X026461Y024449D02*
X026883Y024449D01*
X026463Y024539D02*
X026881Y024539D01*
X026466Y025124D02*
X026878Y025124D01*
X026466Y025079D02*
X026878Y025079D01*
X026467Y024494D02*
X026877Y024494D01*
X025839Y020219D02*
X026715Y020219D01*
X022755Y027869D02*
X026671Y027869D01*
X024116Y026069D02*
X026671Y026069D01*
X025756Y028229D02*
X026670Y028229D01*
X024037Y026429D02*
X026670Y026429D01*
X015969Y030794D02*
X026668Y030794D01*
X020143Y031199D02*
X026655Y031199D01*
X025902Y020984D02*
X026653Y020984D01*
X016894Y027914D02*
X026623Y027914D01*
X024107Y026114D02*
X026623Y026114D01*
X025735Y028184D02*
X026623Y028184D01*
X023943Y026384D02*
X026623Y026384D01*
X017262Y025754D02*
X026617Y025754D01*
X025939Y012299D02*
X026615Y012299D01*
X025940Y013019D02*
X026614Y013019D01*
X024093Y025349D02*
X026606Y025349D01*
X018058Y027959D02*
X026596Y027959D01*
X024088Y026159D02*
X026596Y026159D01*
X025698Y028139D02*
X026596Y028139D01*
X018412Y026339D02*
X026596Y026339D01*
X015966Y030839D02*
X026596Y030839D01*
X020112Y031154D02*
X026591Y031154D01*
X025969Y020264D02*
X026585Y020264D01*
X018112Y028004D02*
X026582Y028004D01*
X024053Y026204D02*
X026582Y026204D01*
X025627Y028094D02*
X026582Y028094D01*
X018013Y026294D02*
X026582Y026294D01*
X018143Y028049D02*
X026577Y028049D01*
X023989Y026249D02*
X026577Y026249D01*
X019295Y023819D02*
X026571Y023819D01*
X023217Y024179D02*
X026570Y024179D01*
X025994Y020939D02*
X026560Y020939D01*
X015953Y030884D02*
X026560Y030884D01*
X020058Y031109D02*
X026556Y031109D01*
X017248Y025709D02*
X026546Y025709D01*
X024063Y025394D02*
X026541Y025394D01*
X026015Y012344D02*
X026539Y012344D01*
X026016Y012974D02*
X026539Y012974D01*
X015927Y030929D02*
X026539Y030929D01*
X014218Y031064D02*
X026537Y031064D01*
X015883Y030974D02*
X026528Y030974D01*
X015757Y031019D02*
X026528Y031019D01*
X019354Y023864D02*
X026523Y023864D01*
X023170Y024134D02*
X026523Y024134D01*
X026034Y020309D02*
X026520Y020309D01*
X017221Y025664D02*
X026509Y025664D01*
X024008Y025439D02*
X026507Y025439D01*
X026051Y020894D02*
X026503Y020894D01*
X020323Y023909D02*
X026496Y023909D01*
X020462Y024089D02*
X026496Y024089D01*
X026065Y012389D02*
X026489Y012389D01*
X026066Y012929D02*
X026489Y012929D01*
X017173Y025619D02*
X026488Y025619D01*
X020001Y025484D02*
X026487Y025484D01*
X020394Y023954D02*
X026482Y023954D01*
X020452Y024044D02*
X026482Y024044D01*
X010668Y025574D02*
X026478Y025574D01*
X010668Y025529D02*
X026478Y025529D01*
X020431Y023999D02*
X026477Y023999D01*
X026079Y020354D02*
X026476Y020354D01*
X026091Y020849D02*
X026463Y020849D01*
X026102Y012434D02*
X026452Y012434D01*
X026102Y012884D02*
X026452Y012884D01*
X026112Y020399D02*
X026443Y020399D01*
X026121Y020804D02*
X026433Y020804D01*
X026129Y012479D02*
X026426Y012479D01*
X026129Y012839D02*
X026425Y012839D01*
X026136Y020444D02*
X026418Y020444D01*
X026143Y020759D02*
X026412Y020759D01*
X026148Y012524D02*
X026406Y012524D01*
X026148Y012794D02*
X026406Y012794D01*
X026153Y020489D02*
X026401Y020489D01*
X026158Y020714D02*
X026396Y020714D01*
X026162Y012569D02*
X026392Y012569D01*
X026162Y012749D02*
X026392Y012749D01*
X026165Y020534D02*
X026389Y020534D01*
X026168Y020669D02*
X026387Y020669D01*
X026169Y012614D02*
X026385Y012614D01*
X026170Y012704D02*
X026385Y012704D01*
X026171Y020579D02*
X026383Y020579D01*
X026172Y020624D02*
X026382Y020624D01*
X026172Y012659D02*
X026382Y012659D01*
X024116Y024719D02*
X026239Y024719D01*
X024110Y025304D02*
X026167Y025304D01*
X023989Y024899D02*
X026156Y024899D01*
X023263Y024314D02*
X026128Y024314D01*
X024116Y024674D02*
X026114Y024674D01*
X024117Y025259D02*
X026096Y025259D01*
X017899Y024944D02*
X026091Y024944D01*
X023259Y024359D02*
X026077Y024359D01*
X024106Y024629D02*
X026069Y024629D01*
X024114Y025214D02*
X026059Y025214D01*
X010668Y024989D02*
X026057Y024989D01*
X023244Y024404D02*
X026049Y024404D01*
X024085Y024584D02*
X026044Y024584D01*
X024102Y025169D02*
X026038Y025169D01*
X023943Y025034D02*
X026037Y025034D01*
X023217Y024449D02*
X026033Y024449D01*
X024048Y024539D02*
X026031Y024539D01*
X024078Y025124D02*
X026028Y025124D01*
X024037Y025079D02*
X026028Y025079D01*
X023977Y024494D02*
X026027Y024494D01*
X024839Y020219D02*
X025715Y020219D01*
X024902Y020984D02*
X025653Y020984D01*
X024939Y012299D02*
X025615Y012299D01*
X024940Y013019D02*
X025614Y013019D01*
X024969Y020264D02*
X025585Y020264D01*
X024994Y020939D02*
X025560Y020939D01*
X025015Y012344D02*
X025539Y012344D01*
X025016Y012974D02*
X025539Y012974D01*
X025034Y020309D02*
X025520Y020309D01*
X025051Y020894D02*
X025503Y020894D01*
X025065Y012389D02*
X025489Y012389D01*
X025066Y012929D02*
X025489Y012929D01*
X025079Y020354D02*
X025476Y020354D01*
X018160Y028094D02*
X025468Y028094D01*
X025091Y020849D02*
X025463Y020849D01*
X018041Y028499D02*
X025455Y028499D01*
X025102Y012434D02*
X025452Y012434D01*
X025102Y012884D02*
X025452Y012884D01*
X025112Y020399D02*
X025443Y020399D01*
X025121Y020804D02*
X025433Y020804D01*
X019667Y030434D02*
X025428Y030434D01*
X025129Y012479D02*
X025426Y012479D01*
X025129Y012839D02*
X025425Y012839D01*
X025136Y020444D02*
X025418Y020444D01*
X021004Y030074D02*
X025414Y030074D01*
X025143Y020759D02*
X025412Y020759D01*
X025148Y012524D02*
X025406Y012524D01*
X025148Y012794D02*
X025406Y012794D01*
X025153Y020489D02*
X025401Y020489D01*
X025158Y020714D02*
X025396Y020714D01*
X018167Y028139D02*
X025396Y028139D01*
X025162Y012569D02*
X025392Y012569D01*
X025162Y012749D02*
X025392Y012749D01*
X010804Y028454D02*
X025391Y028454D01*
X025165Y020534D02*
X025389Y020534D01*
X025168Y020669D02*
X025387Y020669D01*
X025169Y012614D02*
X025385Y012614D01*
X025170Y012704D02*
X025385Y012704D01*
X025171Y020579D02*
X025383Y020579D01*
X025172Y020624D02*
X025382Y020624D01*
X025172Y012659D02*
X025382Y012659D01*
X019659Y030389D02*
X025377Y030389D01*
X021015Y030119D02*
X025370Y030119D01*
X018164Y028184D02*
X025360Y028184D01*
X010779Y028409D02*
X025356Y028409D01*
X020899Y030344D02*
X025349Y030344D01*
X021017Y030164D02*
X025344Y030164D01*
X018152Y028229D02*
X025339Y028229D01*
X017994Y028364D02*
X025337Y028364D01*
X020958Y030299D02*
X025333Y030299D01*
X021009Y030209D02*
X025331Y030209D01*
X018128Y028274D02*
X025328Y028274D01*
X018087Y028319D02*
X025328Y028319D01*
X020990Y030254D02*
X025327Y030254D01*
X023839Y020219D02*
X024715Y020219D01*
X021773Y032459D02*
X024714Y032459D01*
X023902Y020984D02*
X024653Y020984D01*
X023939Y012299D02*
X024615Y012299D01*
X023940Y013019D02*
X024614Y013019D01*
X023969Y020264D02*
X024585Y020264D01*
X021913Y032504D02*
X024574Y032504D01*
X023994Y020939D02*
X024560Y020939D01*
X024015Y012344D02*
X024539Y012344D01*
X024016Y012974D02*
X024539Y012974D01*
X024034Y020309D02*
X024520Y020309D01*
X024051Y020894D02*
X024503Y020894D01*
X021997Y032549D02*
X024490Y032549D01*
X024065Y012389D02*
X024489Y012389D01*
X024066Y012929D02*
X024489Y012929D01*
X024079Y020354D02*
X024476Y020354D01*
X024091Y020849D02*
X024463Y020849D01*
X024102Y012434D02*
X024452Y012434D01*
X024102Y012884D02*
X024452Y012884D01*
X024112Y020399D02*
X024443Y020399D01*
X024121Y020804D02*
X024433Y020804D01*
X022060Y032594D02*
X024428Y032594D01*
X024129Y012479D02*
X024426Y012479D01*
X024129Y012839D02*
X024425Y012839D01*
X024136Y020444D02*
X024418Y020444D01*
X024143Y020759D02*
X024412Y020759D01*
X024148Y012524D02*
X024406Y012524D01*
X024148Y012794D02*
X024406Y012794D01*
X024153Y020489D02*
X024401Y020489D01*
X024158Y020714D02*
X024396Y020714D01*
X024162Y012569D02*
X024392Y012569D01*
X024162Y012749D02*
X024392Y012749D01*
X024165Y020534D02*
X024389Y020534D01*
X024168Y020669D02*
X024387Y020669D01*
X024169Y012614D02*
X024385Y012614D01*
X024170Y012704D02*
X024385Y012704D01*
X024171Y020579D02*
X024383Y020579D01*
X024172Y020624D02*
X024382Y020624D01*
X024172Y012659D02*
X024382Y012659D01*
X022110Y032639D02*
X024377Y032639D01*
X022151Y032684D02*
X024336Y032684D01*
X022186Y032729D02*
X024301Y032729D01*
X022215Y032774D02*
X024272Y032774D01*
X022239Y032819D02*
X024248Y032819D01*
X018492Y026384D02*
X023851Y026384D01*
X017093Y025034D02*
X023851Y025034D01*
X017262Y025844D02*
X023818Y025844D01*
X023170Y024494D02*
X023818Y024494D01*
X018043Y026249D02*
X023805Y026249D01*
X017958Y024899D02*
X023805Y024899D01*
X010668Y026789D02*
X023786Y026789D01*
X020127Y025439D02*
X023786Y025439D01*
X017224Y026969D02*
X023771Y026969D01*
X021125Y027329D02*
X023770Y027329D01*
X018531Y026429D02*
X023758Y026429D01*
X020112Y025079D02*
X023758Y025079D01*
X017248Y025889D02*
X023746Y025889D01*
X017862Y024539D02*
X023746Y024539D01*
X018060Y026204D02*
X023741Y026204D01*
X017990Y024854D02*
X023741Y024854D01*
X018449Y026744D02*
X023731Y026744D01*
X020171Y025394D02*
X023731Y025394D01*
X021066Y027014D02*
X023723Y027014D01*
X021150Y027284D02*
X023723Y027284D01*
X018554Y026474D02*
X023716Y026474D01*
X020163Y025124D02*
X023716Y025124D01*
X022839Y020219D02*
X023715Y020219D01*
X017893Y025934D02*
X023710Y025934D01*
X017942Y024584D02*
X023710Y024584D01*
X018067Y026159D02*
X023706Y026159D01*
X018009Y024809D02*
X023706Y024809D01*
X018508Y026699D02*
X023701Y026699D01*
X020196Y025349D02*
X023701Y025349D01*
X021117Y027059D02*
X023696Y027059D01*
X021163Y027239D02*
X023696Y027239D01*
X018565Y026519D02*
X023692Y026519D01*
X020192Y025169D02*
X023692Y025169D01*
X017987Y025979D02*
X023689Y025979D01*
X017981Y024629D02*
X023689Y024629D01*
X018064Y026114D02*
X023687Y026114D01*
X018017Y024764D02*
X023687Y024764D01*
X018540Y026654D02*
X023684Y026654D01*
X020210Y025304D02*
X023684Y025304D01*
X021145Y027104D02*
X023682Y027104D01*
X021167Y027194D02*
X023682Y027194D01*
X018567Y026564D02*
X023680Y026564D01*
X020207Y025214D02*
X023680Y025214D01*
X018028Y026024D02*
X023678Y026024D01*
X018004Y024674D02*
X023678Y024674D01*
X018052Y026069D02*
X023678Y026069D01*
X018015Y024719D02*
X023678Y024719D01*
X018559Y026609D02*
X023677Y026609D01*
X020213Y025259D02*
X023677Y025259D01*
X021161Y027149D02*
X023677Y027149D01*
X022902Y020984D02*
X023653Y020984D01*
X022939Y012299D02*
X023615Y012299D01*
X022940Y013019D02*
X023614Y013019D01*
X022969Y020264D02*
X023585Y020264D01*
X022994Y020939D02*
X023560Y020939D01*
X023015Y012344D02*
X023539Y012344D01*
X023016Y012974D02*
X023539Y012974D01*
X023034Y020309D02*
X023520Y020309D01*
X023051Y020894D02*
X023503Y020894D01*
X023065Y012389D02*
X023489Y012389D01*
X023066Y012929D02*
X023489Y012929D01*
X023079Y020354D02*
X023476Y020354D01*
X023091Y020849D02*
X023463Y020849D01*
X023102Y012434D02*
X023452Y012434D01*
X023102Y012884D02*
X023452Y012884D01*
X023112Y020399D02*
X023443Y020399D01*
X023121Y020804D02*
X023433Y020804D01*
X023129Y012479D02*
X023426Y012479D01*
X023129Y012839D02*
X023425Y012839D01*
X023136Y020444D02*
X023418Y020444D01*
X023143Y020759D02*
X023412Y020759D01*
X023148Y012524D02*
X023406Y012524D01*
X023148Y012794D02*
X023406Y012794D01*
X023153Y020489D02*
X023401Y020489D01*
X023158Y020714D02*
X023396Y020714D01*
X023162Y012569D02*
X023392Y012569D01*
X023162Y012749D02*
X023392Y012749D01*
X023165Y020534D02*
X023389Y020534D01*
X023168Y020669D02*
X023387Y020669D01*
X023169Y012614D02*
X023385Y012614D01*
X023170Y012704D02*
X023385Y012704D01*
X023171Y020579D02*
X023383Y020579D01*
X023172Y020624D02*
X023382Y020624D01*
X023172Y012659D02*
X023382Y012659D01*
X020462Y024134D02*
X022917Y024134D01*
X010668Y024494D02*
X022917Y024494D01*
X020453Y024179D02*
X022870Y024179D01*
X010668Y024449D02*
X022869Y024449D01*
X020434Y024224D02*
X022843Y024224D01*
X017827Y024404D02*
X022842Y024404D01*
X020399Y024269D02*
X022828Y024269D01*
X017898Y024359D02*
X022828Y024359D01*
X020335Y024314D02*
X022823Y024314D01*
X016987Y027869D02*
X022739Y027869D01*
X021839Y020219D02*
X022715Y020219D01*
X021902Y020984D02*
X022653Y020984D01*
X018443Y027464D02*
X022628Y027464D01*
X021939Y012299D02*
X022615Y012299D01*
X021940Y013019D02*
X022614Y013019D01*
X017028Y027824D02*
X022614Y027824D01*
X021969Y020264D02*
X022585Y020264D01*
X018363Y027509D02*
X022577Y027509D01*
X017052Y027779D02*
X022569Y027779D01*
X021994Y020939D02*
X022560Y020939D01*
X017012Y027554D02*
X022549Y027554D01*
X017064Y027734D02*
X022544Y027734D01*
X022015Y012344D02*
X022539Y012344D01*
X022016Y012974D02*
X022539Y012974D01*
X017043Y027599D02*
X022533Y027599D01*
X017067Y027689D02*
X022531Y027689D01*
X017060Y027644D02*
X022527Y027644D01*
X022034Y020309D02*
X022520Y020309D01*
X022051Y020894D02*
X022503Y020894D01*
X022065Y012389D02*
X022489Y012389D01*
X022066Y012929D02*
X022489Y012929D01*
X022079Y020354D02*
X022476Y020354D01*
X022091Y020849D02*
X022463Y020849D01*
X022102Y012434D02*
X022452Y012434D01*
X022102Y012884D02*
X022452Y012884D01*
X022112Y020399D02*
X022443Y020399D01*
X022121Y020804D02*
X022433Y020804D01*
X022129Y012479D02*
X022426Y012479D01*
X022129Y012839D02*
X022425Y012839D01*
X022136Y020444D02*
X022418Y020444D01*
X022143Y020759D02*
X022412Y020759D01*
X022148Y012524D02*
X022406Y012524D01*
X022148Y012794D02*
X022406Y012794D01*
X022153Y020489D02*
X022401Y020489D01*
X022158Y020714D02*
X022396Y020714D01*
X022162Y012569D02*
X022392Y012569D01*
X022162Y012749D02*
X022392Y012749D01*
X022165Y020534D02*
X022389Y020534D01*
X022168Y020669D02*
X022387Y020669D01*
X022169Y012614D02*
X022385Y012614D01*
X022170Y012704D02*
X022385Y012704D01*
X022171Y020579D02*
X022383Y020579D01*
X022172Y020624D02*
X022382Y020624D01*
X022172Y012659D02*
X022382Y012659D01*
X019352Y023684D02*
X022328Y023684D01*
X020617Y022604D02*
X022319Y022604D01*
X010668Y021704D02*
X022319Y021704D01*
X018428Y023324D02*
X022314Y023324D01*
X010668Y022199D02*
X022308Y022199D01*
X010630Y021299D02*
X022308Y021299D01*
X019362Y023639D02*
X022277Y023639D01*
X018387Y023369D02*
X022270Y023369D01*
X019362Y023594D02*
X022249Y023594D01*
X020613Y022559D02*
X022248Y022559D01*
X010668Y021659D02*
X022248Y021659D01*
X019235Y023414D02*
X022244Y023414D01*
X010668Y022244D02*
X022244Y022244D01*
X010647Y021344D02*
X022244Y021344D01*
X019353Y023549D02*
X022233Y023549D01*
X019299Y023459D02*
X022231Y023459D01*
X019334Y023504D02*
X022227Y023504D01*
X020600Y022514D02*
X022212Y022514D01*
X010668Y021614D02*
X022212Y021614D01*
X010668Y022289D02*
X022209Y022289D01*
X010659Y021389D02*
X022209Y021389D01*
X020574Y022469D02*
X022191Y022469D01*
X010668Y021569D02*
X022191Y021569D01*
X010668Y022334D02*
X022189Y022334D01*
X010666Y021434D02*
X022189Y021434D01*
X020530Y022424D02*
X022181Y022424D01*
X010668Y021524D02*
X022181Y021524D01*
X010668Y022379D02*
X022180Y022379D01*
X010668Y021479D02*
X022180Y021479D01*
X020839Y020219D02*
X021715Y020219D01*
X020902Y020984D02*
X021653Y020984D01*
X020939Y012299D02*
X021615Y012299D01*
X020940Y013019D02*
X021614Y013019D01*
X020969Y020264D02*
X021585Y020264D01*
X020994Y020939D02*
X021560Y020939D01*
X021015Y012344D02*
X021539Y012344D01*
X021016Y012974D02*
X021539Y012974D01*
X021034Y020309D02*
X021520Y020309D01*
X015084Y032459D02*
X021505Y032459D01*
X021051Y020894D02*
X021503Y020894D01*
X021065Y012389D02*
X021489Y012389D01*
X021066Y012929D02*
X021489Y012929D01*
X021079Y020354D02*
X021476Y020354D01*
X021091Y020849D02*
X021463Y020849D01*
X021102Y012434D02*
X021452Y012434D01*
X021102Y012884D02*
X021452Y012884D01*
X021112Y020399D02*
X021443Y020399D01*
X021121Y020804D02*
X021433Y020804D01*
X021129Y012479D02*
X021426Y012479D01*
X021129Y012839D02*
X021425Y012839D01*
X021136Y020444D02*
X021418Y020444D01*
X021143Y020759D02*
X021412Y020759D01*
X021148Y012524D02*
X021406Y012524D01*
X021148Y012794D02*
X021406Y012794D01*
X021153Y020489D02*
X021401Y020489D01*
X021158Y020714D02*
X021396Y020714D01*
X021162Y012569D02*
X021392Y012569D01*
X021162Y012749D02*
X021392Y012749D01*
X021165Y020534D02*
X021389Y020534D01*
X021168Y020669D02*
X021387Y020669D01*
X021169Y012614D02*
X021385Y012614D01*
X021170Y012704D02*
X021385Y012704D01*
X021171Y020579D02*
X021383Y020579D01*
X021172Y020624D02*
X021382Y020624D01*
X021172Y012659D02*
X021382Y012659D01*
X015051Y032504D02*
X021366Y032504D01*
X015007Y032549D02*
X021282Y032549D01*
X014942Y032594D02*
X021219Y032594D01*
X014813Y032639D02*
X021169Y032639D01*
X019962Y029039D02*
X021132Y029039D01*
X010668Y032684D02*
X021127Y032684D01*
X019999Y029444D02*
X021095Y029444D01*
X010668Y032729D02*
X021093Y032729D01*
X010668Y032774D02*
X021064Y032774D01*
X020042Y029084D02*
X021052Y029084D01*
X010669Y032819D02*
X021039Y032819D01*
X020058Y029399D02*
X021036Y029399D01*
X020081Y029129D02*
X021013Y029129D01*
X020090Y029354D02*
X021004Y029354D01*
X020104Y029174D02*
X020990Y029174D01*
X020109Y029309D02*
X020985Y029309D01*
X020115Y029219D02*
X020979Y029219D01*
X020117Y029264D02*
X020978Y029264D01*
X018482Y027419D02*
X020939Y027419D01*
X017250Y027014D02*
X020828Y027014D01*
X018504Y027374D02*
X020814Y027374D01*
X017263Y027059D02*
X020777Y027059D01*
X018515Y027329D02*
X020769Y027329D01*
X018399Y027104D02*
X020749Y027104D01*
X018517Y027284D02*
X020744Y027284D01*
X018458Y027149D02*
X020733Y027149D01*
X020312Y029939D02*
X020732Y029939D01*
X018509Y027239D02*
X020731Y027239D01*
X018490Y027194D02*
X020727Y027194D01*
X019839Y020219D02*
X020715Y020219D01*
X020349Y030344D02*
X020695Y030344D01*
X019902Y020984D02*
X020653Y020984D01*
X020392Y029984D02*
X020652Y029984D01*
X020408Y030299D02*
X020636Y030299D01*
X019939Y012299D02*
X020615Y012299D01*
X019940Y013019D02*
X020614Y013019D01*
X020431Y030029D02*
X020613Y030029D01*
X020440Y030254D02*
X020604Y030254D01*
X020454Y030074D02*
X020590Y030074D01*
X020459Y030209D02*
X020585Y030209D01*
X019969Y020264D02*
X020585Y020264D01*
X020465Y030119D02*
X020579Y030119D01*
X020467Y030164D02*
X020578Y030164D01*
X019994Y020939D02*
X020560Y020939D01*
X020015Y012344D02*
X020539Y012344D01*
X020016Y012974D02*
X020539Y012974D01*
X020034Y020309D02*
X020520Y020309D01*
X020051Y020894D02*
X020503Y020894D01*
X020065Y012389D02*
X020489Y012389D01*
X020066Y012929D02*
X020489Y012929D01*
X020079Y020354D02*
X020476Y020354D01*
X020091Y020849D02*
X020463Y020849D01*
X020102Y012434D02*
X020452Y012434D01*
X020102Y012884D02*
X020452Y012884D01*
X020112Y020399D02*
X020443Y020399D01*
X020121Y020804D02*
X020433Y020804D01*
X020129Y012479D02*
X020426Y012479D01*
X020129Y012839D02*
X020425Y012839D01*
X020136Y020444D02*
X020418Y020444D01*
X020143Y020759D02*
X020412Y020759D01*
X020148Y012524D02*
X020406Y012524D01*
X020148Y012794D02*
X020406Y012794D01*
X020153Y020489D02*
X020401Y020489D01*
X020158Y020714D02*
X020396Y020714D01*
X020162Y012569D02*
X020392Y012569D01*
X020162Y012749D02*
X020392Y012749D01*
X020165Y020534D02*
X020389Y020534D01*
X020168Y020669D02*
X020387Y020669D01*
X020169Y012614D02*
X020385Y012614D01*
X020170Y012704D02*
X020385Y012704D01*
X020171Y020579D02*
X020383Y020579D01*
X020172Y020624D02*
X020382Y020624D01*
X020172Y012659D02*
X020382Y012659D01*
X019367Y022784D02*
X020278Y022784D01*
X010668Y022424D02*
X020264Y022424D01*
X019359Y022739D02*
X020227Y022739D01*
X010668Y022469D02*
X020220Y022469D01*
X019340Y022694D02*
X020199Y022694D01*
X010668Y022514D02*
X020194Y022514D01*
X019308Y022649D02*
X020183Y022649D01*
X018912Y029939D02*
X020182Y029939D01*
X010668Y022559D02*
X020181Y022559D01*
X019249Y022604D02*
X020177Y022604D01*
X019386Y023909D02*
X020164Y023909D01*
X017935Y024314D02*
X020151Y024314D01*
X019640Y030344D02*
X020145Y030344D01*
X018992Y029984D02*
X020102Y029984D01*
X019405Y023954D02*
X020092Y023954D01*
X017956Y024269D02*
X020087Y024269D01*
X019608Y030299D02*
X020086Y030299D01*
X019031Y030029D02*
X020063Y030029D01*
X019413Y023999D02*
X020056Y023999D01*
X019549Y030254D02*
X020054Y030254D01*
X019259Y024224D02*
X020053Y024224D01*
X019054Y030074D02*
X020040Y030074D01*
X019059Y030209D02*
X020035Y030209D01*
X019411Y024044D02*
X020035Y024044D01*
X019339Y024179D02*
X020033Y024179D01*
X019065Y030119D02*
X020029Y030119D01*
X019067Y030164D02*
X020028Y030164D01*
X019400Y024089D02*
X020025Y024089D01*
X019378Y024134D02*
X020024Y024134D01*
X019651Y025484D02*
X019986Y025484D01*
X019444Y031514D02*
X019900Y031514D01*
X019762Y025079D02*
X019874Y025079D01*
X018105Y028544D02*
X019868Y028544D01*
X019777Y025439D02*
X019860Y025439D01*
X010850Y028949D02*
X019855Y028949D01*
X019508Y031109D02*
X019836Y031109D01*
X010857Y029039D02*
X019832Y029039D01*
X019537Y031469D02*
X019807Y031469D01*
X018140Y028589D02*
X019796Y028589D01*
X018613Y029444D02*
X019795Y029444D01*
X018030Y028904D02*
X019791Y028904D01*
X019562Y031154D02*
X019782Y031154D01*
X019578Y031424D02*
X019766Y031424D01*
X018160Y028634D02*
X019760Y028634D01*
X018101Y028859D02*
X019756Y028859D01*
X018493Y029084D02*
X019752Y029084D01*
X019593Y031199D02*
X019751Y031199D01*
X019602Y031379D02*
X019742Y031379D01*
X018169Y028679D02*
X019739Y028679D01*
X018137Y028814D02*
X019737Y028814D01*
X018643Y029399D02*
X019736Y029399D01*
X019610Y031244D02*
X019734Y031244D01*
X019614Y031334D02*
X019730Y031334D01*
X018168Y028724D02*
X019728Y028724D01*
X018158Y028769D02*
X019728Y028769D01*
X019617Y031289D02*
X019727Y031289D01*
X018839Y020219D02*
X019715Y020219D01*
X018587Y029129D02*
X019713Y029129D01*
X018660Y029354D02*
X019704Y029354D01*
X018628Y029174D02*
X019690Y029174D01*
X018667Y029309D02*
X019685Y029309D01*
X018652Y029219D02*
X019679Y029219D01*
X018664Y029264D02*
X019678Y029264D01*
X018902Y020984D02*
X019653Y020984D01*
X010668Y025484D02*
X019636Y025484D01*
X018321Y018734D02*
X019628Y018734D01*
X018939Y012299D02*
X019615Y012299D01*
X018940Y013019D02*
X019614Y013019D01*
X010851Y018374D02*
X019614Y018374D01*
X018969Y020264D02*
X019585Y020264D01*
X018348Y018689D02*
X019577Y018689D01*
X018273Y018419D02*
X019570Y018419D01*
X018994Y020939D02*
X019560Y020939D01*
X018362Y018644D02*
X019549Y018644D01*
X018321Y018464D02*
X019544Y018464D01*
X019015Y012344D02*
X019539Y012344D01*
X019016Y012974D02*
X019539Y012974D01*
X018367Y018599D02*
X019533Y018599D01*
X018348Y018509D02*
X019531Y018509D01*
X018362Y018554D02*
X019527Y018554D01*
X017187Y025079D02*
X019524Y025079D01*
X019034Y020309D02*
X019520Y020309D01*
X017158Y025439D02*
X019510Y025439D01*
X019051Y020894D02*
X019503Y020894D01*
X019065Y012389D02*
X019489Y012389D01*
X019066Y012929D02*
X019489Y012929D01*
X019079Y020354D02*
X019476Y020354D01*
X017228Y025124D02*
X019474Y025124D01*
X017213Y025394D02*
X019466Y025394D01*
X019091Y020849D02*
X019463Y020849D01*
X019102Y012434D02*
X019452Y012434D01*
X019102Y012884D02*
X019452Y012884D01*
X017252Y025169D02*
X019445Y025169D01*
X019112Y020399D02*
X019443Y020399D01*
X017243Y025349D02*
X019440Y025349D01*
X019121Y020804D02*
X019433Y020804D01*
X017264Y025214D02*
X019429Y025214D01*
X017260Y025304D02*
X019427Y025304D01*
X019129Y012479D02*
X019426Y012479D01*
X019129Y012839D02*
X019425Y012839D01*
X017267Y025259D02*
X019423Y025259D01*
X019136Y020444D02*
X019418Y020444D01*
X019143Y020759D02*
X019412Y020759D01*
X019148Y012524D02*
X019406Y012524D01*
X019148Y012794D02*
X019406Y012794D01*
X019153Y020489D02*
X019401Y020489D01*
X019158Y020714D02*
X019396Y020714D01*
X019162Y012569D02*
X019392Y012569D01*
X019162Y012749D02*
X019392Y012749D01*
X019165Y020534D02*
X019389Y020534D01*
X019168Y020669D02*
X019387Y020669D01*
X019169Y012614D02*
X019385Y012614D01*
X019170Y012704D02*
X019385Y012704D01*
X019171Y020579D02*
X019383Y020579D01*
X019172Y020624D02*
X019382Y020624D01*
X019172Y012659D02*
X019382Y012659D01*
X015919Y030659D02*
X019381Y030659D01*
X010668Y031514D02*
X019350Y031514D01*
X019040Y030254D02*
X019345Y030254D01*
X015868Y030614D02*
X019301Y030614D01*
X014269Y031109D02*
X019286Y031109D01*
X019008Y030299D02*
X019286Y030299D01*
X010668Y030569D02*
X019263Y030569D01*
X014107Y031469D02*
X019257Y031469D01*
X018949Y030344D02*
X019254Y030344D01*
X010668Y030524D02*
X019240Y030524D01*
X010668Y030389D02*
X019235Y030389D01*
X014298Y031154D02*
X019232Y031154D01*
X010668Y030479D02*
X019229Y030479D01*
X010668Y030434D02*
X019228Y030434D01*
X014233Y031424D02*
X019216Y031424D01*
X014314Y031199D02*
X019201Y031199D01*
X014277Y031379D02*
X019192Y031379D01*
X014319Y031244D02*
X019184Y031244D01*
X014303Y031334D02*
X019180Y031334D01*
X014316Y031289D02*
X019177Y031289D01*
X017966Y024224D02*
X019127Y024224D01*
X018358Y023009D02*
X019081Y023009D01*
X018294Y023414D02*
X019052Y023414D01*
X017756Y023819D02*
X019052Y023819D01*
X017966Y024179D02*
X019048Y024179D01*
X010668Y022604D02*
X019045Y022604D01*
X017735Y023864D02*
X019032Y023864D01*
X018667Y017789D02*
X019032Y017789D01*
X017957Y024134D02*
X019009Y024134D01*
X010668Y022964D02*
X019001Y022964D01*
X017698Y023909D02*
X019000Y023909D01*
X015112Y018194D02*
X018995Y018194D01*
X017766Y023774D02*
X018992Y023774D01*
X010668Y023459D02*
X018987Y023459D01*
X017938Y024089D02*
X018986Y024089D01*
X010668Y022649D02*
X018986Y022649D01*
X017627Y023954D02*
X018982Y023954D01*
X017903Y024044D02*
X018975Y024044D01*
X017838Y023999D02*
X018974Y023999D01*
X010668Y022154D02*
X018967Y022154D01*
X010668Y022919D02*
X018963Y022919D01*
X010668Y021749D02*
X018956Y021749D01*
X017766Y023729D02*
X018956Y023729D01*
X010668Y022694D02*
X018954Y022694D01*
X010668Y023504D02*
X018953Y023504D01*
X018616Y017834D02*
X018952Y017834D01*
X010668Y022874D02*
X018940Y022874D01*
X015117Y018149D02*
X018936Y018149D01*
X010668Y022739D02*
X018935Y022739D01*
X017757Y023684D02*
X018935Y023684D01*
X017638Y023549D02*
X018933Y023549D01*
X010668Y022829D02*
X018929Y022829D01*
X010668Y022784D02*
X018928Y022784D01*
X017738Y023639D02*
X018925Y023639D01*
X017703Y023594D02*
X018924Y023594D01*
X016352Y017879D02*
X018913Y017879D01*
X015112Y018104D02*
X018904Y018104D01*
X010668Y022109D02*
X018896Y022109D01*
X010668Y021794D02*
X018891Y021794D01*
X016328Y017924D02*
X018890Y017924D01*
X015098Y018059D02*
X018885Y018059D01*
X016287Y017969D02*
X018879Y017969D01*
X016194Y018014D02*
X018878Y018014D01*
X010668Y022064D02*
X018859Y022064D01*
X010668Y021839D02*
X018857Y021839D01*
X010668Y022019D02*
X018838Y022019D01*
X010668Y021884D02*
X018837Y021884D01*
X010668Y021974D02*
X018828Y021974D01*
X010668Y021929D02*
X018828Y021929D01*
X010668Y029939D02*
X018782Y029939D01*
X010668Y030344D02*
X018745Y030344D01*
X017839Y020219D02*
X018715Y020219D01*
X010668Y029984D02*
X018702Y029984D01*
X010668Y030299D02*
X018686Y030299D01*
X010668Y030029D02*
X018663Y030029D01*
X010668Y030254D02*
X018654Y030254D01*
X017902Y020984D02*
X018653Y020984D01*
X010668Y030074D02*
X018640Y030074D01*
X010668Y030209D02*
X018635Y030209D01*
X010668Y030119D02*
X018629Y030119D01*
X010668Y030164D02*
X018628Y030164D01*
X017939Y012299D02*
X018615Y012299D01*
X017940Y013019D02*
X018614Y013019D01*
X017969Y020264D02*
X018585Y020264D01*
X017994Y020939D02*
X018560Y020939D01*
X018015Y012344D02*
X018539Y012344D01*
X018016Y012974D02*
X018539Y012974D01*
X018034Y020309D02*
X018520Y020309D01*
X018051Y020894D02*
X018503Y020894D01*
X018065Y012389D02*
X018489Y012389D01*
X018066Y012929D02*
X018489Y012929D01*
X018079Y020354D02*
X018476Y020354D01*
X018091Y020849D02*
X018463Y020849D01*
X018102Y012434D02*
X018452Y012434D01*
X018102Y012884D02*
X018452Y012884D01*
X018112Y020399D02*
X018443Y020399D01*
X018121Y020804D02*
X018433Y020804D01*
X018129Y012479D02*
X018426Y012479D01*
X018129Y012839D02*
X018425Y012839D01*
X018136Y020444D02*
X018418Y020444D01*
X018143Y020759D02*
X018412Y020759D01*
X018148Y012524D02*
X018406Y012524D01*
X018148Y012794D02*
X018406Y012794D01*
X010849Y029084D02*
X018401Y029084D01*
X018153Y020489D02*
X018401Y020489D01*
X018158Y020714D02*
X018396Y020714D01*
X018162Y012569D02*
X018392Y012569D01*
X018162Y012749D02*
X018392Y012749D01*
X018165Y020534D02*
X018389Y020534D01*
X018168Y020669D02*
X018387Y020669D01*
X018169Y012614D02*
X018385Y012614D01*
X018170Y012704D02*
X018385Y012704D01*
X018171Y020579D02*
X018383Y020579D01*
X018172Y020624D02*
X018382Y020624D01*
X018172Y012659D02*
X018382Y012659D01*
X016364Y017834D02*
X018378Y017834D01*
X014854Y017474D02*
X018364Y017474D01*
X010668Y029489D02*
X018336Y029489D01*
X016367Y017789D02*
X018327Y017789D01*
X014832Y017519D02*
X018320Y017519D01*
X010832Y029129D02*
X018308Y029129D01*
X016360Y017744D02*
X018299Y017744D01*
X014793Y017564D02*
X018294Y017564D01*
X016343Y017699D02*
X018283Y017699D01*
X017958Y026339D02*
X018282Y026339D01*
X010668Y029444D02*
X018281Y029444D01*
X016258Y017609D02*
X018281Y017609D01*
X016312Y017654D02*
X018277Y017654D01*
X010805Y029174D02*
X018266Y029174D01*
X010668Y029399D02*
X018251Y029399D01*
X017149Y026744D02*
X018245Y026744D01*
X010761Y029219D02*
X018242Y029219D01*
X010668Y029354D02*
X018234Y029354D01*
X016958Y027509D02*
X018231Y027509D01*
X010682Y029264D02*
X018230Y029264D01*
X010668Y029309D02*
X018227Y029309D01*
X017192Y026384D02*
X018202Y026384D01*
X010668Y023414D02*
X018200Y023414D01*
X017267Y027104D02*
X018195Y027104D01*
X017208Y026699D02*
X018186Y026699D01*
X017231Y026429D02*
X018163Y026429D01*
X017240Y026654D02*
X018154Y026654D01*
X010668Y027464D02*
X018151Y027464D01*
X017254Y026474D02*
X018140Y026474D01*
X010668Y023009D02*
X018136Y023009D01*
X017261Y027149D02*
X018136Y027149D01*
X017259Y026609D02*
X018135Y026609D01*
X017265Y026519D02*
X018129Y026519D01*
X017267Y026564D02*
X018128Y026564D01*
X010668Y027419D02*
X018113Y027419D01*
X010668Y023369D02*
X018107Y023369D01*
X017246Y027194D02*
X018104Y027194D01*
X010668Y027374D02*
X018090Y027374D01*
X017217Y027239D02*
X018085Y027239D01*
X010668Y023054D02*
X018082Y023054D01*
X010668Y027329D02*
X018079Y027329D01*
X017166Y027284D02*
X018078Y027284D01*
X010668Y023324D02*
X018066Y023324D01*
X010668Y023099D02*
X018051Y023099D01*
X010668Y023279D02*
X018042Y023279D01*
X010668Y023144D02*
X018034Y023144D01*
X010668Y023234D02*
X018030Y023234D01*
X010668Y023189D02*
X018027Y023189D01*
X010837Y018419D02*
X018021Y018419D01*
X010668Y018779D02*
X018020Y018779D01*
X010812Y018464D02*
X017973Y018464D01*
X010668Y018734D02*
X017973Y018734D01*
X010773Y018509D02*
X017946Y018509D01*
X010668Y018689D02*
X017946Y018689D01*
X010706Y018554D02*
X017932Y018554D01*
X010668Y018644D02*
X017932Y018644D01*
X010668Y018599D02*
X017927Y018599D01*
X010812Y028364D02*
X017900Y028364D01*
X010834Y028904D02*
X017869Y028904D01*
X010832Y028499D02*
X017858Y028499D01*
X010815Y027959D02*
X017836Y027959D01*
X010837Y028319D02*
X017807Y028319D01*
X017221Y025934D02*
X017801Y025934D01*
X010808Y028859D02*
X017798Y028859D01*
X010849Y028544D02*
X017794Y028544D01*
X010780Y028004D02*
X017782Y028004D01*
X010851Y028274D02*
X017766Y028274D01*
X010778Y028814D02*
X017762Y028814D01*
X010857Y028589D02*
X017759Y028589D01*
X010801Y028049D02*
X017751Y028049D01*
X010858Y028229D02*
X017742Y028229D01*
X010808Y028769D02*
X017741Y028769D01*
X010858Y028634D02*
X017739Y028634D01*
X017112Y026339D02*
X017736Y026339D01*
X010829Y028094D02*
X017734Y028094D01*
X010668Y024539D02*
X017732Y024539D01*
X010834Y028724D02*
X017731Y028724D01*
X010850Y028679D02*
X017730Y028679D01*
X010857Y028184D02*
X017730Y028184D01*
X010847Y028139D02*
X017727Y028139D01*
X016839Y020219D02*
X017715Y020219D01*
X017174Y025979D02*
X017708Y025979D01*
X010668Y024944D02*
X017695Y024944D01*
X010668Y026294D02*
X017681Y026294D01*
X010668Y024404D02*
X017667Y024404D01*
X010668Y026024D02*
X017666Y026024D01*
X017263Y023999D02*
X017656Y023999D01*
X016902Y020984D02*
X017653Y020984D01*
X010668Y024584D02*
X017652Y024584D01*
X010668Y026249D02*
X017651Y026249D01*
X010668Y026069D02*
X017642Y026069D01*
X010668Y024899D02*
X017636Y024899D01*
X010668Y026204D02*
X017634Y026204D01*
X010668Y026114D02*
X017630Y026114D01*
X010668Y026159D02*
X017627Y026159D01*
X016939Y012299D02*
X017615Y012299D01*
X016940Y013019D02*
X017614Y013019D01*
X010668Y024629D02*
X017613Y024629D01*
X010668Y024854D02*
X017604Y024854D01*
X010668Y024359D02*
X017596Y024359D01*
X017261Y024044D02*
X017591Y024044D01*
X010668Y024674D02*
X017590Y024674D01*
X010668Y024809D02*
X017585Y024809D01*
X016969Y020264D02*
X017585Y020264D01*
X010668Y024719D02*
X017579Y024719D01*
X010668Y024764D02*
X017578Y024764D01*
X016994Y020939D02*
X017560Y020939D01*
X010668Y024314D02*
X017559Y024314D01*
X017250Y024089D02*
X017557Y024089D01*
X017015Y012344D02*
X017539Y012344D01*
X017016Y012974D02*
X017539Y012974D01*
X010668Y024269D02*
X017538Y024269D01*
X017228Y024134D02*
X017537Y024134D01*
X017109Y024224D02*
X017528Y024224D01*
X017189Y024179D02*
X017528Y024179D01*
X017034Y020309D02*
X017520Y020309D01*
X017051Y020894D02*
X017503Y020894D01*
X017065Y012389D02*
X017489Y012389D01*
X017066Y012929D02*
X017489Y012929D01*
X017079Y020354D02*
X017476Y020354D01*
X017255Y023954D02*
X017467Y023954D01*
X017091Y020849D02*
X017463Y020849D01*
X010668Y023549D02*
X017456Y023549D01*
X017102Y012434D02*
X017452Y012434D01*
X017102Y012884D02*
X017452Y012884D01*
X017112Y020399D02*
X017443Y020399D01*
X017121Y020804D02*
X017433Y020804D01*
X017129Y012479D02*
X017426Y012479D01*
X017129Y012839D02*
X017425Y012839D01*
X017136Y020444D02*
X017418Y020444D01*
X017143Y020759D02*
X017412Y020759D01*
X017148Y012524D02*
X017406Y012524D01*
X017148Y012794D02*
X017406Y012794D01*
X017153Y020489D02*
X017401Y020489D01*
X017158Y020714D02*
X017396Y020714D01*
X017236Y023909D02*
X017396Y023909D01*
X017162Y012569D02*
X017392Y012569D01*
X017162Y012749D02*
X017392Y012749D01*
X010668Y023594D02*
X017391Y023594D01*
X017165Y020534D02*
X017389Y020534D01*
X017168Y020669D02*
X017387Y020669D01*
X017169Y012614D02*
X017385Y012614D01*
X017170Y012704D02*
X017385Y012704D01*
X017171Y020579D02*
X017383Y020579D01*
X017172Y020624D02*
X017382Y020624D01*
X017172Y012659D02*
X017382Y012659D01*
X017204Y023864D02*
X017359Y023864D01*
X010668Y023639D02*
X017357Y023639D01*
X017145Y023819D02*
X017338Y023819D01*
X010668Y023684D02*
X017337Y023684D01*
X010668Y023774D02*
X017328Y023774D01*
X010668Y023729D02*
X017328Y023729D01*
X010668Y016709D02*
X017031Y016709D01*
X010668Y025034D02*
X017001Y025034D01*
X010668Y016304D02*
X016995Y016304D01*
X010668Y026339D02*
X016982Y026339D01*
X010668Y024224D02*
X016977Y024224D01*
X010668Y016664D02*
X016951Y016664D01*
X010668Y026744D02*
X016945Y026744D01*
X010668Y023819D02*
X016942Y023819D01*
X010668Y016349D02*
X016936Y016349D01*
X010668Y025439D02*
X016936Y025439D01*
X010668Y027284D02*
X016928Y027284D01*
X010668Y025619D02*
X016921Y025619D01*
X010668Y025979D02*
X016920Y025979D01*
X010668Y026924D02*
X016914Y026924D01*
X010668Y016619D02*
X016913Y016619D01*
X010668Y025079D02*
X016908Y025079D01*
X010668Y016394D02*
X016904Y016394D01*
X010668Y026384D02*
X016902Y026384D01*
X010668Y024179D02*
X016898Y024179D01*
X010668Y016574D02*
X016890Y016574D01*
X010668Y026699D02*
X016886Y026699D01*
X010668Y016439D02*
X016885Y016439D01*
X010668Y023864D02*
X016882Y023864D01*
X010668Y025394D02*
X016881Y025394D01*
X010668Y016529D02*
X016879Y016529D01*
X010668Y016484D02*
X016878Y016484D01*
X010668Y027239D02*
X016877Y027239D01*
X010668Y025664D02*
X016873Y025664D01*
X010668Y025934D02*
X016873Y025934D01*
X010668Y026969D02*
X016870Y026969D01*
X010668Y025124D02*
X016866Y025124D01*
X010668Y026429D02*
X016863Y026429D01*
X010668Y024134D02*
X016859Y024134D01*
X010668Y026654D02*
X016854Y026654D01*
X010668Y025349D02*
X016851Y025349D01*
X010668Y023909D02*
X016850Y023909D01*
X010668Y027194D02*
X016849Y027194D01*
X010668Y025709D02*
X016846Y025709D01*
X010668Y025889D02*
X016846Y025889D01*
X010668Y027014D02*
X016844Y027014D01*
X010668Y025169D02*
X016842Y025169D01*
X010668Y026474D02*
X016840Y026474D01*
X010668Y024089D02*
X016836Y024089D01*
X010668Y026609D02*
X016835Y026609D01*
X010668Y025304D02*
X016834Y025304D01*
X010668Y027149D02*
X016833Y027149D01*
X010668Y025754D02*
X016832Y025754D01*
X010668Y025844D02*
X016832Y025844D01*
X010668Y023954D02*
X016832Y023954D01*
X010668Y027059D02*
X016831Y027059D01*
X010668Y025214D02*
X016830Y025214D01*
X010668Y026519D02*
X016829Y026519D01*
X010668Y026564D02*
X016828Y026564D01*
X010668Y025259D02*
X016827Y025259D01*
X010668Y027104D02*
X016827Y027104D01*
X010668Y025799D02*
X016827Y025799D01*
X010668Y024044D02*
X016825Y024044D01*
X010668Y023999D02*
X016824Y023999D01*
X010839Y027914D02*
X016800Y027914D01*
X010668Y027509D02*
X016736Y027509D01*
X015839Y020219D02*
X016715Y020219D01*
X010853Y027869D02*
X016707Y027869D01*
X010671Y027554D02*
X016682Y027554D01*
X010858Y027824D02*
X016666Y027824D01*
X015902Y020984D02*
X016653Y020984D01*
X010748Y027599D02*
X016651Y027599D01*
X010856Y027779D02*
X016642Y027779D01*
X010796Y027644D02*
X016634Y027644D01*
X010846Y027734D02*
X016630Y027734D01*
X010827Y027689D02*
X016627Y027689D01*
X015939Y012299D02*
X016615Y012299D01*
X015940Y013019D02*
X016614Y013019D01*
X015969Y020264D02*
X016585Y020264D01*
X015994Y020939D02*
X016560Y020939D01*
X016015Y012344D02*
X016539Y012344D01*
X016016Y012974D02*
X016539Y012974D01*
X016034Y020309D02*
X016520Y020309D01*
X016051Y020894D02*
X016503Y020894D01*
X016065Y012389D02*
X016489Y012389D01*
X016066Y012929D02*
X016489Y012929D01*
X016079Y020354D02*
X016476Y020354D01*
X016091Y020849D02*
X016463Y020849D01*
X016102Y012434D02*
X016452Y012434D01*
X016102Y012884D02*
X016452Y012884D01*
X016112Y020399D02*
X016443Y020399D01*
X016121Y020804D02*
X016433Y020804D01*
X016129Y012479D02*
X016426Y012479D01*
X016129Y012839D02*
X016425Y012839D01*
X016136Y020444D02*
X016418Y020444D01*
X016143Y020759D02*
X016412Y020759D01*
X016148Y012524D02*
X016406Y012524D01*
X016148Y012794D02*
X016406Y012794D01*
X016153Y020489D02*
X016401Y020489D01*
X016158Y020714D02*
X016396Y020714D01*
X016162Y012569D02*
X016392Y012569D01*
X016162Y012749D02*
X016392Y012749D01*
X016165Y020534D02*
X016389Y020534D01*
X016168Y020669D02*
X016387Y020669D01*
X016169Y012614D02*
X016385Y012614D01*
X016170Y012704D02*
X016385Y012704D01*
X016171Y020579D02*
X016383Y020579D01*
X016172Y020624D02*
X016382Y020624D01*
X016172Y012659D02*
X016382Y012659D01*
X015071Y018014D02*
X016100Y018014D01*
X014713Y017609D02*
X016036Y017609D01*
X015023Y017969D02*
X016007Y017969D01*
X010818Y017654D02*
X015982Y017654D01*
X010858Y017924D02*
X015966Y017924D01*
X010783Y017699D02*
X015951Y017699D01*
X010856Y017879D02*
X015942Y017879D01*
X010796Y017744D02*
X015934Y017744D01*
X010846Y017834D02*
X015930Y017834D01*
X010827Y017789D02*
X015927Y017789D01*
X010668Y031019D02*
X015742Y031019D01*
X010668Y020219D02*
X015715Y020219D01*
X010622Y020984D02*
X015653Y020984D01*
X010668Y030614D02*
X015631Y030614D01*
X010668Y030974D02*
X015616Y030974D01*
X010622Y012299D02*
X015615Y012299D01*
X010668Y013019D02*
X015614Y013019D01*
X010668Y020264D02*
X015585Y020264D01*
X010668Y030659D02*
X015580Y030659D01*
X010668Y030929D02*
X015572Y030929D01*
X010622Y020939D02*
X015560Y020939D01*
X010668Y030704D02*
X015551Y030704D01*
X010668Y030884D02*
X015547Y030884D01*
X010622Y012344D02*
X015539Y012344D01*
X010668Y012974D02*
X015539Y012974D01*
X010668Y030749D02*
X015535Y030749D01*
X010668Y030839D02*
X015533Y030839D01*
X010668Y030794D02*
X015530Y030794D01*
X010668Y020309D02*
X015520Y020309D01*
X010622Y020894D02*
X015503Y020894D01*
X010622Y012389D02*
X015489Y012389D01*
X010668Y012929D02*
X015489Y012929D01*
X010668Y020354D02*
X015476Y020354D01*
X010622Y020849D02*
X015463Y020849D01*
X010622Y012434D02*
X015452Y012434D01*
X010668Y012884D02*
X015452Y012884D01*
X010668Y020399D02*
X015443Y020399D01*
X010622Y020804D02*
X015433Y020804D01*
X010630Y012479D02*
X015426Y012479D01*
X010668Y012839D02*
X015425Y012839D01*
X010668Y020444D02*
X015418Y020444D01*
X010632Y020759D02*
X015412Y020759D01*
X010647Y012524D02*
X015406Y012524D01*
X010668Y012794D02*
X015406Y012794D01*
X010668Y020489D02*
X015401Y020489D01*
X010648Y020714D02*
X015396Y020714D01*
X010658Y012569D02*
X015392Y012569D01*
X010668Y012749D02*
X015392Y012749D01*
X010668Y020534D02*
X015389Y020534D01*
X010659Y020669D02*
X015387Y020669D01*
X010665Y012614D02*
X015385Y012614D01*
X010668Y012704D02*
X015385Y012704D01*
X010668Y020579D02*
X015383Y020579D01*
X010666Y020624D02*
X015382Y020624D01*
X010668Y012659D02*
X015382Y012659D01*
X010853Y017969D02*
X014771Y017969D01*
X010858Y018329D02*
X014770Y018329D01*
X010839Y018014D02*
X014723Y018014D01*
X010857Y018284D02*
X014723Y018284D01*
X010815Y018059D02*
X014696Y018059D01*
X010847Y018239D02*
X014696Y018239D01*
X013813Y032639D02*
X014686Y032639D01*
X010780Y018104D02*
X014682Y018104D01*
X010829Y018194D02*
X014682Y018194D01*
X010801Y018149D02*
X014677Y018149D01*
X013873Y031874D02*
X014626Y031874D01*
X010841Y017609D02*
X014581Y017609D01*
X013942Y032594D02*
X014557Y032594D01*
X010843Y017204D02*
X014545Y017204D01*
X013966Y031919D02*
X014533Y031919D01*
X010854Y017564D02*
X014501Y017564D01*
X014007Y032549D02*
X014492Y032549D01*
X010821Y017249D02*
X014486Y017249D01*
X014023Y031964D02*
X014476Y031964D01*
X010858Y017519D02*
X014463Y017519D01*
X010788Y017294D02*
X014454Y017294D01*
X014051Y032504D02*
X014448Y032504D01*
X010855Y017474D02*
X014440Y017474D01*
X014063Y032009D02*
X014436Y032009D01*
X010792Y017339D02*
X014435Y017339D01*
X010844Y017429D02*
X014429Y017429D01*
X010824Y017384D02*
X014428Y017384D01*
X014084Y032459D02*
X014415Y032459D01*
X014093Y032054D02*
X014406Y032054D01*
X014108Y032414D02*
X014391Y032414D01*
X014115Y032099D02*
X014384Y032099D01*
X014126Y032369D02*
X014373Y032369D01*
X014130Y032144D02*
X014369Y032144D01*
X014137Y032324D02*
X014362Y032324D01*
X014140Y032189D02*
X014359Y032189D01*
X014143Y032279D02*
X014356Y032279D01*
X014144Y032234D02*
X014355Y032234D01*
X011957Y031469D02*
X014092Y031469D01*
X012068Y031064D02*
X013981Y031064D01*
X012083Y031424D02*
X013966Y031424D01*
X012119Y031109D02*
X013930Y031109D01*
X012127Y031379D02*
X013922Y031379D01*
X012148Y031154D02*
X013901Y031154D01*
X012153Y031334D02*
X013897Y031334D01*
X012164Y031199D02*
X013885Y031199D01*
X012166Y031289D02*
X013883Y031289D01*
X012169Y031244D02*
X013880Y031244D01*
X012813Y032639D02*
X013686Y032639D01*
X012873Y031874D02*
X013626Y031874D01*
X012942Y032594D02*
X013557Y032594D01*
X012966Y031919D02*
X013533Y031919D01*
X013007Y032549D02*
X013492Y032549D01*
X013023Y031964D02*
X013476Y031964D01*
X013051Y032504D02*
X013448Y032504D01*
X013063Y032009D02*
X013436Y032009D01*
X013084Y032459D02*
X013415Y032459D01*
X013093Y032054D02*
X013406Y032054D01*
X013108Y032414D02*
X013391Y032414D01*
X013115Y032099D02*
X013384Y032099D01*
X013126Y032369D02*
X013373Y032369D01*
X013130Y032144D02*
X013369Y032144D01*
X013137Y032324D02*
X013362Y032324D01*
X013140Y032189D02*
X013359Y032189D01*
X013143Y032279D02*
X013356Y032279D01*
X013144Y032234D02*
X013355Y032234D01*
X010668Y032639D02*
X012686Y032639D01*
X010668Y031874D02*
X012626Y031874D01*
X010668Y032594D02*
X012557Y032594D01*
X010668Y031919D02*
X012533Y031919D01*
X010668Y032549D02*
X012492Y032549D01*
X010668Y031964D02*
X012476Y031964D01*
X010668Y032504D02*
X012448Y032504D01*
X010668Y032009D02*
X012436Y032009D01*
X010668Y032459D02*
X012415Y032459D01*
X010668Y032054D02*
X012406Y032054D01*
X010668Y032414D02*
X012391Y032414D01*
X010668Y032099D02*
X012384Y032099D01*
X010668Y032369D02*
X012373Y032369D01*
X010668Y032144D02*
X012369Y032144D01*
X010668Y032324D02*
X012362Y032324D01*
X010668Y032189D02*
X012359Y032189D01*
X010668Y032279D02*
X012356Y032279D01*
X010668Y032234D02*
X012355Y032234D01*
X010668Y031469D02*
X011942Y031469D01*
X010668Y031064D02*
X011831Y031064D01*
X010668Y031424D02*
X011816Y031424D01*
X010668Y031109D02*
X011780Y031109D01*
X010668Y031379D02*
X011772Y031379D01*
X010668Y031154D02*
X011751Y031154D01*
X010668Y031334D02*
X011747Y031334D01*
X010668Y031199D02*
X011735Y031199D01*
X010668Y031289D02*
X011733Y031289D01*
X010668Y031244D02*
X011730Y031244D01*
G54D81*
X041383Y011250D03*
X008143Y011250D03*
X008143Y031865D03*
G54D150*
X037354Y030778D03*
X032850Y030778D03*
G54D394*
X037712Y032376D03*
X036712Y032376D03*
X033492Y032376D03*
X032492Y032376D03*
G74*
X000000Y000000D02*
M02*
