*
*
G04 PADS 9.4.1 Build Number: 494907 generated Gerber (RS-274-X) file*
G04 PC Version=2.1*
*
%IN "P9771A_EasyEDA_Edit.pcb"*%
*
%MOIN*%
*
%FSDAX24Y24*%
*
*
*
*
G04 PC Standard Apertures*
*
*
G04 Thermal Relief Aperture macro.*
%AMTER*
1,1,$1,0,0*
1,0,$1-$2,0,0*
21,0,$3,$4,0,0,45*
21,0,$3,$4,0,0,135*
%
*
*
G04 Annular Aperture macro.*
%AMANN*
1,1,$1,0,0*
1,0,$2,0,0*
%
*
*
G04 Odd Aperture macro.*
%AMODD*
1,1,$1,0,0*
1,0,$1-0.005,0,0*
%
*
*
G04 PC Custom Aperture Macros*
*
*
*
*
*
*
G04 PC Aperture Table*
*
%ADD031C,0.01*%
%ADD038C,0.038*%
%ADD040R,0.07X0.07*%
%ADD041C,0.07*%
%ADD046C,0.11*%
%ADD051C,0.001*%
%ADD055C,0.075*%
%ADD189C,0.08*%
%ADD206C,0.135*%
%ADD207C,0.138*%
%ADD213R,0.04X0.048*%
%ADD215R,0.08X0.08*%
%ADD222C,0.08874*%
%ADD314R,0.074X0.074*%
%ADD397R,0.095X0.108*%
*
*
*
*
G04 PC Circuitry*
G04 Layer Name P9771A_EasyEDA_Edit.pcb - circuitry*
%LPD*%
*
*
G04 PC Custom Flashes*
G04 Layer Name P9771A_EasyEDA_Edit.pcb - flashes*
%LPD*%
*
*
G04 PC Circuitry*
G04 Layer Name P9771A_EasyEDA_Edit.pcb - circuitry*
%LPD*%
*
G54D31*
G01X006893Y010000D02*
X009393Y010000D01*
X009393Y010000D02*
X009393Y016915D01*
X009693Y017215D02*
G75*
G03X009393Y016915I000000J-000300D01*
G01X009693Y017215D02*
X010093Y017215D01*
X010393Y016915D02*
G03X010093Y017215I-000299J000000D01*
G01X010393Y016915D02*
X010393Y012666D01*
X010393Y012666D02*
X010393Y012666D01*
X010196Y012469D02*
G03X010393Y012666I000000J000197D01*
G01X010196Y012469D02*
X010000Y012469D01*
X010000Y011957*
X010000Y011957D02*
X010197Y011957D01*
X010394Y011761D02*
G03X010197Y011957I-000196J-000000D01*
G01X010394Y011761D02*
X010396Y010589D01*
X010986Y010000*
X010986Y010000D02*
X038543Y010000D01*
X039133Y010590*
X039133Y010590D02*
X039133Y011760D01*
X039330Y011957D02*
G03X039133Y011760I000000J-000196D01*
G01X039330Y011957D02*
X039527Y011957D01*
X039527Y011957D02*
X039527Y012469D01*
X039527Y012469D02*
X039330Y012469D01*
X039133Y012666D02*
G03X039330Y012469I000197J000000D01*
G01X039133Y012666D02*
X039133Y016915D01*
X039433Y017215D02*
G03X039133Y016915I000000J-000300D01*
G01X039433Y017215D02*
X039833Y017215D01*
X040133Y016915D02*
G03X039833Y017215I-000299J-000000D01*
G01X040133Y016915D02*
X040133Y010000D01*
X040133Y010000D02*
X042633Y010000D01*
X042633Y010000D02*
X042633Y033115D01*
X042633Y033115D02*
X040133Y033115D01*
X040133Y033115D02*
X040133Y029215D01*
X039833Y028915D02*
G03X040133Y029215I000000J000300D01*
G01X039833Y028915D02*
X039433Y028915D01*
X039133Y029215D02*
G03X039433Y028915I000300J000000D01*
G01X039133Y029215D02*
X039133Y033115D01*
X039133Y033115D02*
X025242Y033115D01*
X024454Y033115D02*
G03X025242Y033115I000394J000000D01*
G01X024454Y033115D02*
X022033Y033115D01*
X021246Y033115D02*
G03X022033Y033115I000393J000000D01*
G01X021246Y033115D02*
X010393Y033115D01*
X010393Y033115D02*
X010393Y029215D01*
X010093Y028915D02*
G03X010393Y029215I000000J000300D01*
G01X010093Y028915D02*
X009693Y028915D01*
X009393Y029215D02*
G03X009693Y028915I000300J000000D01*
G01X009393Y029215D02*
X009393Y033115D01*
X009393Y033115D02*
X006893Y033115D01*
X006893Y033115D02*
X006893Y010000D01*
X009693Y027915D02*
G03X009393Y027615I000000J-000300D01*
G01X009393Y027615D02*
X009393Y018515D01*
X009393Y018515D02*
G03X009693Y018215I000300J000000D01*
G01X009693Y018215D02*
X010093Y018215D01*
X010093Y018215D02*
G03X010393Y018515I000000J000300D01*
G01X010393Y018515D02*
X010393Y020579D01*
X010393Y020579D02*
G03X010196Y020776I-000196J000000D01*
G01X010196Y020776D02*
X010000Y020776D01*
X010000Y021288*
X010196Y021288*
X010196Y021288D02*
G03X010393Y021485I000000J000197D01*
G01X010393Y021485D02*
X010393Y021485D01*
X010393Y021485D02*
X010393Y027615D01*
X010393Y027615D02*
G03X010093Y027915I-000299J000000D01*
G01X010093Y027915D02*
X009693Y027915D01*
X040133Y027615D02*
G03X039833Y027915I-000299J-000000D01*
G01X040133Y027615D02*
X040133Y018515D01*
X039833Y018215D02*
G03X040133Y018515I000000J000300D01*
G01X039833Y018215D02*
X039433Y018215D01*
X039133Y018515D02*
G03X039433Y018215I000300J000000D01*
G01X039133Y018515D02*
X039133Y020579D01*
X039330Y020776D02*
G03X039133Y020579I000000J-000196D01*
G01X039330Y020776D02*
X039527Y020776D01*
X039527Y020776D02*
X039527Y021288D01*
X039527Y021288D02*
X039330Y021288D01*
X039133Y021485D02*
G03X039330Y021288I000197J000000D01*
G01X039133Y021485D02*
X039133Y027615D01*
X039433Y027915D02*
G03X039133Y027615I000000J-000300D01*
G01X039433Y027915D02*
X039833Y027915D01*
G54D38*
X010593Y017515D03*
X010593Y017915D03*
X010593Y018315D03*
X010593Y017115D03*
X010593Y028215D03*
X010593Y028615D03*
X010593Y029015D03*
X010593Y027815D03*
X038943Y017515D03*
X038943Y017915D03*
X038943Y018315D03*
X038943Y017115D03*
X038943Y028215D03*
X038943Y028615D03*
X038943Y029015D03*
X038943Y027815D03*
G54D40*
X028777Y020610D03*
X015777Y012660D03*
X012750Y032250D03*
X036854Y028278D03*
G54D41*
X027777Y020610D03*
X026777Y020610D03*
X025777Y020610D03*
X024777Y020610D03*
X023777Y020610D03*
X022777Y020610D03*
X021777Y020610D03*
X020777Y020610D03*
X019777Y020610D03*
X018777Y020610D03*
X017777Y020610D03*
X016777Y020610D03*
X015777Y020610D03*
X016777Y012660D03*
X017777Y012660D03*
X018777Y012660D03*
X019777Y012660D03*
X020777Y012660D03*
X021777Y012660D03*
X022777Y012660D03*
X023777Y012660D03*
X024777Y012660D03*
X025777Y012660D03*
X026777Y012660D03*
X027777Y012660D03*
X028777Y012660D03*
X013750Y032250D03*
X014750Y032250D03*
X036350Y027278D03*
X035854Y028278D03*
X035350Y027278D03*
X034854Y028278D03*
X034350Y027278D03*
X033854Y028278D03*
X033350Y027278D03*
G54D46*
X038181Y029577D03*
X032023Y029577D03*
G54D51*
G54D55*
X037712Y032376D03*
X036712Y032376D03*
X033492Y032376D03*
X032492Y032376D03*
G54D189*
X035397Y017830D03*
X035397Y018830D03*
X035397Y019830D03*
X035397Y020830D03*
G54D206*
X041383Y011250D03*
X008143Y011250D03*
X008143Y031865D03*
G54D207*
X037354Y030778D03*
X032850Y030778D03*
G54D213*
X037300Y018810D03*
X037300Y018190D03*
G54D215*
X035397Y016830D03*
G54D222*
X011400Y032100D03*
X011400Y011000D03*
X038150Y011000D03*
G54D314*
X038150Y026775D03*
X038150Y028125D03*
G54D397*
X035925Y029900D03*
X034275Y029900D03*
G74*
X000000Y000000D02*
M02*
