%
T1C.012F095S300
X014648Y017400
X014898Y018150
X011950Y031250
X014100Y031250
X015750Y030800
X017950Y028700
X017948Y028150
X016848Y027700
X017048Y027100
X017048Y026550
X017848Y026150
X017048Y025800
X017048Y025250
X017798Y024750
X017748Y024200
X017044Y024015
X017548Y023750
X016148Y017800
X017098Y016500
X018498Y017650
X019098Y018000
X019748Y018550
X018148Y018600
X019048Y021950
X020398Y022600
X019148Y022800
X018248Y023200
X019144Y023615
X019194Y024015
X020244Y024115
X019994Y025265
X019644Y025265
X018348Y026550
X018298Y027300
X019948Y028750
X019898Y029250
X018448Y029300
X018848Y030150
X020248Y030150
X019448Y030450
X019948Y031300
X019398Y031300
X025548Y030250
X020798Y030150
X021198Y029250
X025548Y028300
X022748Y027650
X020948Y027200
X023898Y027150
X023898Y026600
X023898Y026050
X023898Y025250
X023898Y024700
X023044Y024315
X022448Y023500
X022400Y022400
X022400Y021500
X026698Y024000
X027098Y024500
X026248Y024500
X026248Y025100
X027098Y025100
X026698Y025550
X026798Y026250
X026798Y028050
X027148Y030150
X026748Y031000
X030050Y028800
X030450Y026300
X034898Y025100
X037300Y015000
X037200Y024350
X036450Y024350
X035898Y024700
T2C.028F197S550
X010594Y017115
X010594Y017515
X010594Y017915
X010594Y018315
X010594Y027815
X010594Y028215
X010594Y028615
X010594Y029015
X038944Y029015
X038944Y028615
X038944Y028215
X038944Y027815
X038944Y018315
X038944Y017915
X038944Y017515
X038944Y017115
T3C.035F197S550
X035351Y027278
X034351Y027278
X033351Y027278
X033855Y028278
X034855Y028278
X035855Y028278
X036855Y028278
X036351Y027278
T4C.037F197S550
X012750Y032250
X013750Y032250
X014750Y032250
X017778Y020610
X016778Y020610
X015778Y020610
X019778Y020610
X018778Y020610
X017778Y012660
X015778Y012660
X016778Y012660
X018778Y012660
X019778Y012660
X020778Y012660
X021778Y012660
X022778Y012660
X023778Y012660
X024778Y012660
X020778Y020610
X023778Y020610
X024778Y020610
X022778Y020610
X021778Y020610
X025778Y020610
X027778Y020610
X026778Y020610
X028778Y020610
X025778Y012660
X026778Y012660
X028778Y012660
X027778Y012660
T5C.039F197S550
X032492Y032376
X033492Y032376
X036713Y032376
X037713Y032376
T6C.04F139S550
X035398Y016830
X035398Y017830
X035398Y018830
X035398Y019830
X035398Y020830
T7C.063F089S550
X032024Y029577
X038181Y029577
T8C.125F035S794
X008144Y011250
X008144Y031865
X041384Y011250
T9C.128F035S794
X032851Y030778
X037355Y030778
M30
