*
*
G04 PADS 9.4.1 Build Number: 494907 generated Gerber (RS-274-X) file*
G04 PC Version=2.1*
*
%IN "P9771A_EasyEDA_Edit.pcb"*%
*
%MOIN*%
*
%FSDAX24Y24*%
*
*
*
*
G04 PC Standard Apertures*
*
*
G04 Thermal Relief Aperture macro.*
%AMTER*
1,1,$1,0,0*
1,0,$1-$2,0,0*
21,0,$3,$4,0,0,45*
21,0,$3,$4,0,0,135*
%
*
*
G04 Annular Aperture macro.*
%AMANN*
1,1,$1,0,0*
1,0,$2,0,0*
%
*
*
G04 Odd Aperture macro.*
%AMODD*
1,1,$1,0,0*
1,0,$1-0.005,0,0*
%
*
*
G04 PC Custom Aperture Macros*
*
*
*
*
*
*
G04 PC Aperture Table*
*
%ADD031C,0.01*%
%ADD051C,0.001*%
*
*
*
*
G04 PC Circuitry*
G04 Layer Name P9771A_EasyEDA_Edit.pcb - circuitry*
%LPD*%
*
*
G04 PC Custom Flashes*
G04 Layer Name P9771A_EasyEDA_Edit.pcb - flashes*
%LPD*%
*
*
G04 PC Circuitry*
G04 Layer Name P9771A_EasyEDA_Edit.pcb - circuitry*
%LPD*%
*
G54D31*
G01X006893Y010000D02*
X009393Y010000D01*
X009393Y010000D02*
X009393Y016915D01*
X009693Y017215D02*
G75*
G03X009393Y016915I000000J-000300D01*
G01X009693Y017215D02*
X010093Y017215D01*
X010393Y016915D02*
G03X010093Y017215I-000299J000000D01*
G01X010393Y016915D02*
X010393Y012666D01*
X010393Y012666D02*
X010393Y012666D01*
X010196Y012469D02*
G03X010393Y012666I000000J000197D01*
G01X010196Y012469D02*
X010000Y012469D01*
X010000Y011957*
X010000Y011957D02*
X010197Y011957D01*
X010394Y011761D02*
G03X010197Y011957I-000196J-000000D01*
G01X010394Y011761D02*
X010396Y010589D01*
X010986Y010000*
X010986Y010000D02*
X038543Y010000D01*
X039133Y010590*
X039133Y010590D02*
X039133Y011760D01*
X039330Y011957D02*
G03X039133Y011760I000000J-000196D01*
G01X039330Y011957D02*
X039527Y011957D01*
X039527Y011957D02*
X039527Y012469D01*
X039527Y012469D02*
X039330Y012469D01*
X039133Y012666D02*
G03X039330Y012469I000197J000000D01*
G01X039133Y012666D02*
X039133Y016915D01*
X039433Y017215D02*
G03X039133Y016915I000000J-000300D01*
G01X039433Y017215D02*
X039833Y017215D01*
X040133Y016915D02*
G03X039833Y017215I-000299J-000000D01*
G01X040133Y016915D02*
X040133Y010000D01*
X040133Y010000D02*
X042633Y010000D01*
X042633Y010000D02*
X042633Y033115D01*
X042633Y033115D02*
X040133Y033115D01*
X040133Y033115D02*
X040133Y029215D01*
X039833Y028915D02*
G03X040133Y029215I000000J000300D01*
G01X039833Y028915D02*
X039433Y028915D01*
X039133Y029215D02*
G03X039433Y028915I000300J000000D01*
G01X039133Y029215D02*
X039133Y033115D01*
X039133Y033115D02*
X025242Y033115D01*
X024454Y033115D02*
G03X025242Y033115I000394J000000D01*
G01X024454Y033115D02*
X022033Y033115D01*
X021246Y033115D02*
G03X022033Y033115I000393J000000D01*
G01X021246Y033115D02*
X010393Y033115D01*
X010393Y033115D02*
X010393Y029215D01*
X010093Y028915D02*
G03X010393Y029215I000000J000300D01*
G01X010093Y028915D02*
X009693Y028915D01*
X009393Y029215D02*
G03X009693Y028915I000300J000000D01*
G01X009393Y029215D02*
X009393Y033115D01*
X009393Y033115D02*
X006893Y033115D01*
X006893Y033115D02*
X006893Y010000D01*
X009693Y027915D02*
G03X009393Y027615I000000J-000300D01*
G01X009393Y027615D02*
X009393Y018515D01*
X009393Y018515D02*
G03X009693Y018215I000300J000000D01*
G01X009693Y018215D02*
X010093Y018215D01*
X010093Y018215D02*
G03X010393Y018515I000000J000300D01*
G01X010393Y018515D02*
X010393Y020579D01*
X010393Y020579D02*
G03X010196Y020776I-000196J000000D01*
G01X010196Y020776D02*
X010000Y020776D01*
X010000Y021288*
X010196Y021288*
X010196Y021288D02*
G03X010393Y021485I000000J000197D01*
G01X010393Y021485D02*
X010393Y021485D01*
X010393Y021485D02*
X010393Y027615D01*
X010393Y027615D02*
G03X010093Y027915I-000299J000000D01*
G01X010093Y027915D02*
X009693Y027915D01*
X040133Y027615D02*
G03X039833Y027915I-000299J-000000D01*
G01X040133Y027615D02*
X040133Y018515D01*
X039833Y018215D02*
G03X040133Y018515I000000J000300D01*
G01X039833Y018215D02*
X039433Y018215D01*
X039133Y018515D02*
G03X039433Y018215I000300J000000D01*
G01X039133Y018515D02*
X039133Y020579D01*
X039330Y020776D02*
G03X039133Y020579I000000J-000196D01*
G01X039330Y020776D02*
X039527Y020776D01*
X039527Y020776D02*
X039527Y021288D01*
X039527Y021288D02*
X039330Y021288D01*
X039133Y021485D02*
G03X039330Y021288I000197J000000D01*
G01X039133Y021485D02*
X039133Y027615D01*
X039433Y027915D02*
G03X039133Y027615I000000J-000300D01*
G01X039433Y027915D02*
X039833Y027915D01*
G54D51*
G74*
X000000Y000000D02*
M02*
